{"glyphs":{"0":{"ha":958,"x_min":49,"x_max":911,"o":"m 163 854 q 220 923 163 854 q 479 992 278 992 q 795 854 681 992 q 910 486 910 717 q 795 118 910 256 q 479 -19 681 -19 q 163 118 278 -19 q 49 486 49 256 q 163 854 49 717 m 479 922 q 374 816 408 922 q 340 486 340 710 q 436 61 340 118 q 479 50 456 50 q 585 156 551 50 q 618 486 618 263 q 542 896 618 819 q 479 922 515 922 z "},"1":{"ha":589,"x_min":42,"x_max":549,"o":"m 67 889 l 42 889 l 42 903 q 244 930 125 907 q 428 992 363 953 l 442 992 l 442 89 q 464 35 442 57 q 518 14 486 14 l 547 14 l 547 0 l 51 0 l 53 14 l 82 14 q 135 36 113 14 q 158 89 158 58 l 158 793 q 67 889 158 889 z "},"2":{"ha":914,"x_min":40,"x_max":867,"o":"m 428 992 q 608 958 518 992 q 750 860 697 925 q 803 707 803 794 q 700 475 803 583 q 499 308 619 388 q 442 272 475 293 q 399 244 408 251 l 663 244 q 771 280 725 244 q 853 390 817 315 l 867 390 l 772 0 l 50 0 l 50 14 q 151 135 88 60 q 256 260 214 211 q 350 379 299 310 q 431 503 401 449 q 504 736 504 631 q 456 878 504 826 q 343 922 414 922 q 326 922 335 922 q 149 633 147 907 l 135 633 l 42 883 q 428 992 167 992 z "},"3":{"ha":836,"x_min":40,"x_max":782,"o":"m 388 989 q 647 926 554 989 q 740 750 740 864 q 684 606 740 660 q 553 549 628 551 q 706 474 639 532 q 781 283 781 406 q 710 71 781 160 q 308 -97 576 -97 q 54 -44 172 -97 l 57 -31 q 72 -31 64 -31 q 270 8 176 -31 q 423 124 364 46 q 482 300 482 201 q 459 408 482 361 q 397 481 436 454 q 225 533 322 532 l 228 547 q 236 547 232 547 q 392 612 328 547 q 456 761 456 676 q 399 892 456 853 q 306 921 360 921 q 167 847 207 921 q 135 674 135 788 q 135 650 135 663 l 121 650 l 42 890 q 187 962 96 935 q 388 989 278 989 z "},"4":{"ha":893,"x_min":-21,"x_max":874,"o":"m 710 263 l 710 88 q 732 35 710 57 q 786 14 754 14 l 801 14 l 801 0 l 332 0 l 333 14 l 347 14 q 401 35 379 14 q 425 86 424 56 l 425 263 l -21 263 l -21 276 l 696 992 l 710 992 l 710 408 l 769 408 q 826 422 806 408 q 860 464 846 435 l 874 464 l 831 263 l 710 263 m 425 408 l 425 613 l 214 408 l 425 408 z "},"5":{"ha":821,"x_min":13,"x_max":753,"o":"m 211 589 q 383 611 310 611 q 513 596 457 611 q 692 480 633 563 q 751 289 751 397 q 711 122 751 194 q 610 4 671 49 q 271 -101 467 -101 q 14 -43 124 -101 l 17 -29 q 42 -29 22 -29 q 110 -22 63 -29 q 216 6 157 -14 q 324 57 275 26 q 408 136 374 88 q 447 259 447 192 q 401 371 447 326 q 267 418 351 418 q 82 381 182 418 l 69 389 l 185 922 l 599 957 q 708 1026 674 957 l 722 1026 l 664 739 l 238 704 l 211 589 z "},"6":{"ha":938,"x_min":56,"x_max":883,"o":"m 414 518 q 464 582 429 556 q 540 618 499 608 q 604 628 581 628 q 725 606 679 628 q 807 547 771 583 q 882 333 882 474 q 782 81 882 178 q 467 -21 676 -21 q 56 438 56 -21 q 233 899 56 740 q 640 1029 379 1029 q 776 1019 706 1029 l 782 1010 q 603 939 657 971 q 518 885 549 907 q 465 833 488 863 q 426 778 443 804 q 399 717 410 753 q 383 651 389 681 q 372 576 376 621 q 368 420 368 507 q 370 283 368 333 q 379 188 372 233 q 400 117 386 143 q 485 63 428 63 q 588 164 568 63 q 597 314 597 215 q 528 522 597 493 q 484 529 510 529 q 424 507 458 529 l 414 518 z "},"7":{"ha":794,"x_min":6,"x_max":782,"o":"m 125 729 q 61 709 85 729 q 21 646 38 689 l 7 646 l 46 969 l 782 969 l 604 560 q 504 289 564 468 q 414 0 444 110 l 178 0 q 329 258 221 69 q 497 575 438 447 l 569 729 l 125 729 z "},"8":{"ha":883,"x_min":35,"x_max":849,"o":"m 849 278 q 732 58 849 135 q 414 -19 615 -19 q 58 121 133 -19 q 35 221 35 165 q 89 369 35 314 q 222 453 143 425 q 94 694 94 553 q 190 914 94 836 q 432 992 286 992 q 679 925 578 992 q 781 756 781 858 q 728 637 781 685 q 597 569 676 589 q 803 425 760 485 q 849 278 849 361 m 432 921 q 406 921 432 921 q 351 889 379 921 q 324 803 324 857 q 363 711 324 749 q 517 613 401 674 q 550 760 550 675 q 518 876 550 835 q 432 921 485 921 m 447 49 q 547 81 501 49 q 593 163 593 113 q 546 257 593 214 q 408 346 499 300 q 301 401 318 392 q 269 256 269 344 q 310 113 269 167 q 447 49 357 49 z "},"9":{"ha":938,"x_min":54,"x_max":882,"o":"m 524 449 q 474 385 508 411 q 398 349 439 358 q 333 339 357 339 q 213 361 258 339 q 131 419 167 383 q 56 635 56 493 q 200 919 56 825 q 471 988 303 988 q 882 529 882 988 q 703 68 882 226 q 297 -61 558 -61 q 161 -53 232 -61 l 156 -43 q 335 28 281 -4 q 419 82 389 60 q 472 133 450 104 q 511 188 494 163 q 538 250 528 214 q 555 316 549 286 q 564 390 561 346 q 569 556 569 460 q 565 711 569 653 q 549 816 561 769 q 513 883 536 863 q 455 903 489 903 q 400 890 421 903 q 367 856 379 876 q 350 801 356 836 q 340 653 340 751 q 410 444 340 474 q 453 438 428 438 q 514 460 479 438 l 524 449 z "}," ":{"ha":347,"x_min":0,"x_max":0,"o":""},"!":{"ha":410,"x_min":63,"x_max":347,"o":"m 315 504 l 253 319 l 156 319 l 93 504 l 63 975 l 347 975 l 315 504 m 290 17 q 272 -1 290 17 q 202 -19 254 -19 q 113 17 150 -19 q 76 106 76 54 q 113 194 76 157 q 202 231 150 231 q 290 194 254 231 q 326 106 326 157 q 290 17 326 54 z "},"\"":{"ha":547,"x_min":42,"x_max":507,"o":"m 42 701 q 89 893 89 819 q 82 972 89 929 l 265 992 q 265 970 265 986 q 257 917 265 954 q 228 835 249 881 q 165 751 208 790 q 65 694 122 711 l 42 701 m 283 701 q 331 893 331 819 q 324 972 331 929 l 506 992 q 506 970 506 986 q 498 917 506 954 q 469 835 490 881 q 406 751 449 790 q 307 694 364 711 l 283 701 z "},"#":{"ha":833,"x_min":28,"x_max":758,"o":"m 758 607 l 594 607 l 556 385 l 697 385 l 697 301 l 540 301 l 488 0 l 401 0 l 454 301 l 263 301 l 210 0 l 124 0 l 176 301 l 28 301 l 28 385 l 192 385 l 231 607 l 89 607 l 89 690 l 246 690 l 294 972 l 381 972 l 332 690 l 524 690 l 572 972 l 658 972 l 610 690 l 758 690 l 758 607 m 469 385 l 508 607 l 317 607 l 278 385 l 469 385 z "},"$":{"ha":854,"x_min":47,"x_max":828,"o":"m 828 319 q 828 238 828 319 q 724 75 828 157 q 446 -18 619 -7 l 436 -142 l 369 -137 l 379 -19 q 183 7 267 -18 q 61 71 99 32 q 49 137 49 101 q 54 206 49 172 q 106 333 69 288 l 118 333 q 117 315 117 325 q 188 142 117 221 q 385 51 258 63 l 408 367 l 242 444 q 103 565 146 488 q 68 700 68 626 q 169 928 68 850 q 394 992 254 992 q 456 990 418 992 l 464 1094 l 531 1093 l 522 986 q 629 978 581 982 l 738 978 l 707 751 l 693 751 q 592 900 693 856 q 518 919 558 914 l 496 635 l 667 556 q 828 319 828 482 m 283 795 q 283 776 283 795 q 313 731 283 757 q 407 676 343 704 l 431 664 l 450 922 q 307 863 350 915 q 283 795 283 833 m 474 338 l 451 51 q 573 97 531 58 q 615 182 615 135 q 582 265 615 229 q 474 338 549 301 z "},"%":{"ha":1079,"x_min":26,"x_max":1028,"o":"m 504 892 q 526 808 526 847 q 524 746 526 768 q 434 566 511 631 q 238 501 357 501 q 67 569 119 501 q 28 701 28 621 q 124 931 28 853 q 318 992 200 992 l 319 992 q 347 992 322 992 q 409 982 371 992 q 467 960 447 972 q 582 924 529 924 q 726 969 640 924 q 756 985 749 981 l 810 961 l 293 -26 l 231 0 l 711 907 q 607 874 660 874 q 504 892 554 874 m 217 656 q 217 606 217 656 q 252 558 217 557 q 312 608 288 558 q 344 725 336 657 q 351 831 351 793 q 313 936 351 936 q 246 849 274 936 q 217 656 217 754 m 625 410 q 814 471 701 471 q 976 411 926 471 q 1026 260 1026 351 q 943 50 1026 119 q 740 -19 860 -19 q 568 49 621 -19 q 529 179 529 100 q 625 410 529 331 m 708 131 q 746 36 708 36 q 803 85 779 36 q 836 203 828 135 q 844 310 844 272 q 804 415 844 415 q 752 365 775 415 q 719 243 729 315 q 708 131 708 171 z "},"&":{"ha":1265,"x_min":33,"x_max":1279,"o":"m 1279 0 q 1050 -14 1161 -14 q 835 38 939 -14 q 557 -14 722 -14 q 186 61 329 -14 q 35 293 35 142 q 176 519 35 443 q 256 551 214 539 q 196 727 196 647 q 229 858 196 807 q 318 938 263 910 q 569 992 426 992 q 752 967 668 992 q 868 893 836 943 l 803 667 l 790 667 q 629 922 788 922 q 506 854 543 922 q 488 782 488 822 q 543 642 488 710 q 732 460 599 575 l 918 300 q 929 403 929 349 q 902 517 929 458 q 824 576 875 576 q 822 576 822 576 l 801 576 l 801 590 l 1157 590 l 1157 576 l 1138 576 q 1108 566 1118 576 q 1096 544 1099 556 q 1092 515 1093 532 q 1018 211 1075 319 q 1278 15 1201 51 l 1279 0 m 445 122 q 468 105 445 122 q 542 72 492 89 q 651 56 593 56 q 761 83 708 56 q 609 203 701 126 q 510 285 517 279 q 340 440 406 371 q 329 379 329 406 q 364 217 329 279 q 445 122 399 154 z "},"'":{"ha":306,"x_min":42,"x_max":265,"o":"m 42 701 q 89 893 89 819 q 82 972 89 929 l 265 992 q 265 970 265 986 q 257 917 265 954 q 228 835 249 881 q 165 751 208 790 q 65 694 122 711 l 42 701 z "},"(":{"ha":664,"x_min":125,"x_max":624,"o":"m 403 492 q 621 -126 403 26 l 613 -139 q 392 -49 488 -110 q 240 93 297 13 q 125 464 125 254 q 240 835 125 688 q 615 1017 363 989 l 624 1006 q 403 492 403 900 z "},")":{"ha":664,"x_min":42,"x_max":540,"o":"m 44 -126 q 263 492 263 26 q 42 1006 263 900 l 50 1017 q 424 835 303 989 q 540 464 540 688 q 425 93 540 254 q 272 -49 367 13 q 53 -139 176 -110 l 44 -126 z "},"*":{"ha":542,"x_min":49,"x_max":494,"o":"m 281 840 l 374 797 l 456 717 l 407 658 l 336 631 l 283 732 l 271 833 l 260 732 l 208 631 l 138 658 l 89 717 l 169 797 l 261 840 l 161 821 l 49 839 l 53 914 l 94 978 l 196 926 l 265 853 l 217 942 l 197 1054 l 271 1074 l 344 1054 l 328 942 l 278 851 l 347 926 l 449 979 l 490 915 l 494 839 l 381 821 l 281 840 z "},"+":{"ha":668,"x_min":54,"x_max":614,"o":"m 614 475 l 614 385 l 379 385 l 379 151 l 289 151 l 289 385 l 56 385 l 56 475 l 289 475 l 289 710 l 379 710 l 379 475 l 614 475 z "},",":{"ha":361,"x_min":47,"x_max":314,"o":"m 57 -161 q 114 -101 99 -143 q 119 -72 119 -85 q 84 13 119 -28 q 49 106 49 54 q 94 207 49 174 q 154 231 125 231 q 292 150 256 231 q 313 49 313 99 q 290 -47 313 -1 q 157 -174 243 -144 q 104 -183 128 -183 q 63 -179 81 -183 l 57 -161 z "},"-":{"ha":528,"x_min":42,"x_max":486,"o":"m 42 406 l 56 461 l 472 461 l 486 406 l 472 349 l 56 349 l 42 406 z "},".":{"ha":347,"x_min":49,"x_max":299,"o":"m 262 17 q 243 -1 262 17 q 174 -19 225 -19 q 85 17 122 -19 q 49 106 49 54 q 85 194 49 157 q 174 231 122 231 q 262 194 225 231 q 299 106 299 157 q 262 17 299 54 z "},"/":{"ha":610,"x_min":14,"x_max":597,"o":"m 14 19 l 515 1004 l 597 967 l 96 -19 l 14 19 z "},":":{"ha":347,"x_min":49,"x_max":299,"o":"m 262 549 q 243 531 262 549 q 174 513 225 513 q 85 549 122 513 q 49 637 49 585 q 85 726 49 689 q 174 763 122 763 q 262 726 225 763 q 299 637 299 689 q 262 549 299 585 m 262 17 q 243 -1 262 17 q 174 -19 225 -19 q 85 17 122 -19 q 49 106 49 54 q 85 194 49 157 q 174 231 122 231 q 262 194 225 231 q 299 106 299 157 q 262 17 299 54 z "},";":{"ha":361,"x_min":47,"x_max":314,"o":"m 262 588 q 243 570 262 588 q 174 551 225 551 q 85 588 122 551 q 49 677 49 625 q 85 765 49 729 q 174 801 122 801 q 262 765 225 801 q 299 677 299 729 q 262 588 299 625 m 57 -161 q 114 -101 99 -143 q 119 -72 119 -85 q 84 13 119 -28 q 49 106 49 54 q 94 207 49 174 q 154 231 125 231 q 292 150 256 231 q 313 49 313 99 q 290 -47 313 -1 q 157 -174 243 -144 q 104 -183 128 -183 q 63 -179 81 -183 l 57 -161 z "},"<":{"ha":696,"x_min":56,"x_max":614,"o":"m 614 731 l 614 632 l 185 431 l 614 228 l 614 129 l 56 389 l 56 471 l 614 731 z "},"=":{"ha":668,"x_min":56,"x_max":614,"o":"m 56 492 l 56 582 l 614 582 l 614 492 l 56 492 m 56 249 l 56 339 l 614 339 l 614 249 l 56 249 z "},">":{"ha":668,"x_min":56,"x_max":614,"o":"m 56 731 l 614 471 l 614 389 l 56 129 l 56 228 l 485 431 l 56 632 l 56 731 z "},"?":{"ha":685,"x_min":0,"x_max":643,"o":"m 344 749 q 218 922 344 922 q 83 708 83 922 l 69 708 l 0 868 q 113 958 32 924 q 307 992 194 992 q 556 928 469 992 q 643 746 643 864 q 598 608 643 665 q 439 468 553 551 q 358 386 367 415 q 368 307 347 349 l 356 299 q 231 390 265 322 q 215 441 215 419 q 217 482 215 463 q 235 527 219 501 q 268 572 250 553 q 304 614 286 592 q 344 749 344 664 m 438 106 q 438 80 438 106 q 401 17 438 54 q 313 -19 365 -19 q 224 17 261 -19 q 188 106 188 54 q 224 194 188 157 q 313 231 261 231 q 401 194 365 231 q 438 106 438 157 z "},"@":{"ha":1386,"x_min":28,"x_max":1353,"o":"m 117 158 q 28 371 28 235 q 65 549 28 451 q 246 789 122 688 q 535 935 369 890 q 729 964 643 964 q 1238 782 1081 964 q 1353 454 1353 647 q 1215 58 1353 225 q 843 -160 1078 -110 q 699 -175 775 -175 q 289 -87 515 -175 l 283 -74 q 564 -135 432 -135 q 876 -47 739 -135 q 1058 157 990 28 q 1139 474 1139 306 q 1078 743 1139 642 q 868 892 1008 860 q 783 901 814 901 q 746 901 753 901 q 493 808 625 899 q 281 542 364 719 q 208 276 208 392 q 231 191 208 217 q 278 164 253 165 q 322 169 303 163 q 357 188 340 176 q 391 215 374 199 q 424 249 408 232 q 455 288 439 267 q 485 328 471 310 q 540 404 519 378 l 717 644 q 793 751 781 724 l 801 751 l 918 190 q 974 125 931 125 l 981 125 l 978 115 l 647 115 l 649 125 l 658 125 q 698 142 679 125 q 717 172 717 158 q 715 190 717 185 l 704 264 l 515 264 q 397 140 449 178 q 263 101 342 101 q 117 158 183 101 m 671 481 l 553 313 l 697 313 l 671 481 z "},"A":{"ha":1000,"x_min":-57,"x_max":1057,"o":"m 1044 14 l 1056 14 l 1056 0 l 529 0 l 529 14 l 542 14 q 588 33 572 14 q 603 67 603 51 q 596 101 603 83 l 542 231 l 244 231 l 189 101 q 182 72 182 83 q 187 48 182 61 q 208 24 192 35 q 242 14 224 14 l 254 14 l 254 0 l -56 0 l -56 14 l -43 14 q 20 33 -11 14 q 72 89 51 51 l 396 799 q 475 1006 469 954 l 488 1006 l 928 90 q 1044 14 972 14 m 275 300 l 513 300 l 396 578 l 275 300 z "},"B":{"ha":1015,"x_min":42,"x_max":982,"o":"m 547 0 l 42 0 l 42 14 l 60 14 q 136 57 110 14 q 149 100 147 76 l 149 872 q 104 947 147 922 q 60 958 83 958 l 42 958 l 42 972 l 525 972 q 911 731 911 972 q 797 543 911 590 q 729 529 765 531 q 909 456 836 524 q 982 278 982 389 q 864 69 982 139 q 547 0 746 0 m 453 72 q 599 126 543 72 q 656 291 656 181 q 611 458 656 401 q 481 514 567 514 l 481 526 q 613 715 613 526 q 451 903 613 903 q 451 903 451 903 l 433 903 l 433 72 l 451 72 q 453 72 453 72 z "},"C":{"ha":1101,"x_min":47,"x_max":1047,"o":"m 49 488 q 121 758 49 644 q 330 932 193 872 q 665 992 467 992 q 1014 928 864 992 l 1000 663 l 988 663 q 871 863 947 803 q 681 922 794 922 q 440 808 526 922 q 354 491 354 694 q 434 171 354 288 q 656 50 514 54 q 893 128 819 50 q 1001 406 963 200 l 1013 406 l 1046 153 q 658 -19 943 -19 q 210 115 372 -18 q 49 488 49 247 z "},"D":{"ha":1169,"x_min":40,"x_max":1122,"o":"m 976 844 q 1049 780 976 844 q 1122 486 1122 715 q 976 128 1122 257 q 568 0 829 0 l 42 0 l 42 14 l 60 14 q 122 40 96 14 q 149 101 147 65 l 149 879 q 122 935 149 913 q 60 958 94 958 l 43 958 l 42 972 l 568 972 q 976 844 829 972 m 433 903 l 433 69 l 540 69 q 743 180 669 69 q 817 486 817 290 q 743 792 817 682 q 540 903 669 903 l 433 903 z "},"E":{"ha":926,"x_min":42,"x_max":907,"o":"m 60 14 q 122 40 96 14 q 149 101 147 65 l 149 871 q 111 942 147 915 q 60 958 89 958 l 42 958 l 42 972 l 657 972 q 751 981 700 972 q 822 997 801 989 l 822 711 l 808 711 l 808 722 q 728 878 808 833 q 635 901 689 900 l 433 901 l 433 514 l 585 514 q 693 558 651 515 q 735 667 735 600 l 735 672 l 749 672 l 749 286 l 735 286 l 735 293 q 693 401 735 358 q 586 444 651 443 l 433 444 l 433 71 l 604 71 q 783 138 706 71 q 893 322 861 204 l 907 322 l 854 0 l 42 0 l 42 14 l 60 14 z "},"F":{"ha":876,"x_min":40,"x_max":822,"o":"m 433 901 l 433 514 l 585 514 q 693 558 651 515 q 735 665 735 600 l 735 672 l 749 672 l 749 286 l 735 286 l 735 293 q 693 401 735 358 q 586 444 651 443 l 433 444 l 433 101 q 460 40 433 65 q 522 14 486 14 l 540 14 l 540 0 l 42 0 l 42 14 l 60 14 q 122 40 96 14 q 149 101 147 65 l 149 871 q 122 933 147 907 q 60 958 96 958 l 42 958 l 42 972 l 657 972 q 763 982 717 972 q 822 997 808 992 l 822 711 l 808 711 l 808 722 q 728 878 808 833 q 635 901 689 900 l 433 901 z "},"G":{"ha":1196,"x_min":47,"x_max":1179,"o":"m 590 -19 q 195 116 342 -19 q 49 488 49 251 q 196 858 49 725 q 604 992 343 992 q 836 973 717 992 q 1018 928 956 954 l 1004 663 l 992 663 q 674 922 919 922 q 354 475 354 922 q 420 161 354 272 q 621 50 486 50 q 749 90 694 50 q 804 199 804 129 l 806 389 q 787 435 806 419 q 735 451 768 451 l 713 451 l 713 465 l 1179 465 l 1179 451 l 1158 451 q 1106 435 1124 451 q 1089 389 1088 419 l 1089 160 q 807 8 1011 61 q 590 -19 701 -19 z "},"H":{"ha":1240,"x_min":40,"x_max":1200,"o":"m 718 14 q 780 39 754 14 q 807 100 806 64 l 807 451 l 433 451 l 433 101 q 478 25 435 50 q 522 14 499 14 l 540 14 l 540 0 l 42 0 l 42 14 l 60 14 q 122 40 96 14 q 149 101 147 65 l 149 872 q 122 933 147 908 q 60 958 96 958 l 42 958 l 42 972 l 540 972 l 540 958 l 522 958 q 460 933 486 958 q 433 872 435 908 l 433 521 l 807 521 l 807 872 q 780 933 806 908 q 718 958 754 958 l 700 958 l 700 972 l 1199 972 l 1199 958 l 1181 958 q 1104 915 1131 958 q 1092 871 1093 894 l 1092 101 q 1119 40 1093 65 q 1181 14 1144 14 l 1199 14 l 1199 0 l 700 0 l 700 14 l 718 14 z "},"I":{"ha":581,"x_min":40,"x_max":540,"o":"m 60 14 q 122 40 96 14 q 149 101 147 65 l 149 872 q 122 933 147 908 q 60 958 96 958 l 42 958 l 42 972 l 540 972 l 540 958 l 522 958 q 460 933 486 958 q 433 872 435 908 l 433 101 q 460 40 433 65 q 522 14 486 14 l 540 14 l 540 0 l 42 0 l 42 14 l 60 14 z "},"J":{"ha":589,"x_min":-7,"x_max":549,"o":"m 529 958 q 453 915 479 958 q 440 871 442 896 l 440 69 q 376 -131 440 -44 q 208 -254 311 -217 q 56 -282 135 -282 q -7 -278 25 -282 l -7 -265 q 156 74 156 -192 l 156 871 q 128 933 154 907 q 67 958 103 958 l 49 958 l 49 972 l 547 972 l 547 958 l 529 958 z "},"K":{"ha":1142,"x_min":40,"x_max":1178,"o":"m 60 14 q 122 40 96 14 q 149 101 147 65 l 149 872 q 122 933 147 908 q 60 958 96 958 l 42 958 l 42 972 l 540 972 l 540 958 l 522 958 q 460 933 486 958 q 433 872 435 908 l 433 101 q 460 40 433 65 q 522 14 486 14 l 540 14 l 540 0 l 42 0 l 42 14 l 60 14 m 1178 0 l 1028 0 q 671 139 772 0 q 553 317 629 194 q 478 442 478 440 l 810 894 q 819 919 819 908 q 815 939 819 931 q 776 960 806 960 l 763 960 l 763 972 l 1097 972 l 1097 960 l 1092 960 q 939 892 999 960 l 704 608 l 1029 119 q 1178 14 1097 17 l 1178 0 z "},"L":{"ha":906,"x_min":42,"x_max":907,"o":"m 60 14 q 122 40 96 14 q 149 101 147 65 l 149 871 q 104 947 147 922 q 60 958 83 958 l 42 958 l 42 972 l 540 972 l 540 958 l 522 958 q 460 933 486 958 q 433 871 433 907 l 433 71 l 604 71 q 783 138 706 71 q 893 322 861 204 l 907 322 l 854 0 l 42 0 l 42 14 l 60 14 z "},"M":{"ha":1344,"x_min":-36,"x_max":1381,"o":"m 1358 14 l 1381 14 l 1381 0 l 888 0 l 888 13 l 910 13 q 948 31 932 13 q 964 72 964 50 l 911 478 l 675 128 q 633 47 651 94 q 617 -33 615 0 l 604 -33 l 243 465 l 194 72 q 210 31 194 50 q 249 13 226 13 l 271 13 l 271 0 l -35 0 l -35 14 l -12 14 q 55 38 26 14 q 89 101 83 61 l 211 992 l 224 992 l 690 354 l 1118 992 l 1131 992 l 1257 101 q 1313 24 1267 46 q 1358 14 1333 14 z "},"N":{"ha":1224,"x_min":26,"x_max":1197,"o":"m 1171 958 q 1111 934 1136 958 q 1085 875 1086 910 l 1085 158 q 1099 0 1085 56 l 1103 -19 l 1090 -19 l 425 572 l 425 99 q 468 25 425 49 q 510 14 488 14 l 536 14 l 536 0 l 28 0 l 28 14 l 54 14 q 114 38 89 14 q 139 99 139 63 l 139 819 q 125 974 139 917 l 121 993 l 135 993 l 800 401 l 800 874 q 774 934 799 910 q 714 958 749 958 l 688 958 l 688 972 l 1196 972 l 1196 958 l 1171 958 z "},"O":{"ha":1257,"x_min":47,"x_max":1203,"o":"m 625 992 q 934 932 804 992 q 1133 758 1064 872 q 1203 486 1203 643 q 1049 115 1203 249 q 625 -19 894 -19 q 202 115 356 -19 q 49 486 49 249 q 202 858 49 724 q 625 992 356 992 m 427 165 q 463 108 427 165 q 626 50 499 50 q 824 165 753 50 q 896 486 896 281 q 824 807 896 692 q 626 922 753 922 q 427 807 499 922 q 356 486 356 692 q 427 165 356 281 z "},"P":{"ha":982,"x_min":49,"x_max":963,"o":"m 963 688 q 937 564 963 624 q 863 464 911 504 q 676 393 775 393 q 488 457 576 393 l 488 471 q 563 498 538 479 q 604 532 589 517 q 651 619 639 569 q 663 690 663 669 q 615 851 663 800 q 489 903 568 903 l 440 903 l 440 101 q 467 40 442 65 q 529 14 493 14 l 547 14 l 547 0 l 49 0 l 49 14 l 67 14 q 143 57 117 14 q 156 101 156 78 l 156 879 q 126 935 151 913 q 67 958 101 958 l 50 958 l 49 972 l 578 972 q 869 893 768 972 q 963 688 963 822 z "},"Q":{"ha":1267,"x_min":54,"x_max":1911,"o":"m 1763 -367 q 1518 -425 1663 -425 q 1368 -402 1468 -425 q 1171 -326 1268 -379 q 993 -215 1074 -272 q 863 -119 913 -158 q 750 -51 813 -81 q 629 -19 688 -21 q 208 115 361 -18 q 56 486 56 249 q 209 858 56 724 q 632 992 363 992 q 941 932 811 992 q 1140 758 1071 872 q 1210 486 1210 643 q 1056 114 1210 247 q 874 15 981 49 q 1078 -34 990 -4 q 1279 -106 1165 -64 q 1625 -174 1467 -174 q 1901 -89 1783 -174 l 1911 -93 q 1873 -253 1911 -182 q 1763 -367 1835 -325 m 434 807 q 398 749 434 807 q 363 486 363 692 q 434 165 363 281 q 633 50 506 50 q 831 165 760 50 q 903 486 903 281 q 831 807 903 692 q 633 922 760 922 q 434 807 506 922 z "},"R":{"ha":1101,"x_min":49,"x_max":1186,"o":"m 938 819 q 960 719 960 771 q 949 627 960 667 q 914 549 938 588 q 738 446 863 465 q 835 392 792 431 q 921 283 881 353 q 1081 54 1025 106 q 1186 14 1122 15 l 1186 0 l 1013 0 q 754 40 832 0 q 596 236 643 97 q 574 321 583 276 q 559 385 565 365 q 544 423 553 406 q 526 450 536 440 q 488 475 510 467 l 488 489 l 510 489 q 631 563 590 489 q 656 647 651 601 q 661 703 661 692 q 661 717 661 714 q 503 900 651 900 l 442 900 l 442 101 q 468 40 442 65 q 531 14 494 14 l 547 14 l 547 0 l 49 0 l 49 14 l 67 14 q 128 39 103 14 q 156 100 154 64 l 156 871 q 111 947 154 922 q 67 958 90 958 l 49 958 l 49 972 l 592 972 q 938 819 864 972 z "},"S":{"ha":896,"x_min":61,"x_max":842,"o":"m 842 314 q 842 230 842 314 q 722 63 842 146 q 404 -19 603 -19 q 201 6 289 -19 q 75 71 114 32 q 63 137 63 101 q 68 206 63 172 q 119 333 83 288 l 132 333 q 131 315 131 325 q 212 131 131 213 q 433 50 293 50 q 578 90 528 50 q 629 180 629 129 q 594 267 629 231 q 482 339 560 303 l 256 444 q 117 565 160 488 q 82 700 82 626 q 183 928 82 850 q 408 992 268 992 q 643 978 500 992 l 751 978 l 721 751 l 707 751 q 647 875 707 828 q 495 922 588 922 q 352 890 403 922 q 297 806 301 858 q 381 694 292 740 q 421 676 396 686 l 681 556 q 842 314 842 482 z "},"T":{"ha":969,"x_min":13,"x_max":957,"o":"m 628 904 l 628 100 q 655 39 629 64 q 717 14 681 14 l 735 14 l 735 0 l 236 0 l 236 14 l 254 14 q 316 39 290 14 q 343 99 342 64 l 343 904 l 206 904 q 75 855 122 903 q 28 724 28 807 l 28 714 l 14 713 l 14 999 q 84 982 33 990 q 178 974 135 974 l 793 974 q 886 982 836 974 q 957 999 936 990 l 957 713 l 943 714 l 943 724 q 860 882 943 836 q 764 904 819 903 l 628 904 z "},"U":{"ha":1174,"x_min":42,"x_max":1147,"o":"m 1146 958 l 1124 958 q 1073 940 1094 958 q 1050 893 1051 921 l 1050 357 q 941 81 1050 181 q 633 -19 832 -19 q 261 78 385 -19 q 138 356 138 175 l 138 889 q 116 939 138 919 q 64 958 94 958 l 42 958 l 42 972 l 518 972 l 518 958 l 496 958 q 444 940 465 958 q 422 892 424 921 l 422 361 q 489 133 422 215 q 675 51 556 51 q 862 128 794 51 q 929 343 929 206 l 929 892 q 907 940 928 921 q 856 958 886 958 l 833 958 l 833 972 l 1146 972 l 1146 958 z "},"V":{"ha":1000,"x_min":-56,"x_max":1057,"o":"m 1056 958 l 1043 958 q 928 883 971 958 l 604 174 q 525 -33 531 18 l 513 -33 l 72 882 q -44 958 29 958 l -56 958 l -56 972 l 471 972 l 471 958 l 458 958 q 415 940 429 958 q 400 904 400 921 q 406 871 400 888 l 604 394 l 811 871 q 819 905 819 889 q 804 940 819 921 q 758 958 789 958 l 746 958 l 746 972 l 1056 972 l 1056 958 z "},"W":{"ha":1339,"x_min":-71,"x_max":1396,"o":"m 1394 958 l 1383 958 q 1314 938 1349 958 q 1264 879 1279 918 l 1028 124 q 1007 -7 1007 58 q 1008 -31 1007 -19 l 994 -31 l 674 574 l 454 124 q 417 -31 418 46 l 404 -31 l 61 879 q 9 939 42 919 q -58 958 -24 958 l -69 958 l -69 972 l 429 972 l 429 958 l 417 958 q 361 919 375 958 q 360 900 360 911 q 365 872 360 889 l 517 494 l 757 994 l 769 993 l 1046 482 l 1157 872 q 1160 899 1160 888 q 1156 925 1160 911 q 1138 949 1151 939 q 1104 958 1124 958 l 1092 958 l 1092 972 l 1394 972 l 1394 958 z "},"X":{"ha":1074,"x_min":-46,"x_max":1126,"o":"m 582 14 q 629 43 611 14 q 638 71 638 57 q 629 100 638 85 l 446 379 l 249 100 q 263 28 225 58 q 297 14 279 14 l 315 14 l 315 0 l -46 0 l -46 14 l -26 14 q 111 93 49 14 l 388 471 l 122 878 q 61 935 99 911 q -18 958 24 958 l -37 958 l -37 972 l 521 972 l 521 958 l 504 958 q 457 929 474 958 q 447 901 447 915 q 456 872 447 886 l 618 626 l 775 872 q 783 901 783 886 q 775 929 783 915 q 726 958 757 958 l 710 958 l 708 972 l 1068 972 l 1068 958 l 1049 958 q 972 935 1008 958 q 911 878 936 913 l 679 532 l 965 94 q 1026 38 988 61 q 1106 14 1064 14 l 1125 14 l 1125 0 l 564 0 l 564 14 l 582 14 z "},"Y":{"ha":1013,"x_min":-64,"x_max":1076,"o":"m 1076 958 l 1057 958 q 977 935 1015 958 q 917 876 939 911 l 644 447 l 644 101 q 670 40 644 65 q 733 14 696 14 l 750 14 l 750 0 l 253 0 l 253 14 l 271 14 q 333 39 307 14 q 360 100 358 64 l 360 447 l 94 879 q -1 951 60 933 q -43 958 -22 958 l -62 958 l -62 972 l 474 972 l 474 958 l 457 958 q 410 931 426 958 q 400 901 400 915 q 408 872 400 886 l 599 529 l 796 872 q 804 900 804 886 q 794 929 804 914 q 747 958 776 958 l 731 958 l 731 972 l 1076 972 l 1076 958 z "},"Z":{"ha":928,"x_min":49,"x_max":894,"o":"m 68 999 q 141 982 89 990 q 215 974 193 974 q 236 974 236 974 l 715 974 q 814 981 774 974 q 863 992 854 988 l 863 979 l 396 69 l 592 69 q 771 137 693 69 q 881 322 849 204 l 894 322 l 842 0 l 49 0 l 49 13 l 510 904 l 260 904 q 129 855 176 903 q 82 724 82 807 l 82 713 l 68 713 l 68 999 z "},"[":{"ha":656,"x_min":167,"x_max":601,"o":"m 167 -125 l 167 1003 l 596 1003 l 596 989 l 451 919 l 451 -42 l 600 -111 l 600 -125 l 167 -125 z "},"\\":{"ha":610,"x_min":14,"x_max":597,"o":"m 14 967 l 96 1004 l 597 19 l 515 -19 l 14 967 z "},"]":{"ha":656,"x_min":54,"x_max":490,"o":"m 60 1003 l 489 1003 l 489 -125 l 56 -125 l 56 -111 l 204 -42 l 204 919 l 60 989 l 60 1003 z "},"^":{"ha":794,"x_min":47,"x_max":747,"o":"m 351 529 l 446 529 l 747 239 l 624 239 l 399 451 l 172 239 l 49 239 l 351 529 z "},"_":{"ha":694,"x_min":0,"x_max":694,"o":"m 0 -153 l 0 -83 l 694 -83 l 694 -153 l 0 -153 z "},"`":{"ha":833,"x_min":74,"x_max":408,"o":"m 408 1042 l 399 1032 q 235 1078 325 1040 q 75 1161 144 1115 q 193 1300 104 1263 q 317 1176 253 1249 q 408 1042 382 1103 z "},"a":{"ha":878,"x_min":-58,"x_max":939,"o":"m 928 14 l 939 14 l 939 0 l 450 0 l 450 14 l 461 14 q 502 28 489 14 q 515 56 515 43 q 508 85 515 69 l 468 176 l 211 176 l 169 81 q 164 56 164 68 q 177 28 164 43 q 218 14 190 14 l 228 14 l 228 0 l -58 0 l -58 14 l -47 14 q 12 31 -18 14 q 58 82 42 47 l 344 699 q 417 883 413 847 l 428 883 l 819 85 q 928 14 856 14 m 238 239 l 440 239 l 339 472 l 238 239 z "},"b":{"ha":869,"x_min":32,"x_max":849,"o":"m 767 729 q 793 615 793 686 q 749 499 793 543 q 642 454 704 454 q 788 394 728 450 q 849 240 849 338 q 747 59 849 118 q 474 0 646 0 l 32 0 l 32 14 l 47 14 q 99 35 78 14 q 119 86 119 56 l 119 747 q 99 799 119 778 q 47 819 78 819 l 32 819 l 32 833 l 464 833 q 767 729 703 833 m 386 64 q 499 113 456 67 q 542 253 542 160 q 516 393 542 346 q 428 440 490 440 q 425 440 426 440 l 425 451 q 495 490 476 451 q 514 604 514 529 q 390 771 514 771 l 386 771 l 386 64 z "},"c":{"ha":928,"x_min":32,"x_max":888,"o":"m 558 -16 q 435 -16 558 -16 q 172 97 313 -15 q 32 416 32 210 q 171 736 32 622 q 561 850 310 850 q 864 800 738 850 l 846 564 l 836 564 q 738 737 800 686 q 585 788 676 788 q 381 690 447 788 q 315 422 315 592 q 379 153 315 253 q 561 46 443 50 q 708 75 658 46 q 790 169 763 106 q 842 347 817 231 l 851 347 l 888 125 q 558 -16 804 -17 z "},"d":{"ha":1029,"x_min":25,"x_max":997,"o":"m 865 724 q 931 669 865 724 q 996 416 996 614 q 865 109 996 218 q 499 0 735 0 l 26 0 l 26 14 l 43 14 q 98 36 75 14 q 121 89 121 58 l 121 749 q 96 799 118 779 q 42 819 74 819 l 25 819 l 25 833 l 499 833 q 865 724 735 833 m 393 771 l 393 64 l 472 64 q 647 157 583 64 q 711 417 711 250 q 600 729 711 642 q 472 771 546 771 l 393 771 z "},"e":{"ha":799,"x_min":29,"x_max":779,"o":"m 29 0 l 29 14 l 44 14 q 89 29 74 14 q 117 86 117 56 l 117 746 q 95 799 117 778 q 44 819 74 819 l 29 819 l 29 833 l 571 833 q 649 840 606 833 q 708 854 692 847 l 708 592 l 694 592 l 694 599 q 652 724 694 679 q 532 769 610 768 l 389 769 l 389 443 l 496 443 q 595 484 557 444 q 633 586 633 524 l 633 589 l 647 589 l 647 231 l 633 231 l 633 236 q 595 338 633 297 q 496 378 557 378 l 389 378 l 389 64 l 522 64 q 674 125 606 64 q 767 292 742 186 l 779 292 l 740 0 l 29 0 z "},"f":{"ha":753,"x_min":29,"x_max":708,"o":"m 708 589 l 694 589 l 694 597 q 619 747 694 706 q 529 769 582 768 l 389 769 l 389 443 l 494 443 q 595 484 557 444 q 633 586 633 524 l 633 589 l 647 589 l 647 231 l 633 231 l 633 236 q 595 338 633 297 q 494 378 557 378 l 389 378 l 389 86 q 425 24 390 43 q 463 14 442 14 l 476 14 l 476 0 l 29 0 l 29 14 l 44 14 q 95 35 74 14 q 117 86 117 56 l 117 746 q 95 799 117 778 q 44 819 74 819 l 29 819 l 29 833 l 571 833 q 649 840 606 833 q 708 854 692 847 l 708 589 z "},"g":{"ha":1004,"x_min":32,"x_max":999,"o":"m 756 31 q 694 7 756 31 q 492 -17 632 -17 q 250 35 353 -17 q 90 185 147 86 q 33 419 33 283 q 158 736 33 622 q 507 850 282 850 q 707 835 601 850 q 864 800 813 821 l 844 564 l 835 564 q 578 788 772 788 q 380 691 443 788 q 317 406 317 594 q 524 46 317 46 q 617 78 581 46 q 654 157 654 111 q 653 178 654 167 l 653 333 q 638 374 653 360 q 594 389 622 389 l 575 389 l 575 400 l 999 400 l 999 389 l 982 389 q 922 333 922 389 l 922 136 q 756 31 879 78 z "},"h":{"ha":1047,"x_min":28,"x_max":1019,"o":"m 931 747 l 931 86 q 967 24 931 43 q 1003 14 983 14 l 1018 14 l 1018 0 l 572 0 l 572 14 l 586 14 q 638 35 617 14 q 660 86 658 56 l 660 386 l 389 386 l 389 86 q 411 35 390 56 q 463 14 432 14 l 476 14 l 476 0 l 29 0 l 29 14 l 44 14 q 95 35 74 14 q 117 86 117 56 l 117 747 q 95 799 117 778 q 44 819 74 819 l 29 819 l 29 833 l 476 833 l 476 819 l 463 819 q 411 799 432 819 q 389 747 390 778 l 389 450 l 660 450 l 660 747 q 638 799 658 778 q 586 819 617 819 l 572 819 l 572 833 l 1019 833 l 1019 819 l 1004 819 q 952 799 974 819 q 931 747 931 779 z "},"i":{"ha":504,"x_min":29,"x_max":475,"o":"m 460 14 l 475 14 l 475 0 l 29 0 l 29 14 l 44 14 q 94 35 74 14 q 115 86 115 56 l 115 747 q 94 799 115 778 q 44 819 74 819 l 29 819 l 29 833 l 474 833 l 474 819 l 460 819 q 399 785 418 819 q 388 747 389 768 l 388 86 q 410 35 389 56 q 460 14 431 14 z "},"j":{"ha":501,"x_min":-18,"x_max":475,"o":"m 458 819 q 408 798 429 819 q 383 746 386 776 l 383 71 q 324 -110 383 -33 q 175 -221 265 -187 q 61 -243 110 -243 q -18 -239 13 -243 l -18 -226 q 92 -97 67 -186 q 111 75 111 -25 l 111 743 q 89 797 111 775 q 36 819 67 819 l 22 819 l 21 833 l 474 833 l 474 819 l 458 819 z "},"k":{"ha":979,"x_min":31,"x_max":1025,"o":"m 465 14 l 479 14 l 479 0 l 32 0 l 32 14 l 46 14 q 97 35 76 14 q 119 86 118 56 l 119 749 q 97 800 118 779 q 46 821 75 821 l 31 821 l 31 835 l 479 835 l 479 821 l 465 821 q 413 800 435 821 q 392 747 392 779 l 392 86 q 413 35 392 56 q 465 14 435 14 m 882 0 l 867 0 q 561 125 651 0 q 474 274 522 178 q 426 372 426 371 l 703 767 q 709 805 718 788 q 676 822 700 822 l 665 822 l 665 833 l 949 833 l 949 822 l 943 822 q 822 771 871 822 l 636 538 l 899 108 q 1025 11 957 14 l 1025 0 l 882 0 z "},"l":{"ha":774,"x_min":29,"x_max":781,"o":"m 740 0 l 29 0 l 29 14 l 44 14 q 95 35 74 14 q 117 86 117 56 l 117 747 q 95 799 117 778 q 44 819 74 819 l 29 819 l 29 833 l 478 833 l 478 819 l 463 819 q 396 776 414 819 q 389 747 389 763 l 389 64 l 522 64 q 673 125 606 64 q 767 292 740 186 l 781 292 l 740 0 z "},"m":{"ha":1186,"x_min":-26,"x_max":1214,"o":"m 763 0 l 763 14 l 782 14 q 818 31 807 14 q 828 67 829 49 l 782 378 l 590 110 q 554 42 569 81 q 539 -12 539 3 q 539 -31 539 -26 l 528 -31 l 215 358 l 178 67 q 185 39 176 53 q 224 14 199 14 l 243 14 l 243 0 l -26 0 l -26 14 l -8 14 q 51 33 26 14 q 81 86 76 51 l 189 850 l 200 850 l 614 329 l 985 850 l 997 850 l 1108 79 q 1140 31 1117 49 q 1193 14 1163 14 l 1213 14 l 1213 0 l 763 0 z "},"n":{"ha":1082,"x_min":17,"x_max":1068,"o":"m 1067 819 l 1043 819 q 989 800 1011 819 q 967 751 967 781 l 967 135 q 979 -1 967 44 l 983 -17 l 971 -17 l 388 474 l 388 83 q 410 34 389 54 q 464 14 432 14 l 486 14 l 486 0 l 17 0 l 17 14 l 39 14 q 93 34 71 14 q 115 83 115 54 l 115 704 q 103 836 115 788 l 99 851 l 111 851 l 693 360 l 693 750 q 672 799 693 779 q 618 819 650 819 l 594 819 l 594 833 l 1067 833 l 1067 819 z "},"o":{"ha":1082,"x_min":35,"x_max":1047,"o":"m 35 417 q 35 519 35 417 q 169 736 35 622 q 541 850 303 850 q 913 736 779 850 q 1047 417 1047 622 q 913 97 1047 211 q 541 -17 779 -17 q 169 97 303 -17 q 35 417 35 211 m 318 417 q 318 328 318 417 q 375 142 318 239 q 540 46 432 46 q 706 142 649 46 q 763 415 763 239 q 663 743 763 656 q 540 788 613 788 q 375 691 432 788 q 318 417 318 594 z "},"p":{"ha":843,"x_min":29,"x_max":824,"o":"m 426 392 l 426 403 q 511 479 476 410 q 539 606 539 536 q 475 751 539 708 q 406 771 446 771 l 389 771 l 389 86 q 410 34 390 54 q 461 14 429 14 l 475 14 l 475 0 l 31 0 l 31 14 l 46 14 q 96 35 75 14 q 117 86 117 56 l 117 749 q 94 799 115 779 q 44 819 74 819 l 29 819 l 29 833 l 496 833 q 774 738 694 833 q 822 588 822 678 q 802 481 822 533 q 740 393 782 428 q 585 332 668 332 q 426 392 501 332 z "},"q":{"ha":1056,"x_min":35,"x_max":1590,"o":"m 1581 -71 l 1589 -75 q 1589 -85 1589 -79 q 1504 -303 1589 -222 q 1282 -379 1422 -379 q 940 -272 1124 -379 q 747 -133 850 -221 q 611 -35 656 -54 q 529 -17 567 -17 l 525 -17 q 164 97 293 -17 q 35 417 35 211 q 165 736 35 622 q 527 850 294 850 q 890 736 760 850 q 1019 415 1019 622 q 896 103 1019 215 q 749 17 836 47 q 913 -20 846 3 q 1086 -82 979 -43 q 1581 -71 1400 -197 m 526 788 q 372 691 425 788 q 319 416 319 594 q 372 142 319 238 q 527 46 425 46 q 682 142 629 46 q 735 415 735 238 q 618 763 735 689 q 526 788 578 788 z "},"r":{"ha":942,"x_min":44,"x_max":1024,"o":"m 839 604 q 804 471 839 532 q 661 382 764 400 q 751 333 710 369 q 805 272 792 296 q 832 219 818 249 q 961 29 914 60 q 1024 14 986 14 l 1024 0 l 860 0 q 681 18 722 0 q 598 74 624 43 q 549 147 572 106 q 488 329 511 211 q 442 408 474 392 l 442 419 l 449 419 q 517 455 488 419 q 554 571 546 490 q 554 579 554 572 q 543 683 561 642 q 511 738 525 724 q 475 758 497 751 q 432 767 451 767 l 404 767 l 404 86 q 427 33 404 51 q 478 14 450 14 l 490 14 l 490 0 l 44 0 l 44 14 l 60 14 q 110 35 89 14 q 131 86 131 56 l 131 747 q 110 799 131 778 q 61 819 90 819 l 44 819 l 44 833 l 522 833 q 839 604 839 833 z "},"s":{"ha":763,"x_min":54,"x_max":715,"o":"m 714 281 q 604 51 714 128 q 335 -17 507 -17 q 163 6 232 -17 q 68 63 94 29 q 56 124 56 92 q 61 185 56 156 q 110 300 76 258 l 118 300 q 118 288 118 293 q 185 121 118 194 q 372 47 253 47 q 479 79 443 47 q 515 153 515 111 q 483 226 515 194 q 376 290 450 258 l 231 358 q 100 468 142 396 q 68 590 68 524 q 71 635 68 613 q 335 850 101 850 q 544 838 413 850 l 638 838 l 604 635 l 596 635 q 547 744 596 703 q 424 785 497 785 q 272 693 282 785 q 306 622 268 649 q 386 582 335 603 l 565 500 q 676 411 639 468 q 714 281 714 354 z "},"t":{"ha":851,"x_min":10,"x_max":842,"o":"m 842 594 l 828 594 l 828 601 q 753 749 829 708 q 664 769 717 769 l 561 769 l 561 86 q 583 35 561 56 q 635 14 604 14 l 649 14 l 649 0 l 203 0 l 203 14 l 217 14 q 267 35 246 14 q 289 86 289 56 l 289 769 l 188 769 q 35 672 68 768 q 24 601 24 640 l 24 594 l 10 594 l 10 856 q 71 842 28 849 q 149 835 114 835 l 703 835 q 785 842 739 835 q 842 856 831 849 l 842 594 z "},"u":{"ha":983,"x_min":26,"x_max":968,"o":"m 968 822 l 950 822 q 907 805 925 822 q 889 763 889 788 l 889 310 q 797 69 889 156 q 536 -17 706 -17 q 106 307 106 -17 l 106 763 q 68 818 106 803 q 44 822 57 822 l 26 822 l 26 833 l 457 833 l 457 822 l 438 822 q 395 806 413 822 q 378 763 378 789 l 378 310 q 471 81 378 143 q 581 50 517 50 q 726 114 675 50 q 779 294 778 178 l 779 763 q 760 806 778 789 q 718 822 743 822 l 700 822 l 700 833 l 968 833 l 968 822 z "},"v":{"ha":861,"x_min":-58,"x_max":921,"o":"m 921 819 l 910 819 q 807 756 842 819 l 526 169 q 454 -17 458 25 l 443 -17 l 53 757 q -49 819 17 819 l -58 819 l -58 833 l 429 833 l 429 821 l 418 821 q 378 805 392 821 q 365 775 365 789 q 371 747 365 761 l 532 390 l 693 747 q 700 776 700 763 q 688 806 700 790 q 647 821 675 821 l 636 821 l 636 833 l 921 833 l 921 819 z "},"w":{"ha":1182,"x_min":-46,"x_max":1228,"o":"m 1226 819 l 1217 819 q 1160 806 1188 819 q 1117 763 1132 792 l 913 121 q 894 31 894 67 q 894 -14 894 -4 l 883 -14 l 597 469 l 411 117 q 378 -14 378 51 l 367 -14 l 67 753 q 23 803 51 788 q -35 819 -6 819 l -44 819 l -44 833 l 413 833 l 413 819 l 400 819 q 364 805 376 819 q 351 778 351 790 q 354 754 351 765 l 482 465 l 683 851 l 693 851 l 932 451 l 1018 749 q 1021 775 1021 761 q 1009 804 1021 789 q 971 819 997 819 l 961 819 l 961 833 l 1226 833 l 1226 819 z "},"x":{"ha":925,"x_min":-33,"x_max":960,"o":"m 960 0 l 464 0 l 464 14 l 478 14 q 514 31 503 14 q 525 60 525 49 q 518 83 525 72 l 382 307 l 221 83 q 213 59 213 71 q 223 31 213 47 q 260 14 233 14 l 274 14 l 274 0 l -33 0 l -33 14 l -17 14 q 93 72 44 14 l 331 390 l 104 763 q 56 805 86 788 q -7 822 25 822 l -22 822 l -22 836 l 471 836 l 471 822 l 457 822 q 417 800 431 822 q 417 753 403 775 l 544 543 l 679 753 q 686 777 686 765 q 676 806 686 789 q 640 822 665 822 l 626 822 l 626 836 l 926 836 l 926 822 l 910 822 q 799 761 842 822 l 597 458 l 831 76 q 879 32 849 50 q 944 14 910 14 l 960 14 l 960 0 z "},"y":{"ha":879,"x_min":-67,"x_max":950,"o":"m 950 819 l 932 819 q 865 801 896 819 q 814 754 833 782 l 579 388 l 579 86 q 602 35 581 56 q 656 14 624 14 l 671 14 l 671 0 l 215 0 l 215 14 l 232 14 q 285 35 263 14 q 307 86 307 56 l 307 386 l 68 754 q 8 806 42 793 q -50 819 -26 819 l -67 819 l -67 833 l 419 833 l 419 819 l 406 819 q 368 802 379 819 q 357 772 357 785 q 364 749 357 760 l 536 457 l 704 749 q 711 772 711 760 q 699 801 711 783 q 663 819 688 819 l 647 819 l 647 833 l 950 833 l 950 819 z "},"z":{"ha":842,"x_min":35,"x_max":832,"o":"m 35 0 l 35 11 l 453 771 l 233 771 q 110 726 154 771 q 67 600 67 681 l 67 594 l 53 594 l 53 856 q 116 842 69 849 q 200 835 163 835 l 669 835 q 758 840 721 835 q 801 850 794 846 l 801 840 l 399 63 l 549 63 q 715 124 643 63 q 817 292 788 185 l 831 292 l 781 0 l 35 0 z "},"{":{"ha":565,"x_min":118,"x_max":539,"o":"m 429 153 l 421 1 q 431 -68 421 -47 q 511 -128 451 -112 l 508 -139 q 163 42 231 -139 q 144 148 144 92 q 160 281 144 204 q 176 378 176 357 q 174 406 176 399 q 118 436 164 432 l 118 450 q 178 472 167 451 q 181 491 181 478 q 174 536 181 504 q 156 625 168 568 q 144 733 144 682 q 167 836 144 783 q 358 994 218 951 q 535 1018 435 1018 l 536 1018 l 539 1007 q 449 942 468 989 q 429 832 429 896 l 429 744 q 407 561 429 617 q 374 501 389 514 q 351 481 360 488 q 325 467 342 474 q 298 457 308 460 q 267 449 288 454 q 238 439 247 443 q 358 386 331 413 q 408 313 397 347 q 429 153 429 239 z "},"|":{"ha":368,"x_min":139,"x_max":229,"o":"m 139 -250 l 139 972 l 229 972 l 229 -250 l 139 -250 z "},"}":{"ha":565,"x_min":28,"x_max":449,"o":"m 28 1007 q 31 1018 31 1018 q 331 929 233 1018 q 422 724 422 846 q 410 625 422 682 q 386 492 386 506 q 389 472 386 478 q 449 450 399 451 l 449 436 q 393 406 403 432 q 390 379 390 400 q 406 281 390 358 q 422 148 422 204 q 403 42 422 92 q 344 -50 385 -7 q 58 -139 258 -139 l 56 -128 q 135 -71 115 -112 q 146 1 146 -47 l 136 153 q 179 353 136 296 q 208 385 196 374 q 246 410 221 397 q 329 439 276 424 q 298 449 318 443 q 268 457 278 454 q 241 467 258 460 q 215 481 224 474 q 194 499 207 488 q 174 526 181 511 q 158 561 167 540 q 146 608 150 582 q 136 744 136 671 l 138 832 q 132 907 138 890 q 118 942 126 924 q 99 971 110 961 q 28 1007 68 996 z "},"~":{"ha":686,"x_min":36,"x_max":650,"o":"m 640 504 q 650 443 650 467 q 644 392 650 419 q 613 336 639 364 q 481 283 561 283 q 357 331 426 283 q 299 371 326 350 q 192 421 228 421 q 138 390 156 421 q 128 347 128 372 q 135 290 128 321 l 44 290 q 38 351 38 322 q 69 450 38 411 q 197 511 118 511 q 274 490 231 511 q 351 443 318 469 q 486 374 446 374 q 549 406 526 374 q 560 447 560 422 q 546 504 560 471 l 640 504 z "},"¡":{"ha":410,"x_min":63,"x_max":347,"o":"m 119 958 q 138 976 119 958 q 208 994 156 994 q 297 958 260 994 q 333 869 333 921 q 297 781 333 817 q 208 744 260 744 q 119 781 156 744 q 83 869 83 817 q 119 958 83 921 m 94 471 l 157 656 l 254 656 l 317 471 l 347 0 l 63 0 l 94 471 z "},"¢":{"ha":803,"x_min":21,"x_max":774,"o":"m 21 483 q 161 767 21 669 q 494 857 290 857 q 501 857 497 857 l 511 974 l 576 972 l 567 854 q 753 814 678 844 l 738 610 l 729 610 q 563 793 682 771 l 511 168 q 618 190 588 171 q 664 227 649 210 q 692 275 679 244 q 733 422 714 325 l 742 422 l 774 231 q 506 108 704 113 l 496 -12 l 432 -8 l 442 110 q 133 220 244 122 q 21 483 21 318 m 447 174 l 497 796 q 281 488 279 788 q 447 174 279 214 z "},"£":{"ha":861,"x_min":42,"x_max":856,"o":"m 793 33 q 650 -5 729 4 q 533 -14 571 -14 q 358 10 468 -14 q 221 33 247 33 q 180 33 194 33 q 115 15 165 32 q 56 -14 65 -3 l 42 -14 l 42 0 q 142 285 119 153 q 156 443 153 358 l 42 443 l 67 521 l 156 521 q 156 538 156 529 q 539 992 156 969 q 608 993 560 993 q 723 973 657 993 q 821 913 789 953 l 754 715 l 740 715 q 702 874 736 825 q 596 922 668 922 q 440 732 451 922 q 438 637 438 689 q 440 521 438 585 l 692 521 l 663 443 l 443 443 q 388 200 442 275 q 254 110 340 135 q 284 114 269 114 q 317 113 299 114 q 356 110 336 113 q 411 101 375 107 q 510 93 474 93 q 588 101 546 93 q 679 132 631 108 q 842 304 781 182 l 856 304 l 793 33 z "},"¤":{"ha":751,"x_min":69,"x_max":683,"o":"m 569 268 q 375 193 486 193 q 181 265 264 193 l 99 183 l 69 214 l 151 294 q 78 490 78 378 q 153 685 78 601 l 69 768 l 99 797 l 182 714 q 375 785 265 785 q 568 713 485 785 l 653 797 l 683 768 l 597 683 q 669 490 669 600 q 599 297 669 379 l 683 214 l 653 183 l 569 268 m 194 309 q 232 272 194 309 q 374 235 269 235 q 553 309 479 235 q 628 489 628 383 q 553 669 628 594 q 374 743 479 743 q 194 669 269 743 q 119 489 119 594 q 194 309 119 383 z "},"¥":{"ha":1013,"x_min":-64,"x_max":1076,"o":"m 1076 958 l 1057 958 q 977 935 1015 958 q 917 876 939 911 l 735 590 l 865 590 l 865 521 l 690 521 l 644 447 l 644 438 l 865 438 l 865 368 l 644 368 l 644 101 q 670 40 644 65 q 733 14 696 14 l 750 14 l 750 0 l 253 0 l 253 14 l 271 14 q 333 39 307 14 q 360 100 358 64 l 360 368 l 135 368 l 135 438 l 360 438 l 360 447 l 314 521 l 135 521 l 135 590 l 272 590 l 94 879 q -1 951 60 933 q -43 958 -22 958 l -62 958 l -62 972 l 474 972 l 474 958 l 457 958 q 410 931 426 958 q 400 901 400 915 q 408 872 400 886 l 599 529 l 796 872 q 804 900 804 886 q 794 929 804 914 q 747 958 776 958 l 731 958 l 731 972 l 1076 972 l 1076 958 z "},"¦":{"ha":368,"x_min":139,"x_max":229,"o":"m 139 486 l 139 972 l 229 972 l 229 486 l 139 486 m 139 -250 l 139 236 l 229 236 l 229 -250 l 139 -250 z "},"§":{"ha":744,"x_min":35,"x_max":711,"o":"m 460 994 q 640 942 576 994 q 678 878 678 908 q 658 821 678 849 q 593 776 631 776 q 535 802 569 776 q 478 850 500 828 q 388 910 432 897 q 372 911 382 911 q 343 898 361 911 q 325 865 325 885 q 335 823 325 844 q 363 778 346 801 q 406 727 381 754 q 452 678 431 700 q 499 632 474 656 q 651 418 601 528 q 711 174 711 286 q 621 -90 711 17 q 488 -185 569 -150 q 317 -221 407 -221 q 163 -196 228 -221 q 61 -90 61 -157 q 74 -44 61 -69 q 144 6 104 6 q 210 -21 171 6 q 274 -71 249 -47 q 374 -132 326 -119 q 390 -133 379 -133 q 419 -119 401 -133 q 438 -83 438 -104 q 410 -25 438 -62 q 305 88 383 13 q 201 189 226 164 q 89 340 129 260 q 36 554 36 443 q 190 894 36 757 q 460 994 301 994 m 201 810 q 165 650 165 731 q 206 521 165 597 q 268 434 228 476 q 347 352 308 392 q 410 287 386 313 q 468 217 433 261 q 519 138 503 172 q 551 7 551 71 q 549 -29 551 -11 q 581 107 581 36 q 447 367 581 217 q 388 431 428 388 q 328 496 347 474 q 281 553 308 518 q 242 610 253 588 q 206 720 210 678 q 201 784 201 763 q 201 810 201 806 z "},"¨":{"ha":833,"x_min":104,"x_max":675,"o":"m 280 954 q 265 939 280 954 q 208 924 250 924 q 135 954 165 924 q 106 1027 106 985 q 135 1099 106 1069 q 208 1129 165 1129 q 280 1099 250 1129 q 310 1027 310 1069 q 280 954 310 985 m 644 954 q 629 939 644 954 q 572 924 614 924 q 499 954 529 924 q 469 1027 469 985 q 499 1099 469 1069 q 572 1129 529 1129 q 644 1099 614 1129 q 674 1027 674 1069 q 644 954 674 985 z "},"©":{"ha":1178,"x_min":83,"x_max":1094,"o":"m 231 844 q 305 918 231 844 q 589 992 379 992 q 947 844 799 992 q 1094 486 1094 696 q 947 128 1094 276 q 589 -19 799 -19 q 231 128 379 -19 q 83 486 83 276 q 231 844 83 696 m 1022 486 q 895 792 1022 665 q 589 919 768 919 q 283 792 410 919 q 156 486 156 665 q 283 180 156 307 q 589 53 410 53 q 895 180 768 53 q 1022 486 1022 307 m 446 487 q 446 427 446 487 q 491 301 446 368 q 624 235 536 235 q 771 291 711 235 q 847 453 831 347 l 856 453 l 888 303 q 603 176 779 176 q 355 266 453 178 q 257 487 257 354 q 356 708 257 619 q 606 796 454 796 q 739 780 669 796 q 857 736 808 764 l 849 569 l 840 569 q 614 739 768 739 q 490 672 535 739 q 446 487 446 606 z "},"ª":{"ha":542,"x_min":-7,"x_max":549,"o":"m 549 524 l 264 524 l 264 529 l 271 529 q 294 539 285 529 q 299 564 303 549 l 276 610 l 138 610 l 117 568 q 118 540 108 551 q 143 529 128 529 l 150 529 l 150 524 l -7 524 l -7 529 l -1 529 q 56 561 35 529 l 215 882 q 257 986 254 969 l 263 986 l 488 561 q 543 529 510 529 l 549 529 l 549 524 m 154 646 l 258 646 l 207 753 l 154 646 z "},"«":{"ha":751,"x_min":56,"x_max":669,"o":"m 368 681 l 379 674 l 271 406 l 381 132 l 368 122 l 56 406 l 368 681 m 657 681 l 668 674 l 560 406 l 669 132 l 657 122 l 344 406 l 657 681 z "},"¬":{"ha":833,"x_min":56,"x_max":781,"o":"m 56 565 l 781 565 l 781 271 l 690 271 l 690 475 l 56 475 l 56 565 z "},"­":{"ha":528,"x_min":42,"x_max":486,"o":"m 42 406 l 56 461 l 472 461 l 486 406 l 472 349 l 56 349 l 42 406 z "},"®":{"ha":340,"x_min":14,"x_max":328,"o":"m 60 928 q 83 951 60 928 q 171 974 106 974 q 282 928 236 974 q 328 817 328 882 q 282 706 328 751 q 171 660 236 660 q 60 706 106 660 q 14 817 14 751 q 60 928 14 882 m 82 728 q 99 711 82 728 q 170 693 117 693 q 259 728 224 693 q 294 817 294 764 q 259 905 294 869 q 170 940 224 940 q 82 905 117 940 q 47 817 47 869 q 82 728 47 764 m 236 857 q 193 811 236 817 q 228 776 208 808 q 264 739 249 744 l 264 736 l 238 736 q 207 742 215 736 q 194 751 199 749 q 185 762 190 753 q 179 773 181 771 q 172 786 178 775 q 156 817 160 817 l 156 819 l 169 819 q 192 856 193 821 q 163 889 190 890 l 149 889 l 149 754 q 163 739 149 739 l 167 739 l 167 736 l 88 736 l 88 739 l 90 739 q 106 753 104 739 l 106 885 q 90 900 104 900 l 88 900 l 88 903 l 149 903 l 175 903 q 231 876 217 903 q 236 857 236 868 z "},"¯":{"ha":833,"x_min":208,"x_max":613,"o":"m 208 976 l 208 1094 l 611 1094 l 611 976 l 208 976 z "},"°":{"ha":329,"x_min":28,"x_max":303,"o":"m 68 883 q 88 902 68 883 q 165 922 108 922 q 261 883 221 922 q 301 786 301 843 q 261 689 301 729 q 165 649 221 649 q 68 689 108 649 q 28 786 28 729 q 68 883 28 843 m 204 826 q 196 834 204 826 q 165 842 188 842 q 125 826 142 842 q 108 786 108 810 q 125 747 108 763 q 165 731 142 731 q 204 747 188 731 q 221 786 221 763 q 204 826 221 810 z "},"±":{"ha":668,"x_min":56,"x_max":614,"o":"m 379 572 l 614 572 l 614 482 l 379 482 l 379 249 l 289 249 l 289 482 l 56 482 l 56 572 l 289 572 l 289 807 l 379 807 l 379 572 m 56 69 l 56 160 l 614 160 l 614 69 l 56 69 z "},"²":{"ha":582,"x_min":42,"x_max":542,"o":"m 217 954 q 118 776 118 954 l 110 776 l 42 936 q 268 999 117 999 q 474 926 410 999 q 506 847 506 892 q 484 762 506 801 q 428 692 463 722 q 294 603 363 633 l 424 603 q 533 689 494 603 l 540 689 l 483 428 l 53 428 l 53 435 q 102 501 69 458 q 152 569 135 544 q 196 631 169 593 q 237 694 222 668 q 267 753 251 721 q 294 862 294 813 q 272 933 294 911 q 217 954 250 954 z "},"³":{"ha":518,"x_min":28,"x_max":478,"o":"m 233 992 q 444 897 413 992 q 451 857 451 878 q 423 781 451 807 q 353 754 394 756 q 476 604 476 728 q 432 482 476 532 q 226 403 361 403 q 38 449 121 403 l 39 456 q 49 456 44 456 q 206 498 140 456 q 272 612 272 540 q 231 715 272 683 q 139 747 189 746 l 140 754 q 147 754 143 754 q 226 790 194 754 q 258 868 258 825 q 225 939 258 921 q 189 950 206 950 q 106 906 125 950 q 90 800 90 871 q 90 785 90 793 l 83 785 l 28 939 q 233 992 97 992 z "},"´":{"ha":833,"x_min":282,"x_max":617,"o":"m 293 1032 l 283 1042 q 374 1176 310 1103 q 497 1300 438 1249 q 617 1161 586 1263 q 456 1078 547 1115 q 293 1032 365 1040 z "},"¶":{"ha":750,"x_min":68,"x_max":738,"o":"m 600 204 q 574 70 600 128 q 506 -18 549 13 l 493 -7 q 529 118 528 51 q 531 201 531 139 l 531 903 l 415 903 l 415 0 q 356 -207 415 -126 q 268 -276 322 -253 l 258 -264 q 329 -159 315 -206 q 343 -65 343 -112 q 342 0 343 -18 l 342 463 q 147 532 224 463 q 69 717 69 601 q 148 902 69 832 q 342 972 226 972 l 594 972 q 604 972 594 972 q 617 972 614 972 q 628 973 619 972 q 643 976 638 974 q 658 980 649 978 q 674 987 667 982 q 690 997 682 992 q 726 1032 707 1008 l 736 1024 q 667 926 726 965 q 600 904 636 907 l 600 204 z "},"·":{"ha":347,"x_min":49,"x_max":299,"o":"m 262 405 q 243 386 262 405 q 174 368 225 368 q 85 405 122 368 q 49 493 49 442 q 85 581 49 544 q 174 618 122 618 q 262 581 225 618 q 299 493 299 544 q 262 405 299 442 z "},"¸":{"ha":833,"x_min":297,"x_max":561,"o":"m 394 -67 q 428 -60 414 -60 q 456 -60 442 -60 q 499 -67 471 -60 q 543 -96 526 -75 q 560 -133 560 -117 q 515 -235 560 -197 q 376 -285 458 -285 q 297 -272 339 -285 l 299 -258 q 397 -230 350 -258 q 443 -146 443 -201 q 421 -107 443 -124 q 367 -92 399 -92 q 308 -100 335 -92 l 301 -86 l 368 1 l 454 1 l 394 -67 z "},"¹":{"ha":406,"x_min":40,"x_max":365,"o":"m 364 436 l 364 428 l 47 428 l 47 436 l 63 436 q 92 448 81 436 q 104 476 104 460 l 104 878 q 94 919 104 901 q 47 938 85 938 l 42 938 l 42 944 q 172 959 86 946 q 300 993 257 972 l 307 993 l 307 476 q 319 448 307 460 q 349 436 332 436 l 364 436 z "},"º":{"ha":556,"x_min":28,"x_max":529,"o":"m 28 755 q 28 811 28 755 q 92 926 28 867 q 278 986 156 986 q 464 926 400 986 q 528 755 528 867 q 464 583 528 643 q 278 524 400 524 q 92 583 156 524 q 28 755 28 643 m 278 560 q 340 608 321 560 q 360 730 360 657 q 356 838 360 803 q 342 899 351 874 q 278 950 322 950 q 194 755 194 950 q 278 560 194 560 z "},"»":{"ha":751,"x_min":83,"x_max":697,"o":"m 96 122 l 83 132 l 193 406 l 85 674 l 96 681 l 408 406 l 96 122 m 385 122 l 372 132 l 482 406 l 374 674 l 385 681 l 697 406 l 385 122 z "},"¼":{"ha":1068,"x_min":26,"x_max":1028,"o":"m 829 1004 l 894 960 l 232 -28 l 165 15 l 829 1004 m 90 878 q 33 938 90 938 l 28 938 l 28 944 q 158 959 72 946 q 286 993 243 972 l 293 993 l 293 476 q 306 448 293 460 q 335 436 318 436 l 351 436 l 351 428 l 33 428 l 33 436 l 49 436 q 78 448 67 436 q 90 476 90 460 l 90 878 m 926 128 l 926 53 q 940 22 926 35 q 972 8 954 8 l 982 8 l 982 0 l 671 0 l 671 8 l 681 8 q 713 21 699 8 q 726 51 726 33 l 726 128 l 457 128 l 457 136 l 918 567 l 926 567 l 926 228 l 963 228 q 1019 267 1003 228 l 1028 267 l 999 128 l 926 128 m 726 229 l 726 321 l 622 229 l 726 229 z "},"½":{"ha":1181,"x_min":26,"x_max":1126,"o":"m 799 1004 l 864 960 l 201 -28 l 135 15 l 799 1004 m 33 938 l 28 938 l 28 944 q 158 959 72 946 q 286 993 243 972 l 293 993 l 293 476 q 306 448 293 460 q 335 436 318 436 l 350 436 l 350 428 l 33 428 l 33 436 l 49 436 q 78 448 67 436 q 90 476 90 460 l 90 878 q 33 938 90 938 m 801 528 q 701 349 703 528 l 694 349 l 626 508 q 853 572 701 572 q 1022 530 954 572 q 1090 415 1090 488 q 944 211 1090 307 q 879 175 911 190 l 1008 175 q 1118 261 1079 175 l 1125 261 l 1068 0 l 638 0 l 638 7 q 694 83 654 29 q 753 163 735 138 q 801 233 771 188 q 844 307 831 279 q 879 434 879 385 q 856 506 879 483 q 801 528 833 528 z "},"¾":{"ha":1165,"x_min":33,"x_max":1139,"o":"m 925 1004 l 990 960 l 328 -28 l 261 15 l 925 1004 m 226 992 q 286 992 226 992 q 402 957 347 992 q 457 865 457 922 q 428 781 457 807 q 360 754 400 756 q 483 604 483 728 q 439 482 483 532 q 232 403 367 403 q 44 449 128 403 l 46 456 q 56 456 50 456 q 213 498 147 456 q 279 612 279 540 q 238 715 279 683 q 146 747 196 746 l 147 754 q 153 754 150 754 q 233 790 201 754 q 264 868 264 825 q 232 939 264 921 q 196 950 211 950 q 111 906 132 950 q 97 800 97 871 q 97 785 97 793 l 89 785 l 35 939 q 226 992 104 992 m 1038 128 l 1038 53 q 1061 14 1038 28 q 1083 8 1071 8 l 1093 8 l 1093 0 l 782 0 l 782 8 l 792 8 q 823 21 810 8 q 838 51 836 33 l 838 128 l 568 128 l 568 136 l 1029 568 l 1038 568 l 1038 229 l 1074 229 q 1131 267 1114 229 l 1139 267 l 1110 128 l 1038 128 m 838 229 l 838 321 l 733 229 l 838 229 z "},"¿":{"ha":726,"x_min":42,"x_max":685,"o":"m 247 867 q 283 955 247 918 q 372 992 319 992 q 460 955 424 992 q 497 867 497 918 q 460 778 497 815 q 372 742 424 742 q 283 778 319 742 q 247 867 247 815 m 340 224 q 467 50 340 50 q 601 264 601 50 l 615 264 l 685 104 q 572 15 653 49 q 378 -19 490 -19 q 128 44 215 -19 q 42 226 42 108 q 87 364 42 307 q 246 504 132 421 q 326 586 318 557 q 317 665 338 624 l 329 674 q 454 582 419 650 q 469 531 469 553 q 467 490 469 510 q 450 445 465 471 q 417 400 435 419 q 381 358 399 381 q 340 224 340 308 z "},"À":{"ha":1000,"x_min":-56,"x_max":1057,"o":"m 522 1071 l 513 1061 q 349 1107 439 1069 q 189 1190 258 1144 q 307 1329 218 1292 q 431 1205 367 1278 q 522 1071 496 1132 m 1044 14 l 1056 14 l 1056 0 l 529 0 l 529 14 l 542 14 q 588 33 572 14 q 603 67 603 51 q 596 101 603 83 l 542 231 l 244 231 l 189 101 q 182 72 182 83 q 187 48 182 61 q 208 24 192 35 q 242 14 224 14 l 254 14 l 254 0 l -56 0 l -56 14 l -43 14 q 20 33 -11 14 q 72 89 51 51 l 396 799 q 475 1006 469 954 l 488 1006 l 928 90 q 1044 14 972 14 m 275 300 l 513 300 l 396 578 l 275 300 z "},"Á":{"ha":1000,"x_min":-57,"x_max":1057,"o":"m 461 1057 l 451 1067 q 542 1201 478 1128 q 667 1325 606 1274 q 785 1186 756 1288 q 625 1103 715 1140 q 461 1057 535 1065 m 1044 14 l 1056 14 l 1056 0 l 529 0 l 529 14 l 542 14 q 588 33 572 14 q 603 67 603 51 q 596 101 603 83 l 542 231 l 244 231 l 189 101 q 182 72 182 83 q 187 48 182 61 q 208 24 192 35 q 242 14 224 14 l 254 14 l 254 0 l -56 0 l -56 14 l -43 14 q 20 33 -11 14 q 72 89 51 51 l 396 799 q 475 1006 469 954 l 488 1006 l 928 90 q 1044 14 972 14 m 275 300 l 513 300 l 396 578 l 275 300 z "},"Â":{"ha":1000,"x_min":-57,"x_max":1057,"o":"m 475 1294 l 490 1294 l 739 1050 l 729 1039 l 482 1129 l 250 1039 l 240 1050 l 475 1294 m 1044 14 l 1056 14 l 1056 0 l 529 0 l 529 14 l 542 14 q 588 33 572 14 q 603 67 603 51 q 596 101 603 83 l 542 231 l 244 231 l 189 101 q 182 72 182 83 q 187 48 182 61 q 208 24 192 35 q 242 14 224 14 l 254 14 l 254 0 l -56 0 l -56 14 l -43 14 q 20 33 -11 14 q 72 89 51 51 l 396 799 q 475 1006 469 954 l 488 1006 l 928 90 q 1044 14 972 14 m 275 300 l 513 300 l 396 578 l 275 300 z "},"Ã":{"ha":1000,"x_min":-57,"x_max":1057,"o":"m 756 1276 l 772 1276 q 781 1226 781 1253 q 769 1172 781 1199 q 685 1078 739 1103 q 608 1061 651 1061 q 496 1096 564 1061 q 402 1134 426 1131 q 357 1138 378 1138 q 303 1115 336 1138 q 258 1065 269 1093 l 242 1065 q 236 1106 236 1085 q 299 1249 236 1189 q 394 1290 342 1290 q 521 1253 446 1290 q 658 1215 596 1215 q 713 1235 679 1215 q 756 1276 747 1256 m 928 90 q 1044 14 972 14 l 1056 14 l 1056 0 l 529 0 l 529 14 l 542 14 q 588 33 572 14 q 603 67 603 51 q 596 101 603 83 l 542 231 l 244 231 l 189 101 q 181 67 181 83 q 196 33 181 51 q 242 14 211 14 l 254 14 l 254 0 l -56 0 l -56 14 l -43 14 q 20 33 -11 14 q 72 89 51 51 l 396 799 q 475 1006 469 954 l 488 1006 l 928 90 m 275 300 l 513 300 l 396 578 l 275 300 z "},"Ä":{"ha":1000,"x_min":-57,"x_max":1057,"o":"m 369 1079 q 354 1064 369 1079 q 297 1049 339 1049 q 224 1079 254 1049 q 194 1152 194 1110 q 224 1224 194 1194 q 297 1254 254 1254 q 369 1224 339 1254 q 400 1152 400 1194 q 369 1079 400 1110 m 734 1079 q 719 1064 734 1079 q 662 1049 704 1049 q 590 1079 619 1049 q 560 1152 560 1110 q 590 1224 560 1194 q 662 1254 619 1254 q 734 1224 704 1254 q 764 1152 764 1194 q 734 1079 764 1110 m 1044 14 l 1056 14 l 1056 0 l 529 0 l 529 14 l 542 14 q 588 33 572 14 q 603 67 603 51 q 596 101 603 83 l 542 231 l 244 231 l 189 101 q 182 72 182 83 q 187 48 182 61 q 208 24 192 35 q 242 14 224 14 l 254 14 l 254 0 l -56 0 l -56 14 l -43 14 q 20 33 -11 14 q 72 89 51 51 l 396 799 q 475 1006 469 954 l 488 1006 l 928 90 q 1044 14 972 14 m 275 300 l 513 300 l 396 578 l 275 300 z "},"Å":{"ha":1000,"x_min":-57,"x_max":1057,"o":"m 1044 14 l 1056 14 l 1056 0 l 529 0 l 529 14 l 542 14 q 587 33 572 14 q 601 67 601 51 q 596 100 601 83 l 539 231 l 247 231 l 188 99 q 182 67 182 82 q 197 33 182 51 q 242 14 211 14 l 254 14 l 254 0 l -56 0 l -56 14 l -43 14 q 25 35 -8 14 q 79 101 58 57 l 396 785 q 469 964 451 900 q 381 996 417 967 q 346 1069 346 1025 q 385 1142 346 1113 q 483 1171 425 1171 q 580 1142 540 1171 q 619 1071 619 1114 q 585 999 619 1028 q 501 964 551 969 l 922 101 q 1044 14 965 14 m 483 1140 q 482 1140 482 1140 q 481 1140 482 1140 q 440 1119 457 1140 q 424 1077 424 1099 q 426 1044 424 1056 q 434 1024 429 1033 q 447 1008 439 1015 q 485 994 461 994 q 526 1015 508 994 q 543 1067 543 1036 q 526 1119 543 1099 q 483 1140 508 1140 m 278 300 l 510 300 l 396 567 l 278 300 z "},"Æ":{"ha":1413,"x_min":-46,"x_max":1392,"o":"m 578 14 q 626 33 606 14 q 647 81 646 53 l 647 440 l 429 440 l 219 101 q 219 36 196 61 q 272 14 242 14 l 285 14 l 285 0 l -46 0 l -46 14 l -33 14 q 86 99 26 14 l 629 890 q 640 919 640 908 q 600 958 640 958 l 593 958 l 593 972 l 1140 972 q 1247 982 1201 972 q 1306 997 1293 992 l 1306 711 l 1292 711 l 1292 722 q 1213 878 1293 833 q 1118 901 1174 900 l 932 901 l 932 510 l 1074 510 q 1178 555 1138 513 q 1219 661 1219 597 l 1219 668 l 1233 668 l 1233 282 l 1219 282 l 1219 289 q 1179 395 1219 353 q 1076 440 1139 438 l 932 440 l 932 71 l 1089 71 q 1267 138 1190 71 q 1376 322 1344 204 l 1390 322 l 1338 0 l 564 0 l 565 14 l 578 14 m 647 510 l 647 790 l 472 510 l 647 510 z "},"Ç":{"ha":1101,"x_min":47,"x_max":1047,"o":"m 656 -19 l 639 -19 l 588 -79 q 621 -72 607 -72 q 649 -72 635 -72 q 691 -80 663 -72 q 736 -108 719 -87 q 753 -146 753 -129 q 708 -247 753 -210 q 569 -296 650 -296 q 490 -285 531 -296 l 492 -271 q 589 -242 542 -271 q 636 -158 636 -214 q 613 -119 636 -136 q 500 -112 571 -90 l 493 -99 l 558 -15 q 183 139 318 8 q 49 488 49 269 q 121 758 49 644 q 330 932 193 872 q 665 992 467 992 q 1014 928 864 992 l 1000 663 l 988 663 q 871 863 947 803 q 681 922 794 922 q 440 808 526 922 q 354 491 354 694 q 434 171 354 288 q 656 50 514 54 q 893 128 819 50 q 1001 406 963 200 l 1013 406 l 1046 153 q 656 -19 943 -19 z "},"È":{"ha":926,"x_min":42,"x_max":907,"o":"m 546 1071 l 536 1061 q 374 1107 463 1069 q 217 1190 285 1144 q 340 1329 250 1292 q 459 1205 397 1278 q 546 1071 521 1132 m 60 14 q 122 40 96 14 q 149 101 147 65 l 149 871 q 104 947 147 922 q 60 958 83 958 l 42 958 l 42 972 l 657 972 q 763 982 717 972 q 822 997 810 992 l 822 711 l 808 711 l 808 722 q 728 878 808 833 q 635 901 689 900 l 433 901 l 433 514 l 585 514 q 693 558 651 515 q 735 667 735 600 l 735 672 l 749 672 l 749 286 l 735 286 l 735 293 q 693 401 735 358 q 586 444 651 443 l 433 444 l 433 71 l 604 71 q 783 138 706 71 q 893 322 861 204 l 907 322 l 854 0 l 42 0 l 42 14 l 60 14 z "},"É":{"ha":926,"x_min":42,"x_max":907,"o":"m 447 1057 l 438 1067 q 528 1201 464 1128 q 653 1325 593 1274 q 771 1186 742 1288 q 611 1103 701 1140 q 447 1057 521 1065 m 60 14 q 122 40 96 14 q 149 101 147 65 l 149 871 q 122 933 147 907 q 60 958 96 958 l 42 958 l 42 972 l 657 972 q 751 981 700 972 q 822 997 801 989 l 822 711 l 808 711 l 808 722 q 728 878 808 833 q 635 901 689 900 l 433 901 l 433 514 l 585 514 q 693 558 651 515 q 735 667 735 600 l 735 672 l 749 672 l 749 286 l 735 286 l 735 293 q 693 401 735 358 q 586 444 651 443 l 433 444 l 433 71 l 604 71 q 783 138 706 71 q 893 322 861 204 l 907 322 l 854 0 l 42 0 l 42 14 l 60 14 z "},"Ê":{"ha":926,"x_min":42,"x_max":907,"o":"m 461 1294 l 478 1294 l 725 1050 l 715 1039 l 468 1129 l 236 1039 l 226 1050 l 461 1294 m 60 14 q 122 40 96 14 q 149 101 147 65 l 149 871 q 122 933 147 907 q 60 958 96 958 l 42 958 l 42 972 l 657 972 q 751 981 700 972 q 822 997 801 989 l 822 711 l 808 711 l 808 722 q 728 878 808 833 q 635 901 689 900 l 433 901 l 433 514 l 585 514 q 693 558 651 515 q 735 667 735 600 l 735 672 l 749 672 l 749 286 l 735 286 l 735 293 q 693 401 735 358 q 586 444 651 443 l 433 444 l 433 71 l 604 71 q 783 138 706 71 q 893 322 861 204 l 907 322 l 854 0 l 42 0 l 42 14 l 60 14 z "},"Ë":{"ha":926,"x_min":42,"x_max":907,"o":"m 356 1079 q 341 1064 356 1079 q 284 1049 326 1049 q 212 1079 242 1049 q 182 1152 182 1110 q 212 1224 182 1194 q 284 1254 242 1254 q 356 1224 326 1254 q 386 1152 386 1194 q 356 1079 386 1110 m 720 1079 q 705 1064 720 1079 q 648 1049 690 1049 q 576 1079 606 1049 q 546 1152 546 1110 q 576 1224 546 1194 q 648 1254 606 1254 q 720 1224 690 1254 q 750 1152 750 1194 q 720 1079 750 1110 m 60 14 q 122 40 96 14 q 149 101 147 65 l 149 871 q 122 933 147 907 q 60 958 96 958 l 42 958 l 42 972 l 657 972 q 763 982 717 972 q 822 997 810 992 l 822 711 l 808 711 l 808 722 q 728 878 808 833 q 635 901 689 900 l 433 901 l 433 514 l 585 514 q 693 558 651 515 q 735 667 735 600 l 735 672 l 749 672 l 749 286 l 735 286 l 735 293 q 693 401 735 358 q 586 444 651 443 l 433 444 l 433 71 l 604 71 q 783 138 706 71 q 893 322 861 204 l 907 322 l 854 0 l 42 0 l 42 14 l 60 14 z "},"Ì":{"ha":581,"x_min":7,"x_max":540,"o":"m 340 1071 l 331 1061 q 167 1107 257 1069 q 7 1190 76 1144 q 125 1329 36 1292 q 250 1205 186 1278 q 340 1071 314 1132 m 60 14 q 122 40 96 14 q 149 101 147 65 l 149 872 q 122 933 147 908 q 60 958 96 958 l 42 958 l 42 972 l 540 972 l 540 958 l 522 958 q 460 933 486 958 q 433 872 435 908 l 433 101 q 460 40 433 65 q 522 14 486 14 l 540 14 l 540 0 l 42 0 l 42 14 l 60 14 z "},"Í":{"ha":581,"x_min":42,"x_max":590,"o":"m 265 1057 l 256 1067 q 429 1286 296 1161 q 471 1325 451 1307 q 589 1186 560 1288 q 429 1103 519 1140 q 265 1057 339 1065 m 60 14 q 122 40 96 14 q 149 101 147 65 l 149 872 q 122 933 147 908 q 60 958 96 958 l 42 958 l 42 972 l 540 972 l 540 958 l 522 958 q 460 933 486 958 q 433 872 435 908 l 433 101 q 460 40 433 65 q 522 14 486 14 l 540 14 l 540 0 l 42 0 l 42 14 l 60 14 z "},"Î":{"ha":581,"x_min":40,"x_max":544,"o":"m 279 1294 l 296 1294 l 543 1050 l 533 1039 l 286 1129 l 54 1039 l 44 1050 l 279 1294 m 60 14 q 122 40 96 14 q 149 101 147 65 l 149 872 q 122 933 147 908 q 60 958 96 958 l 42 958 l 42 972 l 540 972 l 540 958 l 522 958 q 460 933 486 958 q 433 872 435 908 l 433 101 q 460 40 433 65 q 522 14 486 14 l 540 14 l 540 0 l 42 0 l 42 14 l 60 14 z "},"Ï":{"ha":581,"x_min":-1,"x_max":569,"o":"m 174 1079 q 159 1064 174 1079 q 102 1049 144 1049 q 30 1079 60 1049 q 0 1152 0 1110 q 30 1224 0 1194 q 102 1254 60 1254 q 174 1224 144 1254 q 204 1152 204 1194 q 174 1079 204 1110 m 540 1079 q 525 1064 540 1079 q 467 1049 510 1049 q 394 1079 425 1049 q 364 1152 364 1110 q 394 1224 364 1194 q 467 1254 425 1254 q 540 1224 510 1254 q 569 1152 569 1194 q 540 1079 569 1110 m 60 14 q 122 40 96 14 q 149 101 147 65 l 149 872 q 122 933 147 908 q 60 958 96 958 l 42 958 l 42 972 l 540 972 l 540 958 l 522 958 q 460 933 486 958 q 433 872 435 908 l 433 101 q 460 40 433 65 q 522 14 486 14 l 540 14 l 540 0 l 42 0 l 42 14 l 60 14 z "},"Ð":{"ha":1169,"x_min":40,"x_max":1122,"o":"m 976 844 q 1049 780 976 844 q 1122 486 1122 715 q 976 128 1122 257 q 568 0 829 0 l 42 0 l 42 14 l 60 14 q 122 40 96 14 q 149 101 147 65 l 149 451 l 42 451 l 42 521 l 149 521 l 149 879 q 122 935 149 913 q 60 958 94 958 l 43 958 l 42 972 l 568 972 q 976 844 829 972 m 433 451 l 433 69 l 540 69 q 747 180 671 69 q 824 486 824 290 q 747 792 824 682 q 540 903 671 903 l 433 903 l 433 521 l 583 521 l 583 451 l 433 451 z "},"Ñ":{"ha":1224,"x_min":26,"x_max":1197,"o":"m 843 1276 l 860 1276 q 868 1226 868 1253 q 857 1172 868 1199 q 772 1078 826 1103 q 695 1061 739 1061 q 583 1096 651 1061 q 490 1134 514 1131 q 444 1138 465 1138 q 390 1115 424 1138 q 346 1065 357 1093 l 329 1065 q 324 1106 324 1085 q 386 1249 324 1189 q 481 1290 429 1290 q 608 1253 533 1290 q 746 1215 683 1215 q 801 1235 767 1215 q 843 1276 835 1256 m 1171 958 q 1111 934 1136 958 q 1085 875 1086 910 l 1085 158 q 1099 0 1085 56 l 1103 -19 l 1090 -19 l 425 572 l 425 99 q 468 25 425 49 q 510 14 488 14 l 536 14 l 536 0 l 28 0 l 28 14 l 54 14 q 114 38 89 14 q 139 99 139 63 l 139 819 q 125 974 139 917 l 121 993 l 135 993 l 800 401 l 800 874 q 774 934 799 910 q 714 958 749 958 l 688 958 l 688 972 l 1196 972 l 1196 958 l 1171 958 z "},"Ò":{"ha":1257,"x_min":47,"x_max":1203,"o":"m 663 1090 l 653 1081 q 429 1153 553 1093 q 329 1210 375 1179 q 449 1349 360 1311 q 589 1203 533 1275 q 663 1090 644 1132 m 625 992 q 934 932 804 992 q 1133 758 1064 872 q 1203 486 1203 643 q 1049 115 1203 249 q 626 -19 896 -19 q 202 115 356 -19 q 49 486 49 249 q 202 858 49 724 q 625 992 356 992 m 625 50 q 831 165 758 50 q 903 486 903 279 q 776 871 903 765 q 625 922 714 922 q 420 808 492 922 q 349 486 349 693 q 475 101 349 207 q 625 50 538 50 z "},"Ó":{"ha":1257,"x_min":47,"x_max":1203,"o":"m 601 1076 l 592 1086 q 683 1220 618 1147 q 807 1344 747 1293 q 925 1206 896 1307 q 765 1122 856 1160 q 601 1076 675 1085 m 625 992 q 934 932 804 992 q 1133 758 1064 872 q 1203 486 1203 643 q 1049 115 1203 249 q 626 -19 896 -19 q 202 115 356 -19 q 49 486 49 249 q 202 858 49 724 q 625 992 356 992 m 427 165 q 463 108 427 165 q 626 50 499 50 q 824 165 753 50 q 896 486 896 281 q 824 807 896 692 q 626 922 753 922 q 427 807 499 922 q 356 486 356 692 q 427 165 356 281 z "},"Ô":{"ha":1257,"x_min":47,"x_max":1203,"o":"m 615 1314 l 632 1314 l 881 1069 l 869 1058 l 624 1149 l 390 1058 l 381 1069 l 615 1314 m 625 992 q 934 932 804 992 q 1133 758 1064 872 q 1203 486 1203 643 q 1049 115 1203 249 q 625 -19 894 -19 q 202 115 356 -19 q 49 486 49 249 q 202 858 49 724 q 625 992 356 992 m 427 165 q 463 108 427 165 q 626 50 499 50 q 824 165 753 50 q 896 486 896 281 q 824 807 896 692 q 626 922 753 922 q 427 807 499 922 q 356 486 356 692 q 427 165 356 281 z "},"Õ":{"ha":1257,"x_min":47,"x_max":1203,"o":"m 896 1296 l 914 1296 q 922 1245 922 1272 q 910 1192 922 1218 q 825 1097 881 1122 q 753 1081 792 1081 q 678 1096 715 1081 q 603 1131 642 1111 q 541 1153 564 1150 q 498 1157 518 1157 q 444 1135 478 1157 q 400 1085 411 1113 l 382 1085 q 378 1125 378 1104 q 439 1268 378 1208 q 534 1310 482 1310 q 662 1272 586 1310 q 800 1235 738 1235 q 853 1255 819 1235 q 896 1296 888 1275 m 202 858 q 279 925 202 858 q 625 992 356 992 q 1049 858 894 992 q 1203 486 1203 724 q 1049 115 1203 249 q 625 -19 894 -19 q 202 115 356 -19 q 49 486 49 249 q 202 858 49 724 m 427 165 q 463 108 427 165 q 626 50 499 50 q 824 165 753 50 q 896 486 896 281 q 824 807 896 692 q 626 922 753 922 q 427 807 499 922 q 356 486 356 692 q 427 165 356 281 z "},"Ö":{"ha":1257,"x_min":47,"x_max":1203,"o":"m 510 1099 q 495 1083 510 1099 q 438 1068 481 1068 q 366 1099 396 1068 q 336 1172 336 1129 q 366 1244 336 1214 q 438 1274 396 1274 q 510 1244 481 1274 q 540 1172 540 1214 q 510 1099 540 1129 m 876 1099 q 861 1083 876 1099 q 803 1068 846 1068 q 731 1099 761 1068 q 700 1172 700 1129 q 731 1244 700 1214 q 803 1274 761 1274 q 876 1244 846 1274 q 906 1172 906 1214 q 876 1099 906 1129 m 625 992 q 934 932 804 992 q 1133 758 1064 872 q 1203 486 1203 643 q 1049 115 1203 249 q 625 -19 894 -19 q 202 115 356 -19 q 49 486 49 249 q 202 858 49 724 q 625 992 356 992 m 427 165 q 463 108 427 165 q 626 50 499 50 q 824 165 753 50 q 896 486 896 281 q 824 807 896 692 q 626 922 753 922 q 427 807 499 922 q 356 486 356 692 q 427 165 356 281 z "},"×":{"ha":569,"x_min":56,"x_max":515,"o":"m 514 596 l 349 431 l 514 265 l 450 201 l 285 367 l 119 201 l 56 265 l 221 431 l 56 596 l 119 660 l 285 494 l 450 660 l 514 596 z "},"Ø":{"ha":1257,"x_min":49,"x_max":1203,"o":"m 1203 486 q 1049 115 1203 249 q 625 -19 894 -19 q 288 56 426 -19 l 213 -32 l 151 18 l 221 99 q 49 478 49 233 q 202 858 49 724 q 625 992 356 992 q 936 931 806 992 l 1003 1008 l 1064 961 l 1004 892 q 1203 486 1203 758 m 831 808 q 625 922 758 922 q 420 808 492 922 q 349 486 349 693 q 374 276 349 367 l 831 808 m 404 192 q 617 50 476 50 q 831 165 758 50 q 903 486 903 279 q 867 732 903 631 l 404 192 z "},"Ù":{"ha":1174,"x_min":42,"x_max":1147,"o":"m 708 1071 l 699 1061 q 535 1107 625 1069 q 375 1190 444 1144 q 493 1329 404 1292 q 617 1205 553 1278 q 708 1071 682 1132 m 833 972 l 1146 972 l 1146 958 l 1124 958 q 1073 940 1094 958 q 1050 893 1051 921 l 1050 357 q 941 81 1050 181 q 633 -19 832 -19 q 261 78 385 -19 q 138 356 138 175 l 138 889 q 101 950 138 931 q 64 958 85 958 l 42 958 l 42 972 l 518 972 l 518 958 l 496 958 q 444 940 465 958 q 422 892 424 921 l 422 361 q 489 133 422 215 q 675 51 556 51 q 862 128 794 51 q 929 343 929 206 l 929 892 q 907 940 928 921 q 856 958 886 958 l 833 958 l 833 972 z "},"Ú":{"ha":1174,"x_min":42,"x_max":1147,"o":"m 647 1057 l 638 1067 q 728 1201 664 1128 q 853 1325 793 1274 q 971 1186 942 1288 q 811 1103 901 1140 q 647 1057 721 1065 m 833 972 l 1146 972 l 1146 958 l 1124 958 q 1073 940 1094 958 q 1050 893 1051 921 l 1050 357 q 941 81 1050 181 q 633 -19 832 -19 q 261 78 385 -19 q 138 356 138 175 l 138 889 q 101 950 138 931 q 64 958 85 958 l 42 958 l 42 972 l 518 972 l 518 958 l 496 958 q 444 940 465 958 q 422 892 424 921 l 422 361 q 489 133 422 215 q 675 51 556 51 q 862 128 794 51 q 929 343 929 206 l 929 892 q 885 953 928 938 q 856 958 871 958 l 833 958 l 833 972 z "},"Û":{"ha":1174,"x_min":42,"x_max":1147,"o":"m 661 1294 l 678 1294 l 925 1050 l 915 1039 l 668 1129 l 436 1039 l 426 1050 l 661 1294 m 833 972 l 1146 972 l 1146 958 l 1124 958 q 1073 940 1094 958 q 1050 893 1051 921 l 1050 357 q 941 81 1050 181 q 633 -19 832 -19 q 261 78 385 -19 q 138 356 138 175 l 138 889 q 101 950 138 931 q 64 958 85 958 l 42 958 l 42 972 l 518 972 l 518 958 l 496 958 q 444 940 465 958 q 422 892 424 921 l 422 361 q 489 133 422 215 q 675 51 556 51 q 862 128 794 51 q 929 343 929 206 l 929 892 q 907 940 928 921 q 856 958 886 958 l 833 958 l 833 972 z "},"Ü":{"ha":1174,"x_min":40,"x_max":1147,"o":"m 556 1079 q 541 1064 556 1079 q 484 1049 526 1049 q 411 1079 442 1049 q 381 1152 381 1110 q 411 1224 381 1194 q 484 1254 442 1254 q 556 1224 526 1254 q 586 1152 586 1194 q 556 1079 586 1110 m 920 1079 q 905 1064 920 1079 q 848 1049 890 1049 q 776 1079 806 1049 q 746 1152 746 1110 q 776 1224 746 1194 q 848 1254 806 1254 q 920 1224 890 1254 q 950 1152 950 1194 q 920 1079 950 1110 m 833 972 l 1146 972 l 1146 958 l 1124 958 q 1073 940 1094 958 q 1050 893 1051 921 l 1050 357 q 941 81 1050 181 q 633 -19 832 -19 q 261 78 385 -19 q 138 356 138 175 l 138 889 q 101 950 138 931 q 64 958 85 958 l 42 958 l 42 972 l 518 972 l 518 958 l 496 958 q 444 940 465 958 q 422 892 424 921 l 422 361 q 489 133 422 215 q 675 51 556 51 q 862 128 794 51 q 929 343 929 206 l 929 892 q 907 940 928 921 q 856 958 886 958 l 833 958 l 833 972 z "},"Ý":{"ha":1013,"x_min":-62,"x_max":1076,"o":"m 581 1057 l 571 1067 q 662 1201 597 1128 q 786 1325 726 1274 q 904 1186 875 1288 q 744 1103 835 1140 q 581 1057 654 1065 m 1076 958 l 1057 958 q 977 935 1015 958 q 917 876 939 911 l 644 447 l 644 101 q 670 40 644 65 q 733 14 696 14 l 750 14 l 750 0 l 253 0 l 253 14 l 271 14 q 333 39 307 14 q 360 100 358 64 l 360 447 l 94 879 q 35 935 74 913 q -43 958 -3 958 l -62 958 l -62 972 l 474 972 l 474 958 l 457 958 q 410 931 426 958 q 401 901 401 915 q 408 872 401 886 l 599 529 l 796 872 q 804 901 804 886 q 794 929 804 915 q 747 958 776 958 l 731 958 l 731 972 l 1076 972 l 1076 958 z "},"Þ":{"ha":982,"x_min":58,"x_max":963,"o":"m 963 490 q 937 367 963 426 q 863 267 911 307 q 676 196 775 196 q 488 260 576 196 l 488 274 q 563 301 538 282 q 604 335 589 319 q 651 422 639 372 q 663 493 663 472 q 615 654 663 603 q 489 706 568 706 l 451 706 l 451 101 q 496 25 451 50 q 540 14 515 14 l 557 14 l 557 0 l 60 0 l 60 14 l 76 14 q 140 40 114 14 q 167 101 165 65 l 167 872 q 140 933 165 908 q 78 958 114 958 l 60 958 l 60 972 l 557 972 l 557 958 l 540 958 q 478 933 504 958 q 451 872 451 908 l 451 775 l 578 775 q 903 665 808 775 q 963 490 963 596 z "},"ß":{"ha":1525,"x_min":54,"x_max":1478,"o":"m 714 281 q 604 51 714 128 q 335 -17 507 -17 q 163 6 232 -17 q 68 63 94 29 q 56 124 56 92 q 61 185 56 156 q 110 300 76 258 l 118 300 q 118 288 118 293 q 185 121 118 194 q 372 47 253 47 q 479 79 443 47 q 515 153 515 111 q 483 226 515 194 q 376 290 450 258 l 231 358 q 100 468 142 396 q 68 590 68 524 q 71 635 68 613 q 335 850 101 850 q 544 838 413 850 l 638 838 l 604 635 l 596 635 q 547 744 596 703 q 424 785 497 785 q 272 693 282 785 q 306 622 268 649 q 386 582 335 603 l 565 500 q 676 411 639 468 q 714 281 714 354 m 1476 281 q 1367 51 1476 128 q 1097 -17 1269 -17 q 926 6 994 -17 q 831 63 857 29 q 818 124 818 92 q 824 185 818 156 q 872 300 839 258 l 881 300 q 881 288 881 293 q 947 121 881 194 q 1135 47 1015 47 q 1242 79 1206 47 q 1278 153 1278 111 q 1245 226 1278 194 q 1139 290 1213 258 l 993 358 q 863 468 904 396 q 831 590 831 524 q 833 635 831 613 q 1097 850 864 850 q 1307 838 1175 850 l 1400 838 l 1367 635 l 1358 635 q 1309 744 1358 703 q 1178 785 1260 785 q 1056 742 1092 785 q 1035 696 1038 721 q 1040 653 1032 671 q 1068 622 1047 636 q 1149 582 1097 603 l 1328 500 q 1439 411 1401 468 q 1476 281 1476 354 z "},"à":{"ha":878,"x_min":-58,"x_max":939,"o":"m 460 932 l 450 922 q 287 968 378 931 q 128 1051 196 1006 q 246 1190 157 1153 q 370 1066 306 1139 q 460 932 435 993 m 928 14 l 939 14 l 939 0 l 451 0 l 451 14 l 461 14 q 502 28 489 14 q 515 56 515 43 q 508 85 515 69 l 468 176 l 211 176 l 169 81 q 164 56 164 68 q 177 28 164 43 q 218 14 190 14 l 228 14 l 228 0 l -58 0 l -58 14 l -47 14 q 12 31 -18 14 q 58 82 42 47 l 344 699 q 417 883 413 847 l 428 883 l 819 85 q 928 14 856 14 m 238 239 l 440 239 l 339 472 l 238 239 z "},"á":{"ha":878,"x_min":-58,"x_max":939,"o":"m 400 918 l 390 928 q 480 1062 415 989 q 604 1186 544 1135 q 722 1047 693 1149 q 563 964 653 1001 q 400 918 472 926 m 928 14 l 939 14 l 939 0 l 450 0 l 450 14 l 461 14 q 502 28 489 14 q 515 56 515 43 q 508 85 515 69 l 468 176 l 211 176 l 169 81 q 164 56 164 68 q 177 28 164 43 q 218 14 190 14 l 228 14 l 228 0 l -58 0 l -58 14 l -47 14 q 12 31 -18 14 q 58 82 42 47 l 344 699 q 417 883 413 847 l 428 883 l 819 85 q 928 14 856 14 m 238 239 l 440 239 l 339 472 l 238 239 z "},"â":{"ha":878,"x_min":-58,"x_max":939,"o":"m 413 1156 l 429 1156 l 678 911 l 667 900 l 421 990 l 189 900 l 178 911 l 413 1156 m 928 14 l 939 14 l 939 0 l 450 0 l 450 14 l 461 14 q 502 28 489 14 q 515 56 515 43 q 508 85 515 69 l 468 176 l 211 176 l 169 81 q 164 56 164 68 q 177 28 164 43 q 218 14 190 14 l 228 14 l 228 0 l -58 0 l -58 14 l -47 14 q 12 31 -18 14 q 58 82 42 47 l 344 699 q 417 883 413 847 l 428 883 l 819 85 q 928 14 856 14 m 238 239 l 440 239 l 339 472 l 238 239 z "},"ã":{"ha":878,"x_min":-60,"x_max":939,"o":"m 694 1138 l 711 1138 q 719 1087 719 1114 q 707 1033 719 1060 q 622 939 678 964 q 542 922 589 922 q 439 954 494 922 q 385 980 417 967 q 335 996 354 993 q 303 999 317 999 q 268 990 289 999 q 197 926 214 968 l 181 926 q 176 976 176 947 q 189 1038 176 1006 q 272 1135 219 1108 q 344 1151 304 1151 q 460 1114 385 1151 q 597 1076 535 1076 q 651 1097 617 1076 q 694 1138 685 1117 m 928 14 l 939 14 l 939 0 l 450 0 l 450 14 l 461 14 q 502 28 489 14 q 515 56 515 43 q 508 85 515 69 l 468 176 l 210 176 l 169 81 q 164 56 164 68 q 177 28 164 43 q 218 14 190 14 l 228 14 l 228 0 l -58 0 l -58 14 l -47 14 q 12 31 -18 14 q 58 82 42 47 l 344 699 q 417 883 411 847 l 428 883 l 819 85 q 928 14 856 14 m 238 239 l 440 239 l 339 472 l 238 239 z "},"ä":{"ha":878,"x_min":-58,"x_max":939,"o":"m 308 940 q 293 925 308 940 q 235 910 278 910 q 163 940 193 910 q 133 1013 133 971 q 163 1085 133 1056 q 235 1115 193 1115 q 308 1085 278 1115 q 338 1013 338 1056 q 308 940 338 971 m 673 940 q 658 925 673 940 q 601 910 643 910 q 528 940 558 910 q 499 1013 499 971 q 528 1085 499 1056 q 601 1115 558 1115 q 673 1085 643 1115 q 703 1013 703 1056 q 673 940 703 971 m 928 14 l 939 14 l 939 0 l 450 0 l 450 14 l 461 14 q 502 28 489 14 q 515 56 515 43 q 508 85 515 69 l 468 176 l 211 176 l 169 81 q 164 56 164 68 q 177 28 164 43 q 218 14 190 14 l 228 14 l 228 0 l -58 0 l -58 14 l -47 14 q 12 31 -18 14 q 58 82 42 47 l 344 699 q 417 883 413 847 l 428 883 l 819 85 q 928 14 856 14 m 238 239 l 440 239 l 339 472 l 238 239 z "},"å":{"ha":878,"x_min":-60,"x_max":939,"o":"m 257 1045 q 257 1072 257 1045 q 304 1134 257 1099 q 422 1169 351 1169 q 538 1135 492 1169 q 585 1047 585 1100 q 538 957 585 993 q 422 921 492 921 q 304 956 351 921 q 257 1045 257 992 m 493 1045 q 493 1063 493 1045 q 472 1104 493 1081 q 426 1128 451 1128 q 385 1117 401 1128 q 351 1052 351 1094 q 372 987 351 1010 q 422 964 392 964 q 472 987 451 964 q 493 1045 493 1010 m 928 14 l 939 14 l 939 0 l 450 0 l 450 14 l 461 14 q 502 28 489 14 q 515 56 515 43 q 508 85 515 69 l 468 176 l 210 176 l 169 81 q 164 56 164 68 q 177 28 164 43 q 218 14 190 14 l 228 14 l 228 0 l -58 0 l -58 14 l -47 14 q 12 31 -18 14 q 58 82 42 47 l 344 699 q 417 883 411 847 l 428 883 l 819 85 q 928 14 856 14 m 238 239 l 440 239 l 339 472 l 238 239 z "},"æ":{"ha":1229,"x_min":-43,"x_max":1218,"o":"m 497 14 q 547 42 531 14 q 556 69 556 54 l 556 376 l 369 376 l 188 85 q 179 56 179 69 q 194 28 179 43 q 236 14 208 14 l 247 14 l 247 0 l -43 0 l -43 14 l -32 14 q 72 88 19 14 l 540 760 q 550 786 550 775 q 514 819 550 819 l 508 819 l 508 832 l 1001 832 q 1093 840 1053 832 q 1144 854 1133 849 l 1144 593 l 1132 594 l 1132 601 q 1090 722 1132 678 q 971 768 1047 765 l 822 768 l 822 439 l 935 439 q 1031 480 993 442 q 1068 578 1068 518 l 1068 582 l 1079 582 l 1079 232 l 1068 232 l 1068 236 q 1031 334 1068 296 q 936 376 994 372 l 822 376 l 822 64 l 950 64 q 1108 124 1039 64 q 1206 290 1178 183 l 1218 290 l 1174 0 l 485 0 l 486 14 l 497 14 m 556 439 l 556 672 l 410 439 l 556 439 z "},"ç":{"ha":928,"x_min":32,"x_max":888,"o":"m 507 -79 q 540 -72 526 -72 q 569 -72 554 -72 q 611 -80 583 -72 q 656 -108 639 -87 q 672 -146 672 -129 q 628 -247 672 -210 q 489 -297 569 -297 q 410 -285 450 -297 l 411 -271 q 508 -242 461 -271 q 556 -158 556 -214 q 533 -119 556 -136 q 419 -112 490 -90 l 413 -99 l 479 -12 q 150 117 268 6 q 32 425 32 228 q 171 736 32 622 q 561 850 310 850 q 864 800 738 850 l 846 564 l 836 564 q 738 737 800 686 q 585 788 676 788 q 381 690 447 788 q 315 422 315 592 q 380 151 315 251 q 561 46 444 50 q 708 75 658 46 q 790 169 763 106 q 842 347 817 231 l 851 347 l 888 125 q 561 -17 804 -17 l 507 -79 z "},"è":{"ha":799,"x_min":29,"x_max":779,"o":"m 438 932 l 428 922 q 264 969 354 932 q 104 1051 174 1006 q 222 1190 133 1153 q 347 1066 282 1139 q 438 932 411 993 m 29 0 l 29 14 l 44 14 q 89 29 74 14 q 117 86 117 56 l 117 746 q 95 799 117 778 q 44 819 74 819 l 29 819 l 29 833 l 571 833 q 649 840 606 833 q 708 854 692 847 l 708 592 l 694 592 l 694 599 q 652 724 694 679 q 532 769 610 768 l 389 769 l 389 443 l 496 443 q 595 484 557 444 q 633 586 633 524 l 633 589 l 647 589 l 647 231 l 633 231 l 633 236 q 595 338 633 297 q 496 378 557 378 l 389 378 l 389 64 l 522 64 q 674 125 606 64 q 767 292 742 186 l 779 292 l 740 0 l 29 0 z "},"é":{"ha":799,"x_min":29,"x_max":781,"o":"m 376 918 l 367 928 q 457 1063 393 990 q 581 1186 521 1135 q 700 1047 669 1149 q 514 954 603 983 q 376 918 425 925 m 29 0 l 29 14 l 44 14 q 89 29 74 14 q 117 86 117 56 l 117 746 q 95 799 117 778 q 44 819 74 819 l 29 819 l 29 833 l 571 833 q 649 840 606 833 q 708 854 692 847 l 708 592 l 694 592 l 694 599 q 652 724 694 679 q 532 769 610 768 l 389 769 l 389 443 l 496 443 q 595 484 557 444 q 633 586 633 524 l 633 589 l 647 589 l 647 231 l 633 231 l 633 236 q 595 338 633 297 q 496 378 557 378 l 389 378 l 389 64 l 522 64 q 674 125 606 64 q 767 292 742 186 l 779 292 l 740 0 l 29 0 z "},"ê":{"ha":799,"x_min":29,"x_max":781,"o":"m 389 1156 l 406 1156 l 654 913 l 644 901 l 397 990 l 165 901 l 156 913 l 389 1156 m 29 0 l 29 14 l 44 14 q 89 29 74 14 q 117 86 117 56 l 117 746 q 95 799 117 778 q 44 819 74 819 l 29 819 l 29 833 l 571 833 q 649 840 606 833 q 708 854 692 847 l 708 592 l 694 592 l 694 599 q 652 724 694 679 q 532 769 610 768 l 389 769 l 389 443 l 496 443 q 595 484 557 444 q 633 586 633 524 l 633 589 l 647 589 l 647 231 l 633 231 l 633 236 q 595 338 633 297 q 496 378 557 378 l 389 378 l 389 64 l 522 64 q 674 125 606 64 q 767 292 742 186 l 779 292 l 740 0 l 29 0 z "},"ë":{"ha":799,"x_min":29,"x_max":779,"o":"m 285 941 q 269 926 285 941 q 212 911 254 911 q 140 941 169 911 q 110 1013 110 971 q 140 1085 110 1056 q 212 1115 169 1115 q 285 1085 254 1115 q 315 1013 315 1056 q 285 941 315 971 m 649 941 q 634 926 649 941 q 577 911 619 911 q 505 941 535 911 q 475 1013 475 971 q 505 1085 475 1056 q 577 1115 535 1115 q 649 1085 619 1115 q 679 1013 679 1056 q 649 941 679 971 m 29 0 l 29 14 l 44 14 q 89 29 74 14 q 117 86 117 56 l 117 746 q 95 799 117 778 q 44 819 74 819 l 29 819 l 29 833 l 571 833 q 649 840 606 833 q 708 854 692 847 l 708 592 l 694 592 l 694 599 q 621 747 694 707 q 532 769 585 768 l 389 769 l 389 443 l 496 443 q 595 484 557 444 q 633 586 633 524 l 633 589 l 647 589 l 647 231 l 633 231 l 633 236 q 595 338 633 297 q 496 378 557 378 l 389 378 l 389 64 l 522 64 q 674 125 606 64 q 767 292 742 186 l 779 292 l 740 0 l 29 0 z "},"ì":{"ha":503,"x_min":-47,"x_max":475,"o":"m 286 932 l 276 922 q 113 969 203 932 q -47 1051 22 1006 q 71 1190 -19 1153 q 195 1067 131 1139 q 286 932 260 994 m 460 14 l 475 14 l 475 0 l 29 0 l 29 14 l 44 14 q 94 35 74 14 q 115 86 115 56 l 115 747 q 94 799 115 778 q 44 819 74 819 l 29 819 l 29 833 l 474 833 l 474 819 l 460 819 q 399 785 418 819 q 388 747 389 768 l 388 86 q 432 19 389 38 q 460 14 446 14 z "},"í":{"ha":503,"x_min":28,"x_max":549,"o":"m 225 919 l 215 929 q 306 1063 242 990 q 431 1186 369 1135 q 549 1047 519 1149 q 389 965 479 1001 q 225 919 299 928 m 460 14 l 475 14 l 475 0 l 29 0 l 29 14 l 44 14 q 94 35 74 14 q 115 86 115 56 l 115 747 q 94 799 115 778 q 44 819 74 819 l 29 819 l 29 833 l 474 833 l 474 819 l 460 819 q 399 785 418 819 q 388 747 389 768 l 388 86 q 432 19 389 38 q 460 14 446 14 z "},"î":{"ha":503,"x_min":3,"x_max":504,"o":"m 239 1156 l 256 1156 l 503 913 l 493 901 l 246 990 l 14 901 l 4 913 l 239 1156 m 460 14 l 475 14 l 475 0 l 29 0 l 29 14 l 44 14 q 94 35 74 14 q 115 86 115 56 l 115 747 q 94 799 115 778 q 44 819 74 819 l 29 819 l 29 833 l 474 833 l 474 819 l 460 819 q 410 799 431 819 q 388 747 389 778 l 388 86 q 432 19 389 38 q 460 14 446 14 z "},"ï":{"ha":503,"x_min":-43,"x_max":529,"o":"m 134 941 q 119 926 134 941 q 62 911 104 911 q -11 941 19 911 q -42 1013 -42 971 q -11 1085 -42 1056 q 62 1115 19 1115 q 134 1085 104 1115 q 164 1013 164 1056 q 134 941 164 971 m 498 941 q 483 926 498 941 q 426 911 468 911 q 353 941 383 911 q 324 1013 324 971 q 353 1085 324 1056 q 426 1115 383 1115 q 498 1085 468 1115 q 528 1013 528 1056 q 498 941 528 971 m 460 14 l 475 14 l 475 0 l 29 0 l 29 14 l 44 14 q 94 35 74 14 q 115 86 115 56 l 115 747 q 94 799 115 778 q 44 819 74 819 l 29 819 l 29 833 l 474 833 l 474 819 l 460 819 q 399 785 418 819 q 388 747 389 768 l 388 86 q 410 35 389 56 q 460 14 431 14 z "},"ð":{"ha":1029,"x_min":25,"x_max":997,"o":"m 865 724 q 931 669 865 724 q 996 416 996 614 q 865 109 996 218 q 499 0 735 0 l 26 0 l 26 14 l 43 14 q 92 29 75 14 q 121 86 121 56 l 121 386 l 28 386 l 28 449 l 121 449 l 121 749 q 97 799 119 779 q 42 819 74 819 l 25 819 l 25 833 l 499 833 q 865 724 735 833 m 393 386 l 393 64 l 472 64 q 647 157 583 64 q 711 417 711 250 q 600 729 711 642 q 472 771 546 771 l 393 771 l 393 449 l 539 449 l 539 386 l 393 386 z "},"ñ":{"ha":1082,"x_min":17,"x_max":1068,"o":"m 774 1138 l 792 1138 q 800 1087 800 1114 q 788 1033 800 1060 q 703 939 757 964 q 626 922 669 922 q 514 957 583 922 q 421 995 446 992 q 376 999 396 999 q 322 976 356 999 q 278 926 289 954 l 260 926 q 256 967 256 946 q 317 1110 256 1050 q 412 1151 360 1151 q 539 1114 464 1151 q 676 1076 614 1076 q 731 1097 697 1076 q 774 1138 765 1117 m 1067 819 l 1043 819 q 989 800 1011 819 q 967 751 967 781 l 967 135 q 979 -1 967 44 l 983 -17 l 971 -17 l 388 474 l 388 83 q 410 34 389 54 q 464 14 432 14 l 486 14 l 486 0 l 17 0 l 17 14 l 39 14 q 93 34 71 14 q 115 83 115 54 l 115 704 q 103 836 115 788 l 99 851 l 111 851 l 693 360 l 693 750 q 656 811 693 792 q 618 819 639 819 l 594 819 l 594 833 l 1067 833 l 1067 819 z "},"ò":{"ha":1082,"x_min":35,"x_max":1049,"o":"m 579 933 l 569 924 q 406 969 496 932 q 246 1053 315 1007 q 364 1190 275 1154 q 488 1067 424 1139 q 579 933 553 994 m 35 417 q 35 519 35 417 q 169 736 35 622 q 541 850 303 850 q 913 736 779 850 q 1047 417 1047 622 q 913 97 1047 211 q 541 -17 779 -17 q 169 97 303 -17 q 35 417 35 211 m 318 417 q 318 328 318 417 q 375 142 318 239 q 540 46 432 46 q 706 142 649 46 q 763 415 763 239 q 663 743 763 656 q 540 788 613 788 q 375 691 432 788 q 318 417 318 594 z "},"ó":{"ha":1082,"x_min":35,"x_max":1049,"o":"m 518 919 l 508 929 q 599 1063 535 990 q 724 1188 663 1136 q 842 1049 813 1150 q 682 965 772 1003 q 518 919 592 928 m 35 417 q 35 519 35 417 q 169 736 35 622 q 541 850 303 850 q 913 736 779 850 q 1047 417 1047 622 q 913 97 1047 211 q 541 -17 779 -17 q 169 97 303 -17 q 35 417 35 211 m 318 417 q 318 328 318 417 q 375 142 318 239 q 540 46 432 46 q 706 142 649 46 q 763 415 763 239 q 663 743 763 656 q 540 788 613 788 q 375 691 432 788 q 318 417 318 594 z "},"ô":{"ha":1082,"x_min":35,"x_max":1049,"o":"m 532 1157 l 549 1157 l 796 913 l 786 901 l 539 992 l 307 901 l 297 913 l 532 1157 m 35 417 q 35 519 35 417 q 169 736 35 622 q 541 850 303 850 q 913 736 779 850 q 1047 417 1047 622 q 913 97 1047 211 q 541 -17 779 -17 q 169 97 303 -17 q 35 417 35 211 m 318 417 q 318 328 318 417 q 375 142 318 239 q 540 46 432 46 q 706 142 649 46 q 763 417 763 239 q 706 691 763 594 q 540 788 649 788 q 375 691 432 788 q 318 417 318 594 z "},"õ":{"ha":1082,"x_min":33,"x_max":1047,"o":"m 813 1139 l 829 1139 q 838 1088 838 1115 q 826 1035 838 1061 q 742 939 796 965 q 665 924 708 924 q 553 958 621 924 q 460 996 485 992 q 415 1000 435 1000 q 361 978 394 1000 q 315 928 328 956 l 299 928 q 293 968 293 946 q 356 1111 293 1051 q 451 1153 399 1153 q 578 1115 503 1153 q 715 1078 653 1078 q 770 1098 736 1078 q 813 1139 804 1118 m 35 417 q 35 519 35 417 q 169 736 35 622 q 541 850 303 850 q 913 736 779 850 q 1047 417 1047 622 q 913 97 1047 211 q 541 -17 779 -17 q 169 97 303 -17 q 35 417 35 211 m 318 416 q 318 327 318 416 q 375 142 318 239 q 540 46 432 46 q 706 142 649 46 q 763 415 763 239 q 663 743 763 656 q 540 788 613 788 q 375 690 432 788 q 318 416 318 593 z "},"ö":{"ha":1082,"x_min":35,"x_max":1047,"o":"m 427 942 q 412 926 427 942 q 355 911 397 911 q 282 942 313 911 q 251 1015 251 972 q 282 1087 251 1057 q 355 1117 313 1117 q 427 1087 397 1117 q 457 1015 457 1057 q 427 942 457 972 m 791 942 q 776 926 791 942 q 719 911 761 911 q 647 942 676 911 q 617 1015 617 972 q 647 1087 617 1057 q 719 1117 676 1117 q 791 1087 761 1117 q 821 1015 821 1057 q 791 942 821 972 m 35 417 q 35 519 35 417 q 169 736 35 622 q 541 850 303 850 q 913 736 779 850 q 1047 417 1047 622 q 913 97 1047 211 q 541 -17 779 -17 q 169 97 303 -17 q 35 417 35 211 m 318 417 q 318 328 318 417 q 375 142 318 239 q 540 46 432 46 q 706 142 649 46 q 763 415 763 239 q 663 743 763 656 q 540 788 613 788 q 375 691 432 788 q 318 417 318 594 z "},"÷":{"ha":668,"x_min":56,"x_max":614,"o":"m 385 599 q 375 589 385 599 q 334 578 364 578 q 283 599 304 578 q 261 651 261 621 q 283 701 261 681 q 334 722 304 722 q 385 701 364 722 q 407 651 407 681 q 385 599 407 621 m 56 385 l 56 475 l 614 475 l 614 385 l 56 385 m 385 160 q 375 150 385 160 q 334 139 364 139 q 283 160 304 139 q 261 212 261 182 q 283 263 261 242 q 334 283 304 283 q 385 263 364 283 q 407 212 407 242 q 385 160 407 182 z "},"ø":{"ha":1082,"x_min":35,"x_max":1049,"o":"m 1047 415 q 913 97 1047 211 q 540 -17 779 -17 q 267 35 382 -17 l 199 -46 l 138 4 l 197 75 q 35 406 35 189 q 169 736 35 622 q 540 850 303 850 q 810 797 694 850 l 890 893 l 950 844 l 878 758 q 1047 415 1047 642 m 711 681 q 543 788 654 788 q 375 691 432 788 q 318 415 318 594 q 338 240 318 315 l 711 681 m 368 156 q 537 46 425 46 q 706 142 649 46 q 763 415 763 239 q 742 599 763 521 l 368 156 z "},"ù":{"ha":983,"x_min":26,"x_max":968,"o":"m 590 932 l 581 922 q 417 968 507 931 q 257 1051 326 1006 q 375 1190 286 1153 q 517 1045 461 1117 q 590 932 572 974 m 968 822 l 950 822 q 907 805 925 822 q 889 763 889 788 l 889 310 q 797 69 889 156 q 536 -17 706 -17 q 106 307 106 -17 l 106 763 q 75 815 106 799 q 44 822 61 822 l 26 822 l 26 833 l 457 833 l 457 822 l 438 822 q 396 806 413 822 q 378 763 379 789 l 378 310 q 471 81 378 143 q 581 50 517 50 q 726 114 675 50 q 779 294 778 178 l 779 763 q 749 815 778 799 q 718 822 735 822 l 700 822 l 700 833 l 968 833 l 968 822 z "},"ú":{"ha":983,"x_min":26,"x_max":968,"o":"m 529 918 l 519 928 q 610 1062 546 989 q 733 1186 674 1135 q 853 1047 822 1149 q 692 964 783 1001 q 529 918 601 926 m 968 822 l 950 822 q 907 805 925 822 q 889 763 889 788 l 889 310 q 797 69 889 156 q 536 -17 706 -17 q 106 307 106 -17 l 106 763 q 75 815 106 799 q 44 822 61 822 l 26 822 l 26 833 l 457 833 l 457 822 l 438 822 q 396 806 413 822 q 378 763 379 789 l 378 310 q 471 81 378 143 q 581 50 517 50 q 726 114 675 50 q 779 294 778 178 l 779 763 q 749 815 778 799 q 718 822 735 822 l 700 822 l 700 833 l 968 833 l 968 822 z "},"û":{"ha":983,"x_min":25,"x_max":968,"o":"m 542 1156 l 558 1156 l 807 911 l 797 900 l 550 990 l 318 900 l 308 911 l 542 1156 m 968 822 l 950 822 q 907 805 925 822 q 889 763 889 788 l 889 310 q 797 69 889 156 q 536 -17 706 -17 q 106 307 106 -17 l 106 763 q 75 815 106 799 q 44 822 61 822 l 26 822 l 26 833 l 457 833 l 457 822 l 438 822 q 395 806 413 822 q 378 763 378 789 l 378 310 q 431 118 378 186 q 580 50 485 50 q 726 114 675 50 q 779 294 778 178 l 779 763 q 760 806 778 789 q 718 822 743 822 l 700 822 l 700 833 l 968 833 l 968 822 z "},"ü":{"ha":983,"x_min":26,"x_max":968,"o":"m 438 940 q 422 925 438 940 q 365 910 407 910 q 292 940 322 910 q 263 1013 263 971 q 292 1085 263 1056 q 365 1115 322 1115 q 438 1085 407 1115 q 468 1013 468 1056 q 438 940 468 971 m 802 940 q 787 925 802 940 q 730 910 772 910 q 658 940 688 910 q 628 1013 628 971 q 658 1085 628 1056 q 730 1115 688 1115 q 802 1085 772 1115 q 832 1013 832 1056 q 802 940 832 971 m 968 822 l 950 822 q 907 805 925 822 q 889 763 889 788 l 889 310 q 797 69 889 156 q 536 -17 706 -17 q 106 307 106 -17 l 106 763 q 68 818 106 803 q 44 822 57 822 l 26 822 l 26 833 l 457 833 l 457 822 l 438 822 q 395 806 413 822 q 378 763 378 789 l 378 310 q 471 81 378 143 q 581 50 517 50 q 726 114 675 50 q 779 294 778 178 l 779 763 q 760 806 778 789 q 718 822 743 822 l 700 822 l 700 833 l 968 833 l 968 822 z "},"ý":{"ha":879,"x_min":-67,"x_max":950,"o":"m 494 918 l 485 928 q 576 1062 511 989 q 700 1186 640 1135 q 818 1047 789 1149 q 658 964 749 1001 q 494 918 568 926 m 950 819 l 932 819 q 865 801 896 819 q 814 754 833 782 l 579 388 l 579 86 q 618 24 581 43 q 656 14 635 14 l 671 14 l 671 0 l 215 0 l 215 14 l 232 14 q 285 35 263 14 q 307 86 307 56 l 307 386 l 68 754 q 17 801 49 782 q -50 819 -15 819 l -67 819 l -67 833 l 419 833 l 419 819 l 406 819 q 368 802 379 819 q 357 772 357 785 q 364 749 357 760 l 536 457 l 704 749 q 711 772 711 760 q 699 801 711 783 q 663 819 688 819 l 649 819 l 649 833 l 950 833 l 950 819 z "},"þ":{"ha":833,"x_min":51,"x_max":857,"o":"m 856 421 q 835 314 856 367 q 672 175 792 211 q 613 165 642 165 q 440 224 518 165 l 439 235 q 543 313 501 242 q 576 439 576 367 q 536 562 576 518 q 429 606 496 606 l 410 606 l 410 88 q 447 24 410 44 q 486 14 465 14 l 500 14 l 501 0 l 51 0 l 51 14 l 67 14 q 121 35 99 14 q 143 88 143 56 l 143 747 q 121 799 143 778 q 67 819 99 819 l 51 819 l 51 833 l 501 833 l 500 819 l 486 819 q 419 785 442 819 q 408 747 410 768 l 408 668 l 514 668 q 768 604 688 668 q 856 421 856 536 z "},"ÿ":{"ha":879,"x_min":-67,"x_max":950,"o":"m 403 940 q 389 925 403 940 q 331 910 374 910 q 259 940 289 910 q 229 1013 229 971 q 259 1085 229 1056 q 331 1115 289 1115 q 403 1085 374 1115 q 433 1013 433 1056 q 403 940 433 971 m 769 940 q 754 925 769 940 q 697 910 739 910 q 624 940 654 910 q 593 1013 593 971 q 624 1085 593 1056 q 697 1115 654 1115 q 769 1085 739 1115 q 799 1013 799 1056 q 769 940 799 971 m 950 819 l 932 819 q 865 801 896 819 q 814 754 833 782 l 579 388 l 579 86 q 601 35 579 56 q 656 14 624 14 l 671 14 l 671 0 l 215 0 l 215 14 l 232 14 q 285 35 263 14 q 307 86 307 56 l 307 386 l 68 754 q 8 806 42 793 q -50 819 -26 819 l -67 819 l -67 833 l 419 833 l 419 819 l 406 819 q 368 802 379 819 q 357 772 357 785 q 364 749 357 760 l 536 457 l 704 749 q 711 772 711 760 q 699 801 711 783 q 663 819 688 819 l 647 819 l 647 833 l 950 833 l 950 819 z "},"Ā":{"ha":1000,"x_min":-57,"x_max":1057,"o":"m 288 1104 l 288 1222 l 690 1222 l 690 1104 l 288 1104 m 1044 14 l 1056 14 l 1056 0 l 529 0 l 529 14 l 542 14 q 588 33 572 14 q 603 67 603 51 q 596 101 603 83 l 542 231 l 244 231 l 189 101 q 182 72 182 83 q 187 48 182 61 q 208 24 192 35 q 242 14 224 14 l 254 14 l 254 0 l -56 0 l -56 14 l -43 14 q 20 33 -11 14 q 72 89 51 51 l 396 799 q 475 1006 469 954 l 488 1006 l 928 90 q 1044 14 972 14 m 275 300 l 513 300 l 396 578 l 275 300 z "},"ā":{"ha":878,"x_min":-58,"x_max":939,"o":"m 225 965 l 225 1083 l 628 1083 l 628 965 l 225 965 m 928 14 l 939 14 l 939 0 l 450 0 l 450 14 l 461 14 q 502 28 489 14 q 515 56 515 43 q 508 85 515 69 l 468 176 l 211 176 l 169 81 q 164 56 164 68 q 177 28 164 43 q 218 14 190 14 l 228 14 l 228 0 l -58 0 l -58 14 l -47 14 q 12 31 -18 14 q 58 82 42 47 l 344 699 q 417 883 413 847 l 428 883 l 819 85 q 928 14 856 14 m 238 239 l 440 239 l 339 472 l 238 239 z "},"Ă":{"ha":1000,"x_min":-57,"x_max":1057,"o":"m 683 1246 q 638 1131 683 1182 q 484 1061 578 1061 q 331 1131 390 1061 q 286 1246 286 1183 q 290 1289 286 1267 l 308 1289 q 393 1217 328 1243 q 490 1200 435 1200 q 594 1225 544 1200 q 661 1289 644 1250 l 678 1289 q 683 1246 683 1267 m 928 90 q 1044 14 972 14 l 1056 14 l 1056 0 l 529 0 l 529 14 l 542 14 q 588 33 572 14 q 603 67 603 51 q 596 101 603 83 l 542 231 l 244 231 l 189 101 q 182 72 182 83 q 187 48 182 61 q 208 24 192 35 q 242 14 224 14 l 254 14 l 254 0 l -56 0 l -56 14 l -43 14 q 20 33 -11 14 q 72 89 51 51 l 396 799 q 475 1006 469 954 l 488 1006 l 928 90 m 275 300 l 513 300 l 396 578 l 275 300 z "},"ă":{"ha":878,"x_min":-58,"x_max":939,"o":"m 622 1107 q 576 992 622 1043 q 422 922 515 922 q 269 992 329 922 q 225 1107 225 1044 q 229 1150 225 1128 l 247 1150 q 313 1086 264 1111 q 413 1061 363 1061 q 499 1072 463 1061 q 599 1150 576 1097 l 617 1150 q 622 1107 622 1128 m 928 14 l 939 14 l 939 0 l 450 0 l 450 14 l 461 14 q 502 28 489 14 q 515 56 515 43 q 508 85 515 69 l 468 176 l 211 176 l 169 81 q 164 56 164 68 q 177 28 164 43 q 218 14 190 14 l 228 14 l 228 0 l -58 0 l -58 14 l -47 14 q 12 31 -18 14 q 58 82 42 47 l 344 699 q 417 883 413 847 l 428 883 l 819 85 q 928 14 856 14 m 238 239 l 440 239 l 339 472 l 238 239 z "},"Ą":{"ha":1000,"x_min":-57,"x_max":1057,"o":"m 1056 0 q 1000 3 1054 0 q 909 9 946 7 q 846 11 872 11 q 696 0 742 11 q 607 -90 607 -21 q 663 -183 607 -161 q 703 -189 678 -189 q 763 -160 728 -189 l 771 -168 q 688 -281 767 -256 q 628 -287 664 -287 q 549 -258 593 -287 q 485 -146 485 -217 q 511 -58 485 -89 q 522 -46 519 -50 q 537 -33 525 -42 q 551 -22 549 -24 q 568 -11 553 -21 q 585 0 583 -1 q 610 40 610 17 q 597 96 610 63 l 539 231 l 247 231 l 188 99 q 193 36 172 60 q 242 14 213 14 l 254 14 l 254 0 l -56 0 l -56 14 l -43 14 q 25 35 -8 14 q 79 101 58 57 l 396 785 q 475 992 469 940 l 488 992 l 922 101 q 958 54 936 72 q 1056 14 992 26 l 1056 0 m 278 300 l 510 300 l 396 567 l 278 300 z "},"ą":{"ha":878,"x_min":-50,"x_max":926,"o":"m 890 -2 q 874 -1 890 -2 q 828 1 858 0 q 776 3 797 3 q 735 3 754 3 q 525 -100 525 3 q 581 -193 525 -171 q 622 -199 597 -199 q 682 -169 647 -199 l 690 -178 q 607 -290 686 -265 q 547 -297 582 -297 q 468 -268 513 -297 q 404 -156 404 -226 q 431 -68 404 -99 q 442 -56 439 -60 q 456 -42 444 -51 q 470 -32 468 -33 q 488 -21 472 -31 q 504 -10 503 -11 q 528 31 528 7 q 514 92 528 54 l 474 185 l 210 185 l 164 82 q 158 56 158 69 q 172 28 158 43 q 213 14 185 14 l 222 14 l 222 0 l -50 0 l -50 14 l -39 14 q 19 31 -10 14 q 67 83 49 47 l 347 688 q 417 868 413 831 l 428 868 l 813 82 q 856 36 828 54 q 904 14 883 18 l 925 10 l 925 -4 q 890 -2 921 -4 m 236 246 l 447 246 l 343 486 l 236 246 z "},"Ć":{"ha":1101,"x_min":47,"x_max":1047,"o":"m 582 1057 l 572 1067 q 663 1201 599 1128 q 788 1325 728 1274 q 906 1186 876 1288 q 746 1103 836 1140 q 582 1057 656 1065 m 49 488 q 121 758 49 644 q 330 932 193 872 q 665 992 467 992 q 1014 928 864 992 l 1000 663 l 988 663 q 871 863 947 803 q 681 922 794 922 q 440 808 526 922 q 354 491 354 694 q 434 171 354 288 q 656 50 514 54 q 893 128 819 50 q 1001 406 963 200 l 1013 406 l 1046 153 q 658 -19 943 -19 q 210 115 372 -18 q 49 488 49 247 z "},"ć":{"ha":928,"x_min":32,"x_max":888,"o":"m 500 939 l 490 949 q 581 1083 517 1010 q 706 1207 646 1156 q 824 1068 794 1169 q 664 985 754 1022 q 500 939 574 949 m 32 418 q 171 736 32 622 q 561 850 310 850 q 864 800 738 850 l 846 564 l 836 564 q 738 737 800 686 q 585 788 676 788 q 381 690 447 788 q 315 422 315 592 q 428 96 315 192 q 547 47 483 49 q 645 52 610 46 q 708 74 681 58 q 755 112 736 90 q 790 169 774 133 q 842 347 817 231 l 851 347 l 888 125 q 561 -17 804 -17 q 96 182 225 -15 q 32 418 32 279 z "},"Ċ":{"ha":1101,"x_min":47,"x_max":1047,"o":"m 678 1091 q 664 1076 678 1091 q 606 1061 649 1061 q 533 1091 563 1061 q 503 1163 503 1121 q 533 1235 503 1206 q 606 1265 563 1265 q 678 1235 649 1265 q 708 1163 708 1206 q 678 1091 708 1121 m 49 488 q 121 758 49 644 q 330 932 193 872 q 665 992 467 992 q 1014 928 864 992 l 1000 663 l 988 663 q 871 863 947 803 q 681 922 794 922 q 440 808 526 922 q 354 491 354 694 q 434 171 354 288 q 656 50 514 54 q 893 128 819 50 q 1001 406 963 200 l 1013 406 l 1046 153 q 658 -19 943 -19 q 210 115 372 -18 q 49 488 49 247 z "},"ċ":{"ha":928,"x_min":32,"x_max":888,"o":"m 597 973 q 582 958 597 973 q 524 943 567 943 q 451 973 482 943 q 421 1045 421 1003 q 451 1118 421 1088 q 524 1149 482 1149 q 597 1118 567 1149 q 626 1045 626 1088 q 597 973 626 1003 m 558 -16 q 435 -16 558 -16 q 172 97 313 -15 q 32 416 32 210 q 171 736 32 622 q 561 850 310 850 q 864 800 738 850 l 846 564 l 836 564 q 738 737 800 686 q 585 788 676 788 q 381 690 447 788 q 315 422 315 592 q 380 151 315 251 q 561 46 444 50 q 708 75 658 46 q 790 169 763 106 q 842 347 817 231 l 851 347 l 888 125 q 558 -16 804 -17 z "},"Č":{"ha":1101,"x_min":47,"x_max":1047,"o":"m 615 1061 l 599 1061 l 364 1304 l 374 1315 l 607 1226 l 826 1315 l 836 1304 l 615 1061 m 49 488 q 121 758 49 644 q 330 932 193 872 q 665 992 467 992 q 1014 928 864 992 l 1000 663 l 988 663 q 871 863 947 803 q 681 922 794 922 q 440 808 526 922 q 354 491 354 694 q 434 171 354 288 q 656 50 514 54 q 893 128 819 50 q 1001 406 963 200 l 1013 406 l 1046 153 q 658 -19 943 -19 q 210 115 372 -18 q 49 488 49 247 z "},"č":{"ha":928,"x_min":32,"x_max":888,"o":"m 533 943 l 517 943 l 282 1188 l 292 1199 l 525 1108 l 744 1199 l 754 1188 l 533 943 m 558 -16 q 435 -16 558 -16 q 172 97 313 -15 q 32 416 32 210 q 171 736 32 622 q 561 850 310 850 q 864 800 738 850 l 846 564 l 836 564 q 738 737 800 686 q 585 788 676 788 q 381 690 447 788 q 315 422 315 592 q 380 151 315 251 q 561 46 444 50 q 708 75 658 46 q 790 169 763 106 q 842 347 817 231 l 851 347 l 888 125 q 558 -16 804 -17 z "},"Ď":{"ha":1169,"x_min":40,"x_max":1122,"o":"m 594 1061 l 578 1061 l 343 1304 l 353 1315 l 588 1226 l 806 1315 l 815 1304 l 594 1061 m 1122 486 q 1056 224 1122 333 q 865 58 990 115 q 568 0 740 0 l 42 0 l 42 14 l 60 14 q 122 40 96 14 q 149 101 147 65 l 149 879 q 122 935 149 913 q 60 958 94 958 l 42 958 l 42 972 l 568 972 q 976 844 829 972 q 1122 486 1122 715 m 433 903 l 433 69 l 540 69 q 743 180 669 69 q 817 486 817 290 q 743 792 817 682 q 540 903 669 903 l 433 903 z "},"ď":{"ha":1029,"x_min":25,"x_max":997,"o":"m 508 924 l 492 924 l 257 1167 l 267 1178 l 501 1089 l 719 1178 l 729 1167 l 508 924 m 865 724 q 931 669 865 724 q 996 416 996 614 q 865 109 996 218 q 499 0 735 0 l 26 0 l 26 14 l 43 14 q 98 36 75 14 q 121 89 121 58 l 121 749 q 96 799 118 779 q 42 819 74 819 l 25 819 l 25 833 l 499 833 q 865 724 735 833 m 393 771 l 393 64 l 472 64 q 647 157 583 64 q 711 417 711 250 q 600 729 711 642 q 472 771 546 771 l 393 771 z "},"Đ":{"ha":1169,"x_min":40,"x_max":1122,"o":"m 388 1104 l 388 1222 l 790 1222 l 790 1104 l 388 1104 m 976 844 q 1049 780 976 844 q 1122 486 1122 715 q 976 128 1122 257 q 568 0 829 0 l 42 0 l 42 14 l 60 14 q 122 40 96 14 q 149 101 147 65 l 149 879 q 122 935 149 913 q 60 958 94 958 l 43 958 l 42 972 l 568 972 q 976 844 829 972 m 433 903 l 433 69 l 540 69 q 743 180 669 69 q 817 486 817 290 q 743 792 817 682 q 540 903 669 903 l 433 903 z "},"đ":{"ha":1029,"x_min":25,"x_max":997,"o":"m 301 967 l 301 1085 l 704 1085 l 704 967 l 301 967 m 865 724 q 931 669 865 724 q 996 416 996 614 q 865 109 996 218 q 499 0 735 0 l 26 0 l 26 14 l 43 14 q 98 36 75 14 q 121 89 121 58 l 121 749 q 96 799 118 779 q 42 819 74 819 l 25 819 l 25 833 l 499 833 q 865 724 735 833 m 393 771 l 393 64 l 472 64 q 647 157 583 64 q 711 417 711 250 q 600 729 711 642 q 472 771 546 771 l 393 771 z "},"Ē":{"ha":926,"x_min":42,"x_max":907,"o":"m 274 1104 l 274 1222 l 676 1222 l 676 1104 l 274 1104 m 60 14 q 122 40 96 14 q 149 101 147 65 l 149 871 q 111 942 147 915 q 60 958 89 958 l 42 958 l 42 972 l 657 972 q 751 981 700 972 q 822 997 801 989 l 822 711 l 808 711 l 808 722 q 728 878 808 833 q 635 901 689 900 l 433 901 l 433 514 l 585 514 q 693 558 651 515 q 735 667 735 600 l 735 672 l 749 672 l 749 286 l 735 286 l 735 293 q 693 401 735 358 q 586 444 651 443 l 433 444 l 433 71 l 604 71 q 783 138 706 71 q 893 322 861 204 l 907 322 l 854 0 l 42 0 l 42 14 l 60 14 z "},"ē":{"ha":799,"x_min":29,"x_max":779,"o":"m 203 967 l 203 1085 l 606 1085 l 606 967 l 203 967 m 29 0 l 29 14 l 44 14 q 89 29 74 14 q 117 86 117 56 l 117 746 q 95 799 117 778 q 44 819 74 819 l 29 819 l 29 833 l 571 833 q 649 840 606 833 q 708 854 692 847 l 708 592 l 694 592 l 694 599 q 652 724 694 679 q 532 769 610 768 l 389 769 l 389 443 l 496 443 q 595 484 557 444 q 633 586 633 524 l 633 589 l 647 589 l 647 231 l 633 231 l 633 236 q 595 338 633 297 q 496 378 557 378 l 389 378 l 389 64 l 522 64 q 674 125 606 64 q 767 292 742 186 l 779 292 l 740 0 l 29 0 z "},"Ė":{"ha":926,"x_min":42,"x_max":907,"o":"m 544 1091 q 529 1076 544 1091 q 472 1061 514 1061 q 399 1091 429 1061 q 368 1163 368 1121 q 399 1235 368 1206 q 472 1265 429 1265 q 544 1235 514 1265 q 574 1163 574 1206 q 544 1091 574 1121 m 60 14 q 122 40 96 14 q 149 101 147 65 l 149 871 q 111 942 147 915 q 60 958 89 958 l 42 958 l 42 972 l 657 972 q 763 982 717 972 q 822 997 810 992 l 822 711 l 808 711 l 808 722 q 728 878 808 833 q 635 901 689 900 l 433 901 l 433 514 l 585 514 q 693 558 651 515 q 735 667 735 600 l 735 672 l 749 672 l 749 286 l 735 286 l 735 293 q 693 401 735 358 q 586 444 651 443 l 433 444 l 433 71 l 604 71 q 783 138 706 71 q 893 322 861 204 l 907 322 l 854 0 l 42 0 l 42 14 l 60 14 z "},"ė":{"ha":799,"x_min":29,"x_max":779,"o":"m 472 953 q 457 938 472 953 q 399 922 442 922 q 327 953 357 922 q 297 1026 297 983 q 327 1098 297 1068 q 399 1128 357 1128 q 472 1098 442 1128 q 501 1026 501 1068 q 472 953 501 983 m 29 0 l 29 14 l 44 14 q 89 29 74 14 q 117 86 117 56 l 117 746 q 95 799 117 778 q 44 819 74 819 l 29 819 l 29 833 l 571 833 q 649 840 606 833 q 708 854 692 847 l 708 592 l 694 592 l 694 599 q 652 724 694 679 q 532 769 610 768 l 389 769 l 389 443 l 496 443 q 595 484 557 444 q 633 586 633 524 l 633 589 l 647 589 l 647 231 l 633 231 l 633 236 q 595 338 633 297 q 496 378 557 378 l 389 378 l 389 64 l 522 64 q 674 125 606 64 q 767 292 742 186 l 779 292 l 740 0 l 29 0 z "},"Ę":{"ha":926,"x_min":42,"x_max":928,"o":"m 926 -175 q 782 -296 918 -296 q 703 -265 747 -296 q 642 -150 642 -222 q 680 -45 642 -81 q 765 0 718 -10 l 42 0 l 42 14 l 60 14 q 122 40 96 14 q 149 101 147 65 l 149 871 q 111 942 147 915 q 60 958 89 958 l 42 958 l 42 972 l 657 972 q 751 981 700 972 q 822 997 801 989 l 822 711 l 808 711 l 808 722 q 728 878 808 833 q 635 901 689 900 l 433 901 l 433 514 l 585 514 q 693 558 651 515 q 735 667 735 600 l 735 672 l 749 672 l 749 286 l 735 286 l 735 293 q 693 401 735 358 q 586 444 651 443 l 433 444 l 433 71 l 604 71 q 783 138 706 71 q 893 322 861 204 l 907 322 l 854 0 l 851 0 q 763 -96 763 -21 q 817 -190 763 -169 q 857 -196 832 -196 q 918 -167 882 -196 l 926 -175 z "},"ę":{"ha":799,"x_min":29,"x_max":815,"o":"m 529 -150 q 651 0 529 -29 l 29 0 l 29 14 l 44 14 q 89 29 74 14 q 117 86 117 56 l 117 746 q 95 799 117 778 q 44 819 74 819 l 29 819 l 29 833 l 571 833 q 649 840 606 833 q 708 854 692 847 l 708 592 l 694 592 l 694 599 q 652 724 694 679 q 532 769 610 768 l 389 769 l 389 443 l 496 443 q 595 484 557 444 q 633 586 633 524 l 633 589 l 647 589 l 647 231 l 633 231 l 633 236 q 595 338 633 297 q 496 378 557 378 l 389 378 l 389 64 l 522 64 q 674 125 606 64 q 767 292 742 186 l 779 292 l 740 0 l 738 0 q 650 -96 650 -21 q 706 -190 650 -169 q 744 -196 719 -196 q 806 -167 769 -196 l 814 -175 q 729 -289 808 -264 q 669 -296 704 -296 q 590 -265 635 -296 q 529 -150 529 -222 z "},"Ě":{"ha":926,"x_min":42,"x_max":907,"o":"m 481 1061 l 464 1061 l 229 1304 l 239 1315 l 472 1226 l 692 1315 l 701 1304 l 481 1061 m 60 14 q 122 40 96 14 q 149 101 147 65 l 149 871 q 111 942 147 915 q 60 958 89 958 l 42 958 l 42 972 l 657 972 q 751 981 700 972 q 822 997 801 989 l 822 711 l 808 711 l 808 722 q 728 878 808 833 q 635 901 689 900 l 433 901 l 433 514 l 585 514 q 693 558 651 515 q 735 667 735 600 l 735 672 l 749 672 l 749 286 l 735 286 l 735 293 q 693 401 735 358 q 586 444 651 443 l 433 444 l 433 71 l 604 71 q 783 138 706 71 q 893 322 861 204 l 907 322 l 854 0 l 42 0 l 42 14 l 60 14 z "},"ě":{"ha":799,"x_min":29,"x_max":779,"o":"m 410 922 l 392 922 l 158 1167 l 168 1178 l 401 1089 l 621 1178 l 631 1167 l 410 922 m 29 0 l 29 14 l 44 14 q 89 29 74 14 q 117 86 117 56 l 117 746 q 95 799 117 778 q 44 819 74 819 l 29 819 l 29 833 l 571 833 q 649 840 606 833 q 708 854 692 847 l 708 592 l 694 592 l 694 599 q 652 724 694 679 q 532 769 610 768 l 389 769 l 389 443 l 496 443 q 595 484 557 444 q 633 586 633 524 l 633 589 l 647 589 l 647 231 l 633 231 l 633 236 q 595 338 633 297 q 496 378 557 378 l 389 378 l 389 64 l 522 64 q 674 125 606 64 q 767 292 742 186 l 779 292 l 740 0 l 29 0 z "},"Ğ":{"ha":1196,"x_min":47,"x_max":1179,"o":"m 790 1246 q 744 1131 790 1182 q 591 1061 685 1061 q 438 1131 497 1061 q 393 1246 393 1183 q 397 1289 393 1267 l 415 1289 q 481 1225 432 1250 q 591 1200 531 1200 q 701 1225 651 1200 q 768 1289 751 1250 l 786 1289 q 790 1246 790 1267 m 590 -19 q 195 116 342 -19 q 49 488 49 251 q 196 858 49 725 q 604 992 343 992 q 836 973 717 992 q 1018 928 956 954 l 1004 663 l 992 663 q 674 922 919 922 q 354 475 354 922 q 420 161 354 272 q 621 50 486 50 q 749 90 694 50 q 804 199 804 129 l 806 389 q 787 435 806 419 q 735 451 768 451 l 713 451 l 713 465 l 1179 465 l 1179 451 l 1158 451 q 1106 435 1124 451 q 1089 389 1088 419 l 1089 160 q 807 8 1011 61 q 590 -19 701 -19 z "},"ğ":{"ha":1004,"x_min":32,"x_max":999,"o":"m 706 1124 q 660 1008 706 1060 q 506 939 600 939 q 353 1008 413 939 q 308 1124 308 1061 q 313 1167 308 1144 l 331 1167 q 397 1103 347 1128 q 506 1078 446 1078 q 617 1103 567 1078 q 683 1167 667 1128 l 700 1167 q 706 1124 706 1144 m 756 31 q 694 7 756 31 q 492 -17 632 -17 q 250 35 353 -17 q 90 185 147 86 q 33 419 33 283 q 158 736 33 622 q 507 850 282 850 q 707 835 601 850 q 864 800 813 821 l 844 564 l 835 564 q 578 788 772 788 q 380 691 443 788 q 317 406 317 594 q 524 46 317 46 q 617 78 581 46 q 654 157 654 111 q 653 178 654 167 l 653 333 q 638 374 653 360 q 594 389 622 389 l 575 389 l 575 400 l 999 400 l 999 389 l 982 389 q 922 333 922 389 l 922 136 q 756 31 879 78 z "},"Ġ":{"ha":1196,"x_min":47,"x_max":1179,"o":"m 665 1091 q 650 1076 665 1091 q 592 1061 635 1061 q 519 1091 549 1061 q 489 1163 489 1121 q 519 1235 489 1206 q 592 1265 549 1265 q 665 1235 635 1265 q 694 1163 694 1206 q 665 1091 694 1121 m 590 -19 q 195 116 342 -19 q 49 488 49 251 q 196 858 49 725 q 604 992 343 992 q 836 973 717 992 q 1018 928 956 954 l 1004 663 l 992 663 q 674 922 919 922 q 354 475 354 922 q 420 161 354 272 q 621 50 486 50 q 749 90 694 50 q 804 199 804 129 l 806 389 q 787 435 806 419 q 735 451 768 451 l 713 451 l 713 465 l 1179 465 l 1179 451 l 1158 451 q 1106 435 1124 451 q 1089 389 1088 419 l 1089 160 q 807 8 1011 61 q 590 -19 701 -19 z "},"ġ":{"ha":1004,"x_min":32,"x_max":999,"o":"m 580 969 q 565 954 580 969 q 507 939 550 939 q 434 969 464 939 q 404 1041 404 999 q 434 1113 404 1083 q 507 1143 464 1143 q 580 1113 550 1143 q 610 1041 610 1083 q 580 969 610 999 m 756 31 q 694 7 756 31 q 492 -17 632 -17 q 250 35 353 -17 q 90 185 147 86 q 33 419 33 283 q 158 736 33 622 q 507 850 282 850 q 707 835 601 850 q 864 800 813 821 l 844 564 l 835 564 q 578 788 772 788 q 380 691 443 788 q 317 406 317 594 q 524 46 317 46 q 618 78 581 46 q 656 157 656 111 q 653 178 656 167 l 653 333 q 638 374 653 360 q 594 389 622 389 l 575 389 l 575 400 l 999 400 l 999 389 l 982 389 q 922 333 922 389 l 922 136 q 756 31 879 78 z "},"Ģ":{"ha":1196,"x_min":47,"x_max":1179,"o":"m 590 -19 q 195 116 342 -19 q 49 488 49 251 q 196 858 49 725 q 604 992 343 992 q 836 973 717 992 q 1018 928 956 954 l 1004 663 l 992 663 q 674 922 919 922 q 354 475 354 922 q 420 161 354 272 q 621 50 486 50 q 749 90 694 50 q 804 199 804 129 l 806 389 q 787 435 806 419 q 735 451 768 451 l 713 451 l 713 465 l 1179 465 l 1179 451 l 1158 451 q 1106 435 1124 451 q 1089 389 1088 419 l 1089 160 q 807 8 1011 61 q 590 -19 701 -19 m 532 -367 q 576 -309 576 -347 q 551 -242 576 -271 q 526 -178 526 -214 q 558 -106 526 -129 q 601 -89 581 -89 q 699 -146 672 -89 q 714 -200 714 -178 q 709 -251 714 -222 q 681 -315 704 -279 q 625 -366 658 -350 q 570 -382 592 -382 q 536 -379 549 -382 l 532 -367 z "},"ģ":{"ha":1004,"x_min":32,"x_max":999,"o":"m 756 31 q 694 7 756 31 q 492 -17 632 -17 q 250 35 353 -17 q 90 185 147 86 q 33 419 33 283 q 158 736 33 622 q 507 850 282 850 q 707 835 601 850 q 864 800 813 821 l 844 564 l 835 564 q 578 788 772 788 q 380 691 443 788 q 317 406 317 594 q 524 46 317 46 q 617 78 581 46 q 654 157 654 111 q 653 178 654 167 l 653 333 q 638 374 653 360 q 594 389 622 389 l 575 389 l 575 400 l 999 400 l 999 389 l 982 389 q 922 333 922 389 l 922 136 q 756 31 879 78 m 429 -367 q 474 -309 474 -347 q 449 -242 474 -271 q 424 -178 424 -214 q 457 -106 424 -129 q 499 -89 479 -89 q 597 -146 571 -89 q 613 -200 613 -178 q 608 -251 613 -222 q 580 -315 603 -279 q 523 -366 557 -350 q 468 -382 489 -382 q 433 -379 447 -382 l 429 -367 z "},"Ħ":{"ha":1240,"x_min":40,"x_max":1200,"o":"m 718 14 q 780 39 754 14 q 807 100 806 64 l 807 451 l 433 451 l 433 101 q 478 25 435 50 q 522 14 499 14 l 540 14 l 540 0 l 42 0 l 42 14 l 60 14 q 122 40 96 14 q 149 101 147 65 l 149 678 l 58 678 l 58 747 l 149 747 l 149 872 q 122 933 147 908 q 60 958 96 958 l 42 958 l 42 972 l 540 972 l 540 958 l 522 958 q 460 933 486 958 q 433 872 435 908 l 433 747 l 807 747 l 807 872 q 780 933 806 908 q 718 958 754 958 l 700 958 l 700 972 l 1199 972 l 1199 958 l 1181 958 q 1104 915 1131 958 q 1092 871 1093 894 l 1092 747 l 1185 747 l 1185 678 l 1092 678 l 1092 101 q 1119 40 1093 65 q 1181 14 1144 14 l 1199 14 l 1199 0 l 700 0 l 700 14 l 718 14 m 433 521 l 807 521 l 807 678 l 433 678 l 433 521 z "},"ħ":{"ha":1046,"x_min":28,"x_max":1019,"o":"m 931 747 l 931 642 l 1014 642 l 1014 579 l 931 579 l 931 86 q 951 35 931 56 q 1003 14 972 14 l 1018 14 l 1018 0 l 572 0 l 572 14 l 586 14 q 638 35 617 14 q 660 86 658 56 l 660 386 l 389 386 l 389 86 q 435 19 390 38 q 463 14 447 14 l 476 14 l 476 0 l 29 0 l 29 14 l 44 14 q 89 29 74 14 q 117 86 117 56 l 117 579 l 35 579 l 35 642 l 117 642 l 117 747 q 95 799 117 778 q 44 819 74 819 l 29 819 l 29 833 l 476 833 l 476 819 l 463 819 q 411 799 432 819 q 389 747 390 778 l 389 642 l 660 642 l 660 747 q 638 799 658 778 q 586 819 617 819 l 572 819 l 572 833 l 1019 833 l 1019 819 l 1004 819 q 940 783 963 819 q 931 747 931 767 m 660 450 l 660 579 l 389 579 l 389 450 l 660 450 z "},"Ī":{"ha":581,"x_min":40,"x_max":540,"o":"m 92 1104 l 92 1222 l 494 1222 l 494 1104 l 92 1104 m 60 14 q 122 40 96 14 q 149 101 147 65 l 149 872 q 122 933 147 908 q 60 958 96 958 l 42 958 l 42 972 l 540 972 l 540 958 l 522 958 q 460 933 486 958 q 433 872 435 908 l 433 101 q 460 40 433 65 q 522 14 486 14 l 540 14 l 540 0 l 42 0 l 42 14 l 60 14 z "},"ī":{"ha":503,"x_min":28,"x_max":475,"o":"m 51 967 l 51 1085 l 454 1085 l 454 967 l 51 967 m 460 14 l 475 14 l 475 0 l 29 0 l 29 14 l 44 14 q 94 35 74 14 q 115 86 115 56 l 115 747 q 94 799 115 778 q 44 819 74 819 l 29 819 l 29 833 l 474 833 l 474 819 l 460 819 q 399 785 418 819 q 388 747 389 768 l 388 86 q 418 28 389 49 q 460 14 436 14 z "},"Į":{"ha":581,"x_min":40,"x_max":540,"o":"m 360 -199 q 421 -169 385 -199 l 429 -178 q 344 -292 424 -267 q 285 -299 321 -299 q 206 -268 250 -299 q 144 -153 144 -225 q 168 -65 144 -99 q 281 0 210 -11 l 42 0 l 42 14 l 60 14 q 122 40 96 14 q 149 101 147 65 l 149 872 q 122 933 147 908 q 60 958 96 958 l 42 958 l 42 972 l 540 972 l 540 958 l 522 958 q 460 933 486 958 q 433 872 435 908 l 433 101 q 460 40 433 65 q 522 14 486 14 l 540 14 l 540 0 l 347 0 l 356 -3 q 265 -97 265 -22 q 360 -199 265 -199 z "},"į":{"ha":503,"x_min":28,"x_max":475,"o":"m 126 -150 q 249 0 126 -29 l 29 0 l 29 13 l 44 11 q 106 49 85 11 q 115 86 115 67 l 115 747 q 94 801 115 779 q 44 822 72 822 l 29 822 l 29 833 l 475 833 l 474 822 l 460 822 q 410 800 431 822 q 388 747 389 778 l 388 86 q 410 33 389 56 q 460 11 431 11 l 475 13 l 475 0 l 335 0 q 247 -96 247 -21 q 303 -190 247 -169 q 342 -196 318 -196 q 403 -167 367 -196 l 411 -175 q 326 -289 406 -264 q 267 -296 303 -296 q 188 -265 232 -296 q 126 -150 126 -222 z "},"İ":{"ha":581,"x_min":40,"x_max":540,"o":"m 362 1091 q 347 1076 362 1091 q 290 1061 332 1061 q 217 1091 247 1061 q 188 1163 188 1121 q 217 1235 188 1206 q 290 1265 247 1265 q 362 1235 332 1265 q 392 1163 392 1206 q 362 1091 392 1121 m 60 14 q 122 40 96 14 q 149 101 147 65 l 149 872 q 122 933 147 908 q 60 958 96 958 l 42 958 l 42 972 l 540 972 l 540 958 l 522 958 q 460 933 486 958 q 433 872 435 908 l 433 101 q 460 40 433 65 q 522 14 486 14 l 540 14 l 540 0 l 42 0 l 42 14 l 60 14 z "},"ı":{"ha":503,"x_min":28,"x_max":475,"o":"m 460 14 l 475 14 l 475 0 l 29 0 l 29 14 l 44 14 q 94 35 74 14 q 115 86 115 56 l 115 747 q 94 799 115 778 q 44 819 74 819 l 29 819 l 29 833 l 474 833 l 474 819 l 460 819 q 399 785 418 819 q 388 747 389 768 l 388 86 q 410 35 389 56 q 460 14 431 14 z "},"Ĳ":{"ha":1169,"x_min":40,"x_max":1129,"o":"m 1110 958 q 1033 915 1060 958 q 1021 871 1022 896 l 1021 69 q 956 -131 1021 -44 q 789 -254 892 -217 q 636 -282 715 -282 q 574 -278 606 -282 l 574 -265 q 736 74 736 -192 l 736 871 q 709 933 735 907 q 647 958 683 958 l 629 958 l 629 972 l 1128 972 l 1128 958 l 1110 958 m 60 14 q 122 40 96 14 q 149 101 147 65 l 149 872 q 122 933 147 908 q 60 958 96 958 l 42 958 l 42 972 l 540 972 l 540 958 l 522 958 q 460 933 486 958 q 433 872 435 908 l 433 101 q 478 25 435 50 q 522 14 499 14 l 540 14 l 540 0 l 42 0 l 42 14 l 60 14 z "},"ĳ":{"ha":1006,"x_min":29,"x_max":979,"o":"m 460 14 l 475 14 l 475 0 l 29 0 l 29 14 l 44 14 q 94 35 74 14 q 115 86 115 56 l 115 747 q 94 799 115 778 q 44 819 74 819 l 29 819 l 29 833 l 474 833 l 474 819 l 460 819 q 399 785 418 819 q 388 747 389 768 l 388 86 q 410 35 389 56 q 460 14 431 14 m 963 819 q 912 798 933 819 q 888 746 890 776 l 888 71 q 828 -110 888 -33 q 679 -221 769 -187 q 565 -243 614 -243 q 486 -239 517 -243 l 486 -226 q 596 -97 571 -186 q 615 75 615 -25 l 615 743 q 593 797 615 775 q 540 819 571 819 l 526 819 l 525 833 l 978 833 l 978 819 l 963 819 z "},"Ķ":{"ha":1142,"x_min":40,"x_max":1178,"o":"m 60 14 q 122 40 96 14 q 149 101 147 65 l 149 872 q 122 933 147 908 q 60 958 96 958 l 42 958 l 42 972 l 540 972 l 540 958 l 522 958 q 460 933 486 958 q 433 872 435 908 l 433 101 q 478 25 435 51 q 522 14 499 14 l 540 14 l 540 0 l 42 0 l 42 14 l 60 14 m 1178 0 l 1028 0 q 671 139 772 0 q 553 317 629 194 q 478 442 478 440 l 810 894 q 819 919 819 908 q 815 939 819 931 q 776 960 806 960 l 763 960 l 763 972 l 1097 972 l 1097 960 l 1092 960 q 939 892 999 960 l 704 608 l 1029 119 q 1178 14 1097 17 l 1178 0 m 568 -278 q 611 -220 611 -258 q 586 -153 611 -182 q 561 -89 561 -125 q 594 -17 561 -40 q 636 0 617 0 q 735 -57 708 0 q 750 -111 750 -89 q 745 -162 750 -133 q 717 -226 740 -190 q 660 -277 694 -261 q 606 -293 626 -293 q 571 -290 585 -293 l 568 -278 z "},"ķ":{"ha":979,"x_min":31,"x_max":1025,"o":"m 465 14 l 479 14 l 479 0 l 32 0 l 32 14 l 46 14 q 97 35 76 14 q 119 86 118 56 l 119 749 q 97 800 118 779 q 46 821 75 821 l 31 821 l 31 835 l 479 835 l 479 821 l 465 821 q 413 800 435 821 q 392 747 392 779 l 392 86 q 429 24 392 44 q 465 14 446 14 m 882 0 l 867 0 q 561 125 651 0 q 474 274 522 178 q 426 372 426 371 l 703 767 q 709 805 718 788 q 676 822 700 822 l 665 822 l 665 835 l 949 835 l 949 822 l 943 822 q 822 771 871 822 l 636 538 l 899 108 q 1025 11 957 14 l 1025 0 l 882 0 m 451 -368 q 496 -310 496 -349 q 471 -244 496 -272 q 446 -179 446 -215 q 478 -107 446 -131 q 521 -90 500 -90 q 618 -147 592 -90 q 635 -201 635 -179 q 629 -252 635 -224 q 601 -316 624 -281 q 544 -367 578 -351 q 490 -383 511 -383 q 456 -381 469 -383 l 451 -368 z "},"Ĺ":{"ha":906,"x_min":42,"x_max":907,"o":"m 268 1057 l 258 1067 q 431 1286 299 1161 q 474 1325 453 1307 q 592 1186 563 1288 q 432 1103 522 1140 q 268 1057 342 1065 m 60 14 q 122 40 96 14 q 149 101 147 65 l 149 871 q 122 933 147 907 q 60 958 96 958 l 42 958 l 42 972 l 540 972 l 540 958 l 522 958 q 460 933 486 958 q 433 871 433 907 l 433 71 l 604 71 q 783 138 706 71 q 893 322 861 204 l 907 322 l 854 0 l 42 0 l 42 14 l 60 14 z "},"ĺ":{"ha":774,"x_min":29,"x_max":781,"o":"m 235 918 l 225 928 q 315 1062 250 989 q 439 1186 379 1135 q 557 1047 528 1149 q 397 964 488 1001 q 235 918 307 926 m 740 0 l 29 0 l 29 14 l 44 14 q 95 35 74 14 q 117 86 117 56 l 117 747 q 95 799 117 778 q 44 819 74 819 l 29 819 l 29 833 l 478 833 l 478 819 l 463 819 q 411 799 432 819 q 389 747 390 778 l 389 64 l 522 64 q 673 125 606 64 q 767 292 740 186 l 781 292 l 740 0 z "},"Ļ":{"ha":906,"x_min":42,"x_max":907,"o":"m 60 14 q 122 40 96 14 q 149 101 147 65 l 149 871 q 104 947 147 922 q 60 958 83 958 l 42 958 l 42 972 l 540 972 l 540 958 l 522 958 q 460 933 486 958 q 433 871 433 907 l 433 71 l 604 71 q 783 138 706 71 q 893 322 861 204 l 907 322 l 854 0 l 42 0 l 42 14 l 60 14 m 406 -367 q 450 -309 450 -347 q 425 -242 450 -271 q 400 -178 400 -214 q 433 -106 400 -129 q 475 -89 456 -89 q 574 -146 547 -89 q 589 -200 589 -178 q 584 -251 589 -222 q 556 -315 579 -279 q 499 -366 533 -350 q 444 -382 465 -382 q 410 -379 424 -382 l 406 -367 z "},"ļ":{"ha":774,"x_min":29,"x_max":781,"o":"m 740 0 l 29 0 l 29 14 l 44 14 q 95 35 74 14 q 117 86 117 56 l 117 747 q 95 799 117 778 q 44 819 74 819 l 29 819 l 29 833 l 478 833 l 478 819 l 463 819 q 396 776 414 819 q 389 747 389 763 l 389 64 l 522 64 q 673 125 606 64 q 767 292 740 186 l 781 292 l 740 0 m 299 -368 q 343 -310 343 -349 q 318 -244 343 -272 q 293 -179 293 -215 q 325 -107 293 -131 q 368 -90 347 -90 q 465 -147 440 -90 q 482 -201 482 -179 q 477 -252 482 -224 q 449 -316 472 -281 q 392 -367 425 -351 q 338 -383 358 -383 q 303 -381 317 -383 l 299 -368 z "},"Ľ":{"ha":906,"x_min":42,"x_max":907,"o":"m 600 707 q 643 765 643 726 q 618 831 643 803 q 593 896 593 860 q 626 968 593 944 q 668 985 649 985 q 767 928 740 985 q 782 874 782 896 q 777 823 782 851 q 749 759 772 794 q 692 708 726 724 q 638 692 658 692 q 603 694 617 692 l 600 707 m 60 14 q 122 40 96 14 q 149 101 147 65 l 149 871 q 104 947 147 922 q 60 958 83 958 l 42 958 l 42 972 l 540 972 l 540 958 l 522 958 q 460 933 486 958 q 433 871 433 907 l 433 71 l 604 71 q 783 138 706 71 q 893 322 861 204 l 907 322 l 854 0 l 42 0 l 42 14 l 60 14 z "},"ľ":{"ha":774,"x_min":29,"x_max":781,"o":"m 544 554 q 588 612 588 574 q 563 678 588 650 q 538 743 538 707 q 571 815 538 792 q 613 832 593 832 q 711 775 685 832 q 726 721 726 743 q 722 670 726 699 q 694 606 717 642 q 637 555 671 571 q 582 539 603 539 q 547 542 561 539 l 544 554 m 29 0 l 29 14 l 44 14 q 95 35 74 14 q 117 86 117 56 l 117 747 q 95 799 117 778 q 44 819 74 819 l 29 819 l 29 833 l 478 833 l 478 819 l 463 819 q 396 776 414 819 q 389 747 389 763 l 389 64 l 522 64 q 673 125 606 64 q 767 292 740 186 l 781 292 l 740 0 l 29 0 z "},"Ŀ":{"ha":906,"x_min":42,"x_max":907,"o":"m 60 14 q 122 40 96 14 q 149 101 147 65 l 149 871 q 104 947 147 922 q 60 958 83 958 l 42 958 l 42 972 l 540 972 l 540 958 l 522 958 q 460 933 486 958 q 433 871 433 907 l 433 71 l 604 71 q 783 138 706 71 q 893 322 861 204 l 907 322 l 854 0 l 42 0 l 42 14 l 60 14 m 723 485 q 708 469 723 485 q 651 454 693 454 q 578 485 608 454 q 549 558 549 515 q 578 630 549 600 q 651 660 608 660 q 723 630 693 660 q 753 558 753 600 q 723 485 753 515 z "},"ŀ":{"ha":774,"x_min":29,"x_max":781,"o":"m 29 0 l 29 14 l 44 14 q 95 35 74 14 q 117 86 117 56 l 117 747 q 95 799 117 778 q 44 819 74 819 l 29 819 l 29 833 l 478 833 l 478 819 l 463 819 q 396 776 414 819 q 389 747 389 763 l 389 64 l 522 64 q 673 125 606 64 q 767 292 740 186 l 781 292 l 740 0 l 29 0 m 674 463 q 659 448 674 463 q 602 433 644 433 q 530 463 560 433 q 500 535 500 493 q 530 608 500 578 q 602 638 560 638 q 674 608 644 638 q 704 535 704 578 q 674 463 704 493 z "},"Ł":{"ha":906,"x_min":24,"x_max":907,"o":"m 60 14 q 122 40 96 14 q 149 101 147 65 l 149 367 l 61 317 l 25 381 l 149 451 l 149 871 q 104 947 147 922 q 60 958 83 958 l 42 958 l 42 972 l 540 972 l 540 958 l 522 958 q 460 933 486 958 q 433 871 433 907 l 433 617 l 540 679 l 576 615 l 433 532 l 433 71 l 604 71 q 783 138 706 71 q 893 322 861 204 l 907 322 l 854 0 l 42 0 l 42 14 l 60 14 z "},"ł":{"ha":833,"x_min":10,"x_max":781,"o":"m 29 0 l 29 14 l 44 14 q 95 35 74 14 q 117 86 117 56 l 117 339 l 47 303 l 11 367 l 117 422 l 117 747 q 95 799 117 778 q 44 819 74 819 l 29 819 l 29 833 l 478 833 l 478 819 l 463 819 q 396 776 414 819 q 389 747 389 763 l 389 565 l 499 624 l 535 560 l 389 482 l 389 64 l 522 64 q 673 125 606 64 q 767 292 740 186 l 781 292 l 740 0 l 29 0 z "},"Ń":{"ha":1224,"x_min":28,"x_max":1197,"o":"m 549 1057 l 539 1067 q 629 1201 565 1128 q 754 1325 693 1274 q 872 1186 843 1288 q 713 1103 803 1140 q 549 1057 622 1065 m 1171 958 q 1111 934 1136 958 q 1085 875 1086 910 l 1085 158 q 1099 0 1085 56 l 1103 -19 l 1090 -19 l 425 572 l 425 99 q 468 25 425 49 q 510 14 488 14 l 536 14 l 536 0 l 28 0 l 28 14 l 54 14 q 114 38 89 14 q 139 99 139 63 l 139 819 q 125 974 139 917 l 121 993 l 135 993 l 800 401 l 800 874 q 774 934 799 910 q 714 958 749 958 l 688 958 l 688 972 l 1196 972 l 1196 958 l 1171 958 z "},"ń":{"ha":1082,"x_min":17,"x_max":1068,"o":"m 479 918 l 469 928 q 560 1062 496 989 q 685 1186 625 1135 q 803 1047 774 1149 q 643 964 733 1001 q 479 918 553 926 m 1067 819 l 1043 819 q 989 800 1011 819 q 967 751 967 781 l 967 135 q 979 -1 967 44 l 983 -17 l 971 -17 l 388 474 l 388 83 q 410 34 389 54 q 464 14 432 14 l 486 14 l 486 0 l 17 0 l 17 14 l 39 14 q 93 34 71 14 q 115 83 115 54 l 115 704 q 103 836 115 788 l 99 851 l 111 851 l 693 360 l 693 750 q 672 799 693 779 q 618 819 650 819 l 594 819 l 594 833 l 1067 833 l 1067 819 z "},"Ņ":{"ha":1224,"x_min":26,"x_max":1197,"o":"m 1171 958 q 1111 934 1136 958 q 1085 875 1086 910 l 1085 158 q 1099 0 1085 56 l 1103 -19 l 1090 -19 l 425 572 l 425 99 q 468 25 425 49 q 510 14 488 14 l 536 14 l 536 0 l 28 0 l 28 14 l 54 14 q 114 38 89 14 q 139 99 139 63 l 139 819 q 125 974 139 917 l 121 993 l 135 993 l 800 401 l 800 874 q 774 934 799 910 q 714 958 749 958 l 688 958 l 688 972 l 1196 972 l 1196 958 l 1171 958 m 619 -367 q 664 -309 664 -347 q 639 -242 664 -271 q 614 -178 614 -214 q 647 -106 614 -129 q 689 -89 669 -89 q 788 -146 761 -89 q 803 -200 803 -178 q 798 -251 803 -222 q 770 -315 793 -279 q 713 -366 747 -350 q 658 -382 679 -382 q 624 -379 638 -382 l 619 -367 z "},"ņ":{"ha":1082,"x_min":17,"x_max":1068,"o":"m 1067 819 l 1043 819 q 989 800 1011 819 q 967 751 967 781 l 967 135 q 979 -1 967 44 l 983 -17 l 971 -17 l 388 474 l 388 83 q 410 34 389 54 q 464 14 432 14 l 486 14 l 486 0 l 17 0 l 17 14 l 39 14 q 93 34 71 14 q 115 83 115 54 l 115 704 q 103 836 115 788 l 99 851 l 111 851 l 693 360 l 693 750 q 672 799 693 779 q 618 819 650 819 l 594 819 l 594 833 l 1067 833 l 1067 819 m 554 -368 q 599 -310 599 -349 q 574 -244 599 -272 q 549 -179 549 -215 q 581 -107 549 -131 q 624 -90 603 -90 q 721 -147 694 -90 q 736 -201 736 -179 q 731 -252 736 -224 q 703 -316 726 -281 q 647 -367 681 -351 q 592 -383 614 -383 q 558 -381 571 -383 l 554 -368 z "},"Ň":{"ha":1224,"x_min":26,"x_max":1197,"o":"m 582 1061 l 565 1061 l 331 1304 l 340 1315 l 574 1226 l 793 1315 l 803 1304 l 582 1061 m 1171 958 q 1111 934 1136 958 q 1085 875 1086 910 l 1085 158 q 1099 0 1085 56 l 1103 -19 l 1090 -19 l 425 572 l 425 99 q 468 25 425 49 q 510 14 488 14 l 536 14 l 536 0 l 28 0 l 28 14 l 54 14 q 114 38 89 14 q 139 99 139 63 l 139 819 q 125 974 139 917 l 121 993 l 135 993 l 800 401 l 800 874 q 774 934 799 910 q 714 958 749 958 l 688 958 l 688 972 l 1196 972 l 1196 958 l 1171 958 z "},"ň":{"ha":1082,"x_min":17,"x_max":1068,"o":"m 513 922 l 496 922 l 261 1167 l 271 1178 l 506 1088 l 724 1176 l 733 1165 l 513 922 m 1067 819 l 1043 819 q 989 800 1011 819 q 967 751 967 781 l 967 135 q 979 -1 967 44 l 983 -17 l 971 -17 l 388 474 l 388 83 q 410 34 389 54 q 464 14 432 14 l 486 14 l 486 0 l 17 0 l 17 14 l 39 14 q 93 34 71 14 q 115 83 115 54 l 115 704 q 103 836 115 788 l 99 851 l 111 851 l 693 360 l 693 750 q 672 799 693 779 q 618 819 650 819 l 594 819 l 594 833 l 1067 833 l 1067 819 z "},"Ŋ":{"ha":1238,"x_min":26,"x_max":1197,"o":"m 1171 958 q 1114 936 1138 958 q 1090 882 1090 914 l 1090 -19 q 1031 -183 1086 -115 q 794 -289 944 -289 q 699 -276 749 -289 l 692 -265 q 750 -213 732 -233 q 785 -158 768 -193 q 808 -72 803 -122 q 814 58 814 -22 l 814 226 l 411 585 l 411 99 q 454 25 411 49 q 496 14 474 14 l 522 14 l 522 0 l 28 0 l 28 14 l 54 14 q 114 38 89 14 q 139 99 139 63 l 139 819 q 125 974 139 917 l 121 993 l 136 992 l 814 389 l 814 874 q 788 934 813 910 q 728 958 763 958 l 701 958 l 701 972 l 1196 972 l 1196 958 l 1171 958 z "},"ŋ":{"ha":1082,"x_min":17,"x_max":1089,"o":"m 1088 819 l 1064 819 q 1012 799 1031 819 q 993 750 993 779 l 993 22 q 942 -150 993 -78 q 711 -261 861 -261 q 615 -249 665 -261 l 608 -237 q 667 -185 649 -206 q 702 -130 685 -165 q 725 -44 719 -94 q 731 86 731 6 l 731 186 l 376 483 l 376 83 q 415 22 378 42 q 453 14 432 14 l 475 14 l 475 0 l 17 0 l 17 14 l 39 14 q 93 34 71 14 q 115 83 115 54 l 115 704 q 103 836 115 788 l 99 851 l 111 851 l 731 331 l 731 751 q 708 800 729 781 q 656 819 686 819 l 632 819 l 632 833 l 1088 833 l 1088 819 z "},"Ō":{"ha":1257,"x_min":47,"x_max":1203,"o":"m 428 1124 l 428 1242 l 831 1242 l 831 1124 l 428 1124 m 625 992 q 934 932 804 992 q 1133 758 1064 872 q 1203 486 1203 643 q 1049 115 1203 249 q 625 -19 894 -19 q 202 115 356 -19 q 49 486 49 249 q 202 858 49 724 q 625 992 356 992 m 427 165 q 463 108 427 165 q 626 50 499 50 q 824 165 753 50 q 896 486 896 281 q 824 807 896 692 q 626 922 753 922 q 427 807 499 922 q 356 486 356 692 q 427 165 356 281 z "},"ō":{"ha":1082,"x_min":35,"x_max":1047,"o":"m 344 967 l 344 1085 l 747 1085 l 747 967 l 344 967 m 35 417 q 35 519 35 417 q 169 736 35 622 q 541 850 303 850 q 913 736 779 850 q 1047 417 1047 622 q 913 97 1047 211 q 541 -17 779 -17 q 169 97 303 -17 q 35 417 35 211 m 318 417 q 318 328 318 417 q 375 142 318 239 q 540 46 432 46 q 706 142 649 46 q 763 415 763 239 q 663 743 763 656 q 540 788 613 788 q 375 691 432 788 q 318 417 318 594 z "},"Ő":{"ha":1257,"x_min":49,"x_max":1203,"o":"m 453 1081 l 443 1090 q 533 1224 469 1151 q 658 1349 597 1297 q 776 1210 747 1311 q 617 1126 707 1164 q 453 1081 526 1089 m 744 1081 l 735 1090 q 894 1297 772 1176 q 950 1349 924 1326 q 1068 1210 1039 1311 q 883 1116 972 1146 q 744 1081 793 1086 m 625 992 q 934 932 804 992 q 1133 758 1064 872 q 1203 486 1203 643 q 1049 115 1203 249 q 626 -19 896 -19 q 202 115 356 -19 q 49 486 49 249 q 202 858 49 724 q 625 992 356 992 m 427 165 q 463 108 427 165 q 626 50 499 50 q 824 165 753 50 q 896 486 896 281 q 824 807 896 692 q 626 922 753 922 q 427 807 499 922 q 356 486 356 692 q 427 165 356 281 z "},"ő":{"ha":1082,"x_min":35,"x_max":1049,"o":"m 368 924 l 358 933 q 419 1029 378 975 q 574 1192 489 1118 q 692 1053 663 1154 q 532 969 622 1007 q 368 924 442 932 m 661 924 l 651 933 q 741 1067 676 994 q 865 1192 806 1140 q 983 1053 954 1154 q 824 969 914 1007 q 661 924 733 932 m 35 417 q 35 519 35 417 q 169 736 35 622 q 541 850 303 850 q 913 736 779 850 q 1047 417 1047 622 q 913 97 1047 211 q 541 -17 779 -17 q 169 97 303 -17 q 35 417 35 211 m 318 417 q 318 328 318 417 q 375 142 318 239 q 540 46 432 46 q 706 142 649 46 q 763 415 763 239 q 663 743 763 656 q 540 788 613 788 q 375 691 432 788 q 318 417 318 594 z "},"Œ":{"ha":1586,"x_min":49,"x_max":1567,"o":"m 889 0 q 753 -10 835 0 q 621 -19 671 -19 q 203 116 358 -19 q 49 488 49 251 q 205 858 49 725 q 638 992 361 992 q 774 982 701 992 q 889 972 846 972 l 1317 972 q 1410 981 1360 972 q 1482 997 1461 989 l 1482 711 l 1468 711 l 1468 722 q 1388 878 1468 833 q 1294 901 1349 900 l 1093 901 l 1093 514 l 1244 514 q 1353 558 1311 515 q 1394 667 1394 600 l 1394 672 l 1408 672 l 1408 286 l 1394 286 l 1394 293 q 1324 424 1394 382 q 1246 444 1289 443 l 1093 444 l 1093 71 l 1264 71 q 1443 138 1365 71 q 1553 322 1521 204 l 1567 322 l 1514 0 l 889 0 m 642 922 q 426 808 510 922 q 343 488 343 693 q 424 166 343 282 q 640 50 506 50 q 760 81 713 50 q 807 144 807 111 l 807 828 q 761 891 807 860 q 642 922 715 922 z "},"œ":{"ha":1385,"x_min":35,"x_max":1374,"o":"m 536 -17 q 170 99 306 -17 q 35 421 35 215 q 96 653 35 556 q 274 801 157 750 q 551 853 390 853 q 663 844 603 853 q 761 836 724 836 l 1158 836 q 1300 858 1250 838 l 1300 600 l 1286 600 l 1286 607 q 1214 751 1286 710 q 1129 772 1179 771 l 965 772 l 965 443 l 1086 443 q 1184 483 1146 444 q 1222 583 1222 522 l 1222 588 l 1236 588 l 1236 238 l 1222 238 l 1222 242 q 1185 340 1222 301 q 1088 381 1147 379 l 965 381 l 965 64 l 1108 64 q 1303 167 1226 64 q 1360 288 1340 217 l 1374 288 l 1331 -1 l 725 -1 l 704 -3 q 653 -8 683 -4 q 536 -17 589 -17 m 556 790 q 378 693 447 790 q 308 414 308 596 q 376 143 308 240 q 554 46 443 46 q 658 74 618 46 q 697 131 697 101 l 697 706 q 658 762 697 733 q 556 790 619 790 z "},"Ŕ":{"ha":1101,"x_min":49,"x_max":1186,"o":"m 519 1057 l 510 1067 q 601 1201 536 1128 q 725 1325 665 1274 q 843 1186 814 1288 q 683 1103 774 1140 q 519 1057 593 1065 m 938 819 q 960 719 960 771 q 949 627 960 667 q 914 549 938 588 q 738 446 863 465 q 835 392 792 431 q 921 283 881 353 q 1103 36 1043 74 q 1186 14 1135 15 l 1186 0 l 1013 0 q 754 40 832 0 q 596 236 643 97 q 574 321 583 276 q 558 390 565 365 q 538 433 550 414 q 488 475 519 464 l 488 489 l 510 489 q 631 563 590 489 q 656 647 651 601 q 661 703 661 692 q 661 717 661 714 q 503 900 651 900 l 442 900 l 442 101 q 467 40 442 65 q 531 14 493 14 l 547 14 l 549 0 l 49 0 l 49 14 l 67 14 q 128 39 103 14 q 156 100 154 64 l 156 871 q 128 933 154 907 q 67 958 103 958 l 49 958 l 49 972 l 592 972 q 938 819 864 972 z "},"ŕ":{"ha":942,"x_min":44,"x_max":1024,"o":"m 442 918 l 432 928 q 592 1136 468 1015 q 646 1186 621 1164 q 765 1047 735 1149 q 579 954 668 983 q 442 918 490 925 m 839 604 q 804 471 839 532 q 661 382 764 400 q 751 333 710 369 q 805 272 792 296 q 833 219 818 249 q 961 29 914 60 q 1024 14 986 14 l 1024 0 l 860 0 q 681 18 722 0 q 598 74 624 43 q 549 147 572 106 q 488 329 511 211 q 442 408 474 392 l 442 419 l 449 419 q 517 455 488 419 q 554 571 546 490 q 554 579 554 572 q 543 683 561 642 q 511 738 525 724 q 475 758 497 751 q 432 767 451 767 l 404 767 l 404 86 q 453 18 404 36 q 478 14 465 14 l 490 14 l 490 0 l 44 0 l 44 14 l 60 14 q 110 35 89 14 q 131 86 131 56 l 131 747 q 110 799 131 778 q 61 819 90 819 l 44 819 l 44 833 l 522 833 q 839 604 839 833 z "},"Ŗ":{"ha":1101,"x_min":49,"x_max":1186,"o":"m 938 819 q 960 719 960 771 q 949 627 960 667 q 914 549 938 588 q 738 446 863 465 q 835 392 792 431 q 921 283 881 353 q 1081 54 1025 106 q 1186 14 1122 15 l 1186 0 l 1013 0 q 754 40 832 0 q 596 236 643 97 q 574 321 583 276 q 559 385 565 365 q 544 423 553 406 q 526 450 536 440 q 488 475 510 467 l 488 489 l 510 489 q 631 563 590 489 q 656 647 651 601 q 661 703 661 692 q 661 717 661 714 q 503 900 651 900 l 442 900 l 442 101 q 468 40 442 65 q 531 14 494 14 l 547 14 l 547 0 l 49 0 l 49 14 l 67 14 q 128 39 103 14 q 156 100 154 64 l 156 871 q 111 947 154 922 q 67 958 90 958 l 49 958 l 49 972 l 592 972 q 938 819 864 972 m 582 -367 q 625 -309 625 -347 q 600 -242 625 -271 q 575 -178 575 -214 q 608 -106 575 -129 q 650 -89 631 -89 q 749 -146 722 -89 q 764 -200 764 -178 q 759 -251 764 -222 q 731 -315 754 -279 q 674 -366 708 -350 q 619 -382 640 -382 q 585 -379 599 -382 l 582 -367 z "},"ŗ":{"ha":942,"x_min":44,"x_max":1024,"o":"m 839 604 q 804 471 839 532 q 661 382 764 400 q 751 333 710 369 q 805 272 792 296 q 832 219 818 249 q 961 29 914 60 q 1024 14 986 14 l 1024 0 l 860 0 q 681 18 722 0 q 598 74 624 43 q 549 147 572 106 q 488 329 511 211 q 442 408 474 392 l 442 419 l 449 419 q 517 455 488 419 q 554 571 546 490 q 554 579 554 572 q 543 683 561 642 q 511 738 525 724 q 475 758 497 751 q 432 767 451 767 l 404 767 l 404 86 q 427 33 404 51 q 478 14 450 14 l 490 14 l 490 0 l 44 0 l 44 14 l 60 14 q 110 35 89 14 q 131 86 131 56 l 131 747 q 110 799 131 778 q 61 819 90 819 l 44 819 l 44 833 l 522 833 q 839 604 839 833 m 500 -368 q 543 -310 543 -349 q 518 -244 543 -272 q 493 -179 493 -215 q 526 -107 493 -131 q 569 -90 549 -90 q 667 -147 640 -90 q 682 -202 682 -179 q 677 -253 682 -225 q 649 -317 672 -282 q 592 -367 626 -351 q 538 -383 558 -383 q 503 -381 517 -383 l 500 -368 z "},"Ř":{"ha":1101,"x_min":49,"x_max":1186,"o":"m 553 1061 l 536 1061 l 301 1304 l 311 1315 l 544 1226 l 764 1315 l 774 1304 l 553 1061 m 938 819 q 960 719 960 771 q 949 627 960 667 q 914 549 938 588 q 738 446 863 465 q 835 392 792 431 q 921 283 881 353 q 1081 54 1025 106 q 1186 14 1122 15 l 1186 0 l 1013 0 q 754 40 832 0 q 596 236 643 97 q 574 321 583 276 q 556 396 565 365 q 488 475 538 456 l 488 489 l 510 489 q 631 563 590 489 q 656 647 651 601 q 661 703 661 692 q 661 717 661 714 q 503 900 651 900 l 442 900 l 442 101 q 468 40 442 65 q 531 14 494 14 l 547 14 l 547 0 l 49 0 l 49 14 l 67 14 q 128 39 103 14 q 156 100 154 64 l 156 871 q 111 947 154 922 q 67 958 90 958 l 49 958 l 49 972 l 592 972 q 938 819 864 972 z "},"ř":{"ha":942,"x_min":44,"x_max":1024,"o":"m 474 922 l 457 922 l 222 1167 l 233 1178 l 467 1088 l 686 1178 l 696 1167 l 474 922 m 839 604 q 804 471 839 532 q 661 382 764 400 q 751 333 710 369 q 805 272 792 296 q 833 219 818 249 q 961 29 914 60 q 1024 14 986 14 l 1024 0 l 860 0 q 681 18 722 0 q 598 74 624 43 q 553 140 572 106 q 521 207 533 174 q 488 322 503 251 q 442 408 474 392 l 442 419 l 449 419 q 531 481 501 419 q 551 544 549 515 q 554 579 554 572 q 543 683 561 642 q 511 738 525 724 q 475 758 497 751 q 432 767 451 767 l 404 767 l 404 86 q 427 33 404 51 q 478 14 450 14 l 490 14 l 490 0 l 44 0 l 44 14 l 60 14 q 110 35 89 14 q 131 86 131 56 l 131 747 q 110 799 131 778 q 61 819 90 819 l 44 819 l 44 833 l 522 833 q 839 604 839 833 z "},"Ś":{"ha":896,"x_min":61,"x_max":842,"o":"m 421 1057 l 411 1067 q 502 1201 438 1128 q 626 1325 567 1274 q 744 1186 715 1288 q 585 1103 675 1140 q 421 1057 494 1065 m 842 314 q 842 230 842 314 q 722 63 842 146 q 404 -19 603 -19 q 201 6 289 -19 q 75 71 114 32 q 63 137 63 101 q 68 206 63 172 q 119 333 83 288 l 132 333 q 131 315 131 325 q 212 131 131 213 q 433 50 293 50 q 578 90 528 50 q 629 180 629 129 q 594 267 629 231 q 482 339 560 303 l 256 444 q 117 565 160 488 q 82 700 82 626 q 183 928 82 850 q 408 992 268 992 q 643 978 500 992 l 751 978 l 721 751 l 707 751 q 647 875 707 828 q 486 922 588 922 q 324 865 372 922 q 297 797 297 836 q 327 731 297 757 q 421 676 357 704 l 681 556 q 842 314 842 482 z "},"ś":{"ha":763,"x_min":54,"x_max":715,"o":"m 375 918 l 365 928 q 456 1062 392 989 q 581 1186 519 1135 q 699 1047 669 1149 q 539 964 629 1001 q 375 918 449 926 m 714 281 q 604 51 714 128 q 335 -17 507 -17 q 163 6 232 -17 q 68 63 94 29 q 56 124 56 92 q 61 185 56 156 q 110 300 76 258 l 118 300 q 118 288 118 293 q 185 121 118 194 q 372 47 253 47 q 479 79 443 47 q 515 153 515 111 q 483 226 515 194 q 376 290 450 258 l 231 358 q 100 468 142 396 q 68 590 68 524 q 71 635 68 613 q 335 850 101 850 q 544 838 413 850 l 638 838 l 604 635 l 596 635 q 547 744 596 703 q 424 785 497 785 q 272 693 282 785 q 306 622 268 649 q 386 582 335 603 l 565 500 q 676 411 639 468 q 714 281 714 354 z "},"Ş":{"ha":896,"x_min":61,"x_max":842,"o":"m 842 320 q 842 239 842 320 q 738 76 842 158 q 463 -18 635 -7 l 404 -85 q 438 -78 424 -78 q 466 -78 451 -78 q 508 -85 481 -78 q 553 -114 536 -93 q 569 -151 569 -135 q 525 -253 569 -215 q 386 -301 468 -301 q 307 -290 349 -301 l 308 -276 q 406 -248 360 -276 q 453 -164 453 -219 q 431 -125 453 -142 q 376 -110 407 -110 q 318 -118 344 -110 l 310 -104 l 376 -19 q 191 8 271 -17 q 75 71 111 33 q 63 137 63 101 q 68 206 63 172 q 119 333 83 288 l 132 333 q 131 315 131 325 q 212 131 131 213 q 433 50 293 50 q 578 90 528 50 q 629 180 629 129 q 594 267 629 231 q 482 339 560 303 l 256 444 q 117 565 160 488 q 82 700 82 626 q 183 928 82 850 q 408 992 268 992 q 643 978 500 992 l 751 978 l 721 751 l 707 751 q 647 875 707 828 q 495 922 588 922 q 352 890 403 922 q 297 806 301 858 q 381 694 292 740 q 421 676 396 686 l 681 556 q 842 320 842 482 z "},"ş":{"ha":721,"x_min":39,"x_max":699,"o":"m 699 281 q 616 74 699 146 q 397 -12 533 1 l 340 -78 q 374 -71 360 -71 q 402 -71 388 -71 q 444 -78 417 -71 q 489 -107 472 -86 q 506 -144 506 -128 q 461 -246 506 -208 q 322 -296 404 -296 q 243 -283 285 -296 l 244 -269 q 342 -241 296 -269 q 389 -157 389 -212 q 367 -118 389 -135 q 313 -103 344 -103 q 254 -111 281 -103 l 247 -97 l 308 -17 q 144 7 211 -15 q 51 63 78 29 q 40 124 40 92 q 46 185 40 156 q 94 300 61 258 l 101 300 q 101 288 101 293 q 169 121 101 194 q 357 47 236 47 q 463 79 428 47 q 499 153 499 111 q 467 226 499 194 q 361 290 435 258 l 215 358 q 83 468 125 396 q 53 590 53 524 q 56 635 53 613 q 319 850 86 850 q 529 838 397 850 l 622 838 l 589 635 l 579 635 q 531 744 579 703 q 408 785 482 785 q 257 693 267 785 q 290 622 253 649 q 369 582 318 603 l 550 500 q 661 411 624 468 q 699 281 699 354 z "},"Š":{"ha":896,"x_min":61,"x_max":842,"o":"m 454 1061 l 438 1061 l 203 1304 l 213 1315 l 446 1226 l 665 1315 l 675 1304 l 454 1061 m 842 314 q 842 230 842 314 q 722 63 842 146 q 404 -19 603 -19 q 201 6 289 -19 q 75 71 114 32 q 63 137 63 101 q 68 206 63 172 q 119 333 83 288 l 132 333 q 131 315 131 325 q 212 131 131 213 q 433 50 293 50 q 578 90 528 50 q 629 187 629 129 q 567 290 629 244 q 482 339 535 315 l 256 444 q 117 565 160 488 q 82 700 82 626 q 183 928 82 850 q 408 992 268 992 q 643 978 500 992 l 751 978 l 721 751 l 707 751 q 647 875 707 828 q 495 922 588 922 q 351 890 403 922 q 297 796 297 854 q 327 731 297 757 q 421 676 357 704 l 681 556 q 842 314 842 482 z "},"š":{"ha":763,"x_min":54,"x_max":715,"o":"m 408 922 l 392 922 l 157 1165 l 167 1176 l 400 1088 l 619 1176 l 629 1165 l 408 922 m 714 281 q 604 51 714 128 q 335 -17 507 -17 q 163 6 232 -17 q 68 63 94 29 q 56 124 56 92 q 61 185 56 156 q 110 300 76 258 l 118 300 q 118 288 118 293 q 185 121 118 194 q 372 47 253 47 q 479 79 443 47 q 515 153 515 111 q 483 226 515 194 q 376 290 450 258 l 231 358 q 100 468 142 396 q 68 590 68 524 q 71 635 68 613 q 335 850 101 850 q 544 838 413 850 l 638 838 l 604 635 l 596 635 q 547 744 596 703 q 424 785 497 785 q 272 693 282 785 q 306 622 268 649 q 386 582 335 603 l 565 500 q 676 411 639 468 q 714 281 714 354 z "},"Ţ":{"ha":969,"x_min":13,"x_max":957,"o":"m 628 904 l 628 100 q 655 39 629 64 q 717 14 681 14 l 735 14 l 735 0 l 513 0 l 454 -67 q 488 -60 474 -60 q 516 -60 501 -60 q 558 -67 531 -60 q 603 -96 586 -75 q 619 -133 619 -117 q 576 -235 619 -197 q 438 -285 518 -285 q 358 -272 399 -285 l 358 -258 q 456 -230 410 -258 q 503 -146 503 -201 q 481 -107 503 -124 q 368 -100 439 -78 l 361 -86 l 428 0 l 236 0 l 236 14 l 254 14 q 316 39 290 14 q 343 99 342 64 l 343 904 l 206 904 q 75 855 122 903 q 28 724 28 807 l 28 714 l 14 713 l 14 999 q 84 982 33 990 q 178 974 135 974 l 793 974 q 886 982 836 974 q 957 999 936 990 l 957 713 l 943 714 l 943 724 q 896 855 943 807 q 764 904 849 903 l 628 904 z "},"ţ":{"ha":851,"x_min":10,"x_max":842,"o":"m 842 594 l 828 594 l 828 601 q 753 749 829 708 q 664 769 717 769 l 561 769 l 561 86 q 599 24 561 43 q 635 14 615 14 l 649 14 l 649 0 l 457 0 l 400 -65 q 433 -58 419 -58 q 462 -58 447 -58 q 504 -66 476 -58 q 549 -94 532 -74 q 565 -132 565 -115 q 521 -233 565 -196 q 382 -282 463 -282 q 303 -271 343 -282 l 304 -257 q 401 -228 354 -257 q 449 -144 449 -200 q 426 -106 449 -122 q 372 -90 403 -90 q 313 -99 340 -90 l 306 -85 l 371 0 l 203 0 l 203 14 l 217 14 q 267 35 246 14 q 289 86 289 56 l 289 769 l 188 769 q 35 672 68 768 q 24 601 24 640 l 24 594 l 10 594 l 10 856 q 71 842 28 849 q 149 835 114 835 l 703 835 q 785 842 739 835 q 842 856 831 849 l 842 594 z "},"Ť":{"ha":969,"x_min":13,"x_max":957,"o":"m 496 1061 l 479 1061 l 244 1304 l 254 1315 l 488 1226 l 707 1315 l 717 1304 l 496 1061 m 628 904 l 628 100 q 655 39 629 64 q 717 14 681 14 l 735 14 l 735 0 l 236 0 l 236 14 l 254 14 q 316 39 290 14 q 343 99 342 64 l 343 904 l 206 904 q 75 855 122 903 q 28 724 28 807 l 28 714 l 14 713 l 14 999 q 84 982 33 990 q 178 974 135 974 l 793 974 q 898 984 853 975 q 957 999 943 993 l 957 713 l 943 714 l 943 724 q 860 882 943 836 q 764 904 819 903 l 628 904 z "},"ť":{"ha":850,"x_min":10,"x_max":842,"o":"m 440 932 l 424 932 l 189 1175 l 199 1186 l 432 1097 l 651 1186 l 661 1175 l 440 932 m 842 594 l 828 594 l 828 601 q 753 749 829 708 q 664 769 717 769 l 561 769 l 561 86 q 599 24 561 43 q 635 14 615 14 l 649 14 l 649 0 l 203 0 l 203 14 l 217 14 q 267 35 246 14 q 289 86 289 56 l 289 769 l 188 769 q 43 692 81 768 q 24 601 24 654 l 24 594 l 10 594 l 10 856 q 71 842 28 849 q 149 835 114 835 l 703 835 q 785 842 739 835 q 842 856 831 849 l 842 594 z "},"Ŧ":{"ha":969,"x_min":13,"x_max":957,"o":"m 628 904 l 628 560 l 836 560 l 836 490 l 628 490 l 628 100 q 655 39 629 64 q 717 14 681 14 l 735 14 l 735 0 l 236 0 l 236 14 l 254 14 q 316 39 290 14 q 343 99 342 64 l 343 490 l 133 490 l 133 560 l 343 560 l 343 904 l 206 904 q 75 855 122 903 q 28 724 28 807 l 28 714 l 14 713 l 14 999 q 84 982 33 990 q 178 974 135 974 l 793 974 q 886 982 836 974 q 957 999 936 990 l 957 713 l 943 714 l 943 724 q 896 855 943 807 q 764 904 849 903 l 628 904 z "},"ŧ":{"ha":861,"x_min":10,"x_max":842,"o":"m 842 594 l 828 594 l 828 601 q 753 749 829 708 q 664 769 717 769 l 561 769 l 561 481 l 736 481 l 736 418 l 561 418 l 561 86 q 583 35 561 56 q 635 14 604 14 l 649 14 l 649 0 l 203 0 l 203 14 l 217 14 q 267 35 246 14 q 289 86 289 56 l 289 418 l 122 418 l 122 481 l 289 481 l 289 769 l 188 769 q 35 672 68 768 q 24 601 24 640 l 24 594 l 10 594 l 10 856 q 71 842 28 849 q 149 835 114 835 l 703 835 q 785 842 739 835 q 842 856 831 849 l 842 594 z "},"Ū":{"ha":1174,"x_min":40,"x_max":1147,"o":"m 474 1104 l 474 1222 l 876 1222 l 876 1104 l 474 1104 m 833 972 l 1146 972 l 1146 958 l 1124 958 q 1073 940 1094 958 q 1050 893 1051 921 l 1050 357 q 941 81 1050 181 q 633 -19 832 -19 q 261 78 385 -19 q 138 356 138 175 l 138 889 q 116 939 138 919 q 64 958 94 958 l 42 958 l 42 972 l 518 972 l 518 958 l 496 958 q 444 940 465 958 q 422 892 424 921 l 422 361 q 489 133 422 215 q 675 51 556 51 q 862 128 794 51 q 929 343 929 206 l 929 892 q 907 940 928 921 q 856 958 886 958 l 833 958 l 833 972 z "},"ū":{"ha":983,"x_min":26,"x_max":968,"o":"m 356 965 l 356 1083 l 758 1083 l 758 965 l 356 965 m 968 822 l 950 822 q 907 805 925 822 q 889 763 889 788 l 889 310 q 797 69 889 156 q 536 -17 706 -17 q 106 307 106 -17 l 106 763 q 68 818 106 803 q 44 822 57 822 l 26 822 l 26 833 l 457 833 l 457 822 l 438 822 q 395 806 413 822 q 378 763 378 789 l 378 310 q 471 81 378 143 q 581 50 517 50 q 726 114 675 50 q 779 294 778 178 l 779 763 q 760 806 778 789 q 718 822 743 822 l 700 822 l 700 833 l 968 833 l 968 822 z "},"Ů":{"ha":1174,"x_min":40,"x_max":1147,"o":"m 506 1184 q 506 1211 506 1184 q 553 1273 506 1238 q 670 1308 600 1308 q 787 1274 740 1308 q 833 1185 833 1239 q 786 1096 833 1132 q 669 1060 739 1060 q 552 1095 599 1060 q 506 1184 506 1131 m 742 1184 q 742 1202 742 1184 q 721 1243 742 1219 q 669 1267 700 1267 q 619 1243 639 1267 q 599 1184 599 1219 q 619 1126 599 1149 q 669 1103 639 1103 q 721 1126 700 1103 q 742 1184 742 1149 m 833 972 l 1146 972 l 1146 958 l 1124 958 q 1073 940 1094 958 q 1050 893 1051 921 l 1050 357 q 941 81 1050 181 q 633 -19 832 -19 q 261 78 385 -19 q 138 356 138 175 l 138 889 q 116 939 138 919 q 64 958 94 958 l 42 958 l 42 972 l 518 972 l 518 958 l 496 958 q 444 940 465 958 q 422 892 424 921 l 422 361 q 489 133 422 215 q 675 51 556 51 q 862 128 794 51 q 929 343 929 206 l 929 892 q 907 940 928 921 q 856 958 886 958 l 833 958 l 833 972 z "},"ů":{"ha":983,"x_min":25,"x_max":968,"o":"m 386 1045 q 386 1072 386 1045 q 433 1134 386 1099 q 551 1169 481 1169 q 668 1135 622 1169 q 714 1047 714 1100 q 667 957 714 993 q 551 921 621 921 q 433 956 481 921 q 386 1045 386 992 m 622 1045 q 622 1063 622 1045 q 602 1104 622 1081 q 556 1128 582 1128 q 514 1117 531 1128 q 481 1052 481 1094 q 501 987 481 1010 q 551 964 521 964 q 602 987 582 964 q 622 1045 622 1010 m 968 822 l 950 822 q 907 805 925 822 q 889 763 889 788 l 889 310 q 797 69 889 156 q 536 -17 706 -17 q 106 307 106 -17 l 106 763 q 68 818 106 803 q 44 822 57 822 l 26 822 l 26 833 l 457 833 l 457 822 l 438 822 q 395 806 413 822 q 378 763 378 789 l 378 310 q 431 118 378 186 q 580 50 485 50 q 726 114 675 50 q 779 294 778 178 l 779 763 q 760 806 778 789 q 718 822 743 822 l 700 822 l 700 833 l 968 833 l 968 822 z "},"Ű":{"ha":1174,"x_min":42,"x_max":1147,"o":"m 499 1061 l 489 1071 q 578 1205 514 1132 q 703 1329 643 1278 q 821 1190 792 1292 q 636 1097 725 1126 q 499 1061 547 1067 m 790 1061 l 781 1071 q 870 1205 806 1132 q 994 1329 935 1278 q 1113 1190 1083 1292 q 953 1107 1043 1144 q 790 1061 863 1069 m 833 972 l 1146 972 l 1146 958 l 1124 958 q 1073 940 1094 958 q 1050 893 1051 921 l 1050 357 q 941 81 1050 181 q 633 -19 832 -19 q 261 78 385 -19 q 138 356 138 175 l 138 889 q 116 939 138 919 q 64 958 94 958 l 42 958 l 42 972 l 518 972 l 518 958 l 496 958 q 444 940 465 958 q 422 892 424 921 l 422 361 q 489 133 422 215 q 675 51 556 51 q 862 128 794 51 q 929 343 929 206 l 929 892 q 907 940 928 921 q 856 958 886 958 l 833 958 l 833 972 z "},"ű":{"ha":983,"x_min":26,"x_max":996,"o":"m 379 922 l 369 932 q 531 1139 407 1018 q 585 1190 558 1168 q 703 1051 674 1153 q 543 968 633 1006 q 379 922 453 931 m 671 922 l 661 932 q 752 1066 688 993 q 876 1190 817 1139 q 994 1051 965 1153 q 810 958 899 988 q 671 922 721 928 m 968 822 l 950 822 q 907 805 925 822 q 889 763 889 788 l 889 310 q 797 69 889 156 q 536 -17 706 -17 q 106 307 106 -17 l 106 763 q 75 815 106 799 q 44 822 61 822 l 26 822 l 26 833 l 457 833 l 457 822 l 438 822 q 396 806 413 822 q 378 763 379 789 l 378 310 q 431 118 378 186 q 580 50 485 50 q 726 114 675 50 q 779 294 778 178 l 779 763 q 749 815 778 799 q 718 822 735 822 l 700 822 l 700 833 l 968 833 l 968 822 z "},"Ų":{"ha":1174,"x_min":42,"x_max":1147,"o":"m 1146 972 l 1146 958 l 1124 958 q 1073 940 1094 958 q 1050 893 1051 921 l 1050 357 q 879 36 1050 132 q 676 -18 796 -11 q 589 -114 589 -39 q 644 -208 589 -187 q 684 -214 660 -214 q 746 -185 708 -214 l 754 -193 q 668 -307 747 -282 q 609 -314 644 -314 q 529 -283 574 -314 q 468 -168 468 -240 q 505 -65 468 -100 q 589 -18 542 -29 q 250 87 363 -10 q 138 356 138 183 l 138 889 q 116 939 138 919 q 64 958 94 958 l 42 958 l 42 972 l 518 972 l 518 958 l 496 958 q 444 940 465 958 q 422 892 424 921 l 422 361 q 489 133 422 215 q 675 51 556 51 q 862 128 794 51 q 929 343 929 206 l 929 892 q 907 940 928 921 q 856 958 886 958 l 833 958 l 833 972 l 1146 972 z "},"ų":{"ha":983,"x_min":26,"x_max":968,"o":"m 389 -162 q 497 -15 389 -50 q 106 307 106 -1 l 106 763 q 68 818 106 803 q 44 822 57 822 l 26 822 l 26 833 l 457 833 l 457 822 l 438 822 q 395 806 413 822 q 378 763 378 789 l 378 310 q 471 81 378 143 q 581 50 517 50 q 726 114 675 50 q 779 294 778 178 l 779 763 q 760 806 778 789 q 718 822 743 822 l 700 822 l 700 833 l 968 833 l 968 822 l 950 822 q 907 805 925 822 q 889 763 889 788 l 889 310 q 812 83 889 168 q 590 -14 735 -1 q 510 -108 510 -37 q 565 -203 510 -182 q 605 -208 581 -208 q 667 -179 629 -208 l 675 -187 q 589 -301 668 -276 q 530 -308 565 -308 q 450 -278 494 -308 q 389 -162 389 -235 z "},"Ŵ":{"ha":1339,"x_min":-71,"x_max":1396,"o":"m 744 1294 l 761 1294 l 1008 1050 l 999 1039 l 751 1129 l 519 1039 l 510 1050 l 744 1294 m 1394 958 l 1383 958 q 1314 938 1349 958 q 1264 879 1279 918 l 1028 124 q 1007 -7 1007 58 q 1008 -31 1007 -19 l 994 -31 l 674 574 l 454 124 q 417 -31 418 46 l 404 -31 l 61 879 q 9 939 42 919 q -58 958 -24 958 l -69 958 l -69 972 l 429 972 l 429 958 l 417 958 q 361 919 375 958 q 360 900 360 911 q 365 872 360 889 l 517 494 l 757 994 l 769 993 l 1046 482 l 1157 872 q 1160 899 1160 888 q 1156 925 1160 911 q 1138 949 1151 939 q 1104 958 1124 958 l 1092 958 l 1092 972 l 1394 972 l 1394 958 z "},"ŵ":{"ha":1182,"x_min":-44,"x_max":1228,"o":"m 667 1156 l 683 1156 l 932 911 l 922 900 l 675 990 l 443 900 l 433 911 l 667 1156 m 1226 819 l 1217 819 q 1160 806 1188 819 q 1117 763 1132 792 l 913 121 q 894 31 894 67 q 894 -14 894 -4 l 883 -14 l 597 469 l 411 117 q 378 -14 378 51 l 367 -14 l 67 753 q 23 803 51 788 q -35 819 -6 819 l -44 819 l -44 833 l 413 833 l 413 819 l 400 819 q 364 805 376 819 q 351 778 351 790 q 354 754 351 765 l 482 465 l 683 851 l 693 851 l 932 451 l 1018 749 q 1021 775 1021 761 q 1009 804 1021 789 q 971 819 997 819 l 961 819 l 961 833 l 1226 833 l 1226 819 z "},"Ŷ":{"ha":1013,"x_min":-64,"x_max":1076,"o":"m 594 1294 l 611 1294 l 858 1050 l 849 1039 l 601 1129 l 369 1039 l 360 1050 l 594 1294 m 1076 958 l 1057 958 q 977 935 1015 958 q 917 876 939 911 l 644 447 l 644 101 q 670 40 644 65 q 733 14 696 14 l 750 14 l 750 0 l 253 0 l 253 14 l 271 14 q 333 39 307 14 q 360 100 358 64 l 360 447 l 94 879 q -1 951 60 933 q -43 958 -22 958 l -62 958 l -62 972 l 474 972 l 474 958 l 457 958 q 410 931 426 958 q 400 901 400 915 q 408 872 400 886 l 599 529 l 796 872 q 804 900 804 886 q 794 929 804 914 q 747 958 776 958 l 731 958 l 731 972 l 1076 972 l 1076 958 z "},"ŷ":{"ha":879,"x_min":-68,"x_max":950,"o":"m 508 1156 l 525 1156 l 772 911 l 763 900 l 517 990 l 283 900 l 274 911 l 508 1156 m 950 819 l 932 819 q 865 801 896 819 q 814 754 833 782 l 579 388 l 579 86 q 601 35 579 56 q 656 14 624 14 l 671 14 l 671 0 l 215 0 l 215 14 l 232 14 q 285 35 263 14 q 307 86 307 56 l 307 386 l 68 754 q 8 806 42 793 q -50 819 -26 819 l -67 819 l -67 833 l 419 833 l 419 819 l 406 819 q 368 802 379 819 q 357 772 357 785 q 364 749 357 760 l 536 457 l 704 749 q 711 772 711 760 q 699 801 711 783 q 663 819 688 819 l 647 819 l 647 833 l 950 833 l 950 819 z "},"Ÿ":{"ha":1013,"x_min":-64,"x_max":1076,"o":"m 490 1079 q 475 1064 490 1079 q 417 1049 460 1049 q 344 1079 375 1049 q 314 1152 314 1110 q 344 1224 314 1194 q 417 1254 375 1254 q 490 1224 460 1254 q 519 1152 519 1194 q 490 1079 519 1110 m 853 1079 q 839 1064 853 1079 q 781 1049 824 1049 q 709 1079 739 1049 q 679 1152 679 1110 q 709 1224 679 1194 q 781 1254 739 1254 q 853 1224 824 1254 q 883 1152 883 1194 q 853 1079 883 1110 m 1076 958 l 1057 958 q 977 935 1015 958 q 917 876 939 911 l 644 447 l 644 101 q 670 40 644 65 q 733 14 696 14 l 750 14 l 750 0 l 253 0 l 253 14 l 271 14 q 333 39 307 14 q 360 100 358 64 l 360 447 l 94 879 q 35 935 74 913 q -43 958 -3 958 l -62 958 l -62 972 l 474 972 l 474 958 l 457 958 q 410 931 426 958 q 400 901 400 915 q 408 872 400 886 l 599 529 l 796 872 q 804 900 804 886 q 794 929 804 914 q 747 958 776 958 l 731 958 l 731 972 l 1076 972 l 1076 958 z "},"Ź":{"ha":928,"x_min":49,"x_max":894,"o":"m 442 1057 l 432 1067 q 523 1201 458 1128 q 647 1325 588 1274 q 765 1186 736 1288 q 606 1103 696 1140 q 442 1057 515 1065 m 68 999 q 141 982 89 990 q 215 974 193 974 q 236 974 236 974 l 715 974 q 814 981 774 974 q 863 992 854 988 l 863 979 l 396 69 l 592 69 q 771 137 693 69 q 881 322 849 204 l 894 322 l 842 0 l 49 0 l 49 13 l 510 904 l 260 904 q 129 855 176 903 q 82 724 82 807 l 82 713 l 68 713 l 68 999 z "},"ź":{"ha":842,"x_min":35,"x_max":832,"o":"m 418 918 l 408 928 q 468 1024 426 969 q 624 1186 538 1113 q 742 1047 713 1149 q 556 953 646 983 q 418 918 467 924 m 35 0 l 35 11 l 453 771 l 233 771 q 110 726 154 771 q 67 600 67 681 l 67 594 l 53 594 l 53 856 q 126 840 78 844 q 200 835 175 835 l 669 835 q 748 840 706 835 q 801 850 790 844 l 801 840 l 399 63 l 549 63 q 715 124 643 63 q 817 292 788 185 l 831 292 l 781 0 l 35 0 z "},"Ż":{"ha":928,"x_min":49,"x_max":894,"o":"m 538 1091 q 523 1076 538 1091 q 465 1061 508 1061 q 392 1091 422 1061 q 363 1163 363 1121 q 392 1235 363 1206 q 465 1265 422 1265 q 538 1235 508 1265 q 568 1163 568 1206 q 538 1091 568 1121 m 68 999 q 141 982 89 990 q 215 974 193 974 q 236 974 236 974 l 715 974 q 814 981 774 974 q 863 992 854 988 l 863 979 l 396 69 l 592 69 q 771 137 693 69 q 881 322 849 204 l 894 322 l 842 0 l 49 0 l 49 13 l 510 904 l 260 904 q 129 855 176 903 q 82 724 82 807 l 82 713 l 68 713 l 68 999 z "},"ż":{"ha":842,"x_min":35,"x_max":832,"o":"m 515 952 q 500 937 515 952 q 442 922 485 922 q 369 952 399 922 q 339 1024 339 982 q 369 1097 339 1067 q 442 1126 399 1126 q 515 1097 485 1126 q 544 1024 544 1067 q 515 952 544 982 m 35 0 l 35 11 l 453 771 l 233 771 q 110 726 154 771 q 67 600 67 681 l 67 594 l 53 594 l 53 856 q 116 842 69 849 q 200 835 163 835 l 669 835 q 758 840 721 835 q 801 850 794 846 l 801 840 l 399 63 l 549 63 q 715 124 643 63 q 817 292 788 185 l 831 292 l 781 0 l 35 0 z "},"Ž":{"ha":928,"x_min":49,"x_max":894,"o":"m 475 1061 l 458 1061 l 224 1304 l 233 1315 l 467 1226 l 686 1315 l 696 1304 l 475 1061 m 68 999 q 141 982 89 990 q 215 974 193 974 q 236 974 236 974 l 715 974 q 814 981 774 974 q 863 992 854 988 l 863 979 l 396 69 l 592 69 q 771 137 693 69 q 881 322 849 204 l 894 322 l 842 0 l 49 0 l 49 13 l 510 904 l 260 904 q 129 855 176 903 q 82 724 82 807 l 82 713 l 68 713 l 68 999 z "},"ž":{"ha":842,"x_min":35,"x_max":832,"o":"m 451 922 l 435 922 l 200 1165 l 210 1176 l 443 1088 l 663 1176 l 672 1165 l 451 922 m 35 0 l 35 11 l 453 771 l 233 771 q 110 726 154 771 q 67 600 67 681 l 67 594 l 53 594 l 53 856 q 200 835 100 835 l 669 835 q 758 840 721 835 q 801 850 794 846 l 801 840 l 399 63 l 549 63 q 715 124 643 63 q 817 292 788 185 l 831 292 l 781 0 l 35 0 z "},"ƒ":{"ha":803,"x_min":28,"x_max":761,"o":"m 761 589 l 747 589 l 747 597 q 704 723 747 678 q 581 769 661 768 l 451 769 l 451 443 l 547 443 q 647 484 608 444 q 686 586 686 524 l 686 592 l 700 592 l 700 228 l 686 228 l 686 236 q 647 338 686 297 q 547 378 608 378 l 451 378 l 451 111 q 426 -37 451 28 q 361 -140 401 -101 q 263 -204 321 -179 q 28 -247 164 -247 l 28 -233 q 139 -117 110 -187 q 168 69 168 -46 l 168 747 q 147 801 168 779 q 96 822 125 822 l 82 822 l 82 833 l 622 833 q 700 840 657 833 q 761 854 743 847 l 761 589 z "},"Ș":{"ha":854,"x_min":47,"x_max":828,"o":"m 828 314 q 828 230 828 314 q 708 63 828 146 q 390 -19 589 -19 q 188 6 275 -19 q 61 71 100 32 q 49 137 49 101 q 54 206 49 172 q 106 333 69 288 l 118 333 q 117 315 117 325 q 198 131 117 213 q 419 50 279 50 q 565 90 514 50 q 615 180 615 129 q 581 267 615 231 q 468 339 546 303 l 242 444 q 103 565 146 488 q 68 700 68 626 q 169 928 68 850 q 394 992 254 992 q 629 978 486 992 l 738 978 l 707 751 l 693 751 q 619 885 693 839 q 489 922 561 922 q 375 907 417 922 q 283 796 283 875 q 313 731 283 757 q 407 676 343 704 l 667 556 q 828 314 828 482 m 336 -367 q 381 -309 381 -347 q 356 -242 381 -271 q 331 -178 331 -214 q 364 -106 331 -129 q 406 -89 386 -89 q 504 -146 478 -89 q 519 -200 519 -178 q 515 -251 519 -222 q 487 -315 510 -279 q 430 -366 464 -350 q 375 -382 396 -382 q 340 -379 354 -382 l 336 -367 z "},"ș":{"ha":763,"x_min":54,"x_max":715,"o":"m 714 281 q 604 51 714 128 q 335 -17 507 -17 q 163 6 232 -17 q 68 63 94 29 q 56 124 56 92 q 61 185 56 156 q 110 300 76 258 l 118 300 q 118 288 118 293 q 185 121 118 194 q 372 47 253 47 q 479 79 443 47 q 515 153 515 111 q 483 226 515 194 q 376 290 450 258 l 231 358 q 100 468 142 396 q 68 590 68 524 q 71 635 68 613 q 335 850 101 850 q 544 838 413 850 l 638 838 l 604 635 l 596 635 q 547 744 596 703 q 424 785 497 785 q 272 693 282 785 q 306 622 268 649 q 386 582 335 603 l 565 500 q 676 411 639 468 q 714 281 714 354 m 306 -367 q 349 -309 349 -347 q 324 -242 349 -271 q 300 -178 300 -214 q 332 -106 300 -129 q 375 -89 354 -89 q 472 -146 446 -89 q 488 -200 488 -178 q 483 -251 488 -222 q 455 -315 478 -279 q 399 -366 432 -350 q 344 -382 365 -382 q 308 -379 322 -382 l 306 -367 z "},"Ț":{"ha":969,"x_min":13,"x_max":957,"o":"m 628 904 l 628 100 q 655 39 629 64 q 717 14 681 14 l 735 14 l 735 0 l 236 0 l 236 14 l 254 14 q 316 39 290 14 q 343 99 342 64 l 343 904 l 206 904 q 75 855 122 903 q 28 724 28 807 l 28 714 l 14 713 l 14 999 q 84 982 33 990 q 178 974 135 974 l 793 974 q 886 982 836 974 q 957 999 936 990 l 957 713 l 943 714 l 943 724 q 860 882 943 836 q 764 904 819 903 l 628 904 m 401 -367 q 444 -309 444 -347 q 419 -242 444 -271 q 394 -178 394 -214 q 428 -106 394 -129 q 469 -89 450 -89 q 568 -146 542 -89 q 583 -200 583 -178 q 578 -251 583 -222 q 551 -315 574 -279 q 494 -366 528 -350 q 439 -382 460 -382 q 404 -379 418 -382 l 401 -367 z "},"ț":{"ha":850,"x_min":10,"x_max":842,"o":"m 842 594 l 828 594 l 828 601 q 753 749 829 708 q 664 769 717 769 l 561 769 l 561 86 q 583 35 561 56 q 635 14 604 14 l 649 14 l 649 0 l 203 0 l 203 14 l 217 14 q 267 35 246 14 q 289 86 289 56 l 289 769 l 188 769 q 35 672 68 768 q 24 601 24 640 l 24 594 l 10 594 l 10 856 q 71 842 28 849 q 149 835 114 835 l 703 835 q 785 842 739 835 q 842 856 831 849 l 842 594 m 353 -365 q 397 -308 397 -346 q 372 -241 397 -269 q 347 -176 347 -212 q 379 -104 347 -128 q 422 -87 401 -87 q 519 -144 493 -87 q 535 -199 535 -176 q 530 -249 535 -221 q 502 -313 525 -278 q 446 -365 479 -349 q 391 -381 413 -381 q 357 -378 369 -381 l 353 -365 z "},"ˆ":{"ha":833,"x_min":140,"x_max":640,"o":"m 375 1172 l 392 1172 l 640 929 l 629 918 l 383 1007 l 150 918 l 140 929 l 375 1172 z "},"ˇ":{"ha":833,"x_min":153,"x_max":628,"o":"m 406 932 l 389 932 l 154 1175 l 164 1186 l 397 1097 l 617 1186 l 626 1175 l 406 932 z "},"˘":{"ha":833,"x_min":107,"x_max":506,"o":"m 504 1171 q 458 1056 504 1107 q 305 986 399 986 q 153 1056 211 986 q 107 1171 107 1108 q 113 1214 107 1192 l 129 1214 q 195 1151 146 1176 q 295 1125 244 1125 q 382 1136 346 1125 q 482 1214 458 1161 l 500 1214 q 504 1171 504 1192 z "},"˙":{"ha":833,"x_min":306,"x_max":511,"o":"m 481 954 q 465 939 481 954 q 408 924 450 924 q 335 954 365 924 q 306 1027 306 985 q 335 1099 306 1069 q 408 1129 365 1129 q 481 1099 450 1129 q 511 1027 511 1069 q 481 954 511 985 z "},"˚":{"ha":833,"x_min":253,"x_max":581,"o":"m 253 1094 q 253 1120 253 1094 q 300 1183 253 1147 q 417 1218 347 1218 q 534 1183 488 1218 q 581 1095 581 1149 q 534 1006 581 1042 q 417 969 488 969 q 299 1005 346 969 q 253 1094 253 1040 m 489 1094 q 489 1111 489 1094 q 468 1153 489 1129 q 417 1176 447 1176 q 366 1153 386 1176 q 346 1094 346 1129 q 366 1035 346 1058 q 417 1013 386 1013 q 468 1035 447 1013 q 489 1094 489 1058 z "},"˛":{"ha":833,"x_min":313,"x_max":600,"o":"m 599 -157 q 454 -278 590 -278 q 375 -247 419 -278 q 314 -132 314 -204 q 351 -28 314 -64 q 423 15 389 7 q 478 24 457 24 q 511 22 499 24 l 525 18 q 435 -78 435 -1 q 490 -172 435 -151 q 529 -178 504 -178 q 590 -149 554 -178 l 599 -157 z "},"˜":{"ha":833,"x_min":126,"x_max":674,"o":"m 647 1110 l 664 1110 q 672 1058 672 1085 q 660 1004 672 1032 q 575 910 631 936 q 499 893 542 893 q 388 928 456 893 q 294 966 318 963 q 249 969 269 969 q 194 947 228 969 q 150 897 161 925 l 133 897 q 128 938 128 917 q 190 1081 128 1021 q 285 1122 232 1122 q 413 1085 338 1122 q 550 1047 488 1047 q 604 1067 571 1047 q 647 1110 638 1088 z "},"˝":{"ha":833,"x_min":185,"x_max":811,"o":"m 196 1032 l 186 1042 q 276 1176 213 1103 q 400 1300 340 1249 q 519 1161 489 1263 q 359 1078 450 1115 q 196 1032 268 1040 m 488 1032 l 478 1042 q 568 1176 504 1103 q 692 1300 632 1249 q 811 1161 781 1263 q 625 1067 714 1097 q 488 1032 536 1038 z "},"̦":{"ha":0,"x_min":40,"x_max":231,"o":"m 47 -278 q 92 -220 92 -258 q 67 -153 92 -182 q 42 -89 42 -125 q 74 -17 42 -40 q 117 0 96 0 q 214 -57 189 0 q 231 -111 231 -89 q 226 -162 231 -133 q 198 -226 221 -190 q 141 -277 175 -261 q 86 -293 107 -293 q 51 -290 65 -293 l 47 -278 z "},"Δ":{"ha":906,"x_min":7,"x_max":899,"o":"m 899 0 l 7 0 l 7 14 l 446 992 l 460 992 l 899 14 l 899 0 m 692 69 l 403 739 l 110 69 l 692 69 z "},"Ω":{"ha":1221,"x_min":26,"x_max":1194,"o":"m 893 596 q 813 829 893 736 q 612 922 733 922 q 409 827 490 922 q 328 592 328 732 q 393 365 328 451 q 576 243 458 279 l 549 0 l 94 0 l 28 361 l 42 361 q 112 267 79 292 q 204 243 144 243 l 465 243 q 253 285 350 243 q 96 408 156 326 q 36 599 36 489 q 111 801 36 710 q 317 942 186 892 q 611 992 449 992 q 905 940 774 992 q 1110 798 1036 889 q 1185 597 1185 707 q 1126 406 1185 488 q 969 284 1067 325 q 753 243 872 243 l 1017 243 q 1110 267 1078 243 q 1181 361 1142 292 l 1194 361 l 1128 0 l 669 0 l 642 243 q 893 596 893 326 z "},"μ":{"ha":1186,"x_min":-26,"x_max":1214,"o":"m 763 0 l 763 14 l 782 14 q 818 31 807 14 q 828 67 829 49 l 782 378 l 590 110 q 554 42 569 81 q 539 -12 539 3 q 539 -31 539 -26 l 528 -31 l 215 358 l 178 67 q 185 39 176 53 q 224 14 199 14 l 243 14 l 243 0 l -26 0 l -26 14 l -8 14 q 51 33 26 14 q 81 86 76 51 l 189 850 l 200 850 l 614 329 l 985 850 l 997 850 l 1108 79 q 1140 31 1117 49 q 1193 14 1163 14 l 1213 14 l 1213 0 l 763 0 z "},"π":{"ha":1088,"x_min":33,"x_max":1054,"o":"m 601 14 q 656 36 633 14 q 679 89 678 58 l 679 689 q 642 754 678 732 q 604 764 624 764 l 485 764 q 433 742 454 764 q 410 690 411 721 l 410 88 q 433 35 411 57 q 488 14 456 14 l 501 14 l 503 0 l 35 0 l 35 14 l 50 14 q 104 36 82 14 q 126 89 126 58 l 126 744 q 88 810 126 788 q 50 819 71 819 l 35 819 l 35 833 l 1054 833 l 1054 819 l 1039 819 q 986 798 1008 819 q 963 746 964 776 l 963 88 q 1001 24 964 44 q 1039 14 1018 14 l 1054 14 l 1054 0 l 586 0 l 588 14 l 601 14 z "},"Ẁ":{"ha":1339,"x_min":-69,"x_max":1396,"o":"m 792 1071 l 782 1061 q 618 1107 708 1069 q 458 1190 528 1144 q 576 1329 488 1292 q 701 1205 638 1278 q 792 1071 765 1132 m 1394 958 l 1383 958 q 1314 938 1349 958 q 1264 879 1279 918 l 1028 124 q 1007 -7 1007 58 q 1008 -31 1007 -19 l 994 -31 l 674 574 l 454 124 q 417 -31 418 46 l 404 -31 l 61 879 q 9 939 42 919 q -58 958 -24 958 l -69 958 l -69 972 l 429 972 l 429 958 l 417 958 q 373 940 388 958 q 358 905 358 921 q 365 872 358 889 l 517 494 l 757 994 l 769 993 l 1046 482 l 1157 872 q 1160 899 1160 888 q 1156 925 1160 911 q 1138 949 1153 939 q 1104 958 1124 958 l 1092 958 l 1092 972 l 1394 972 l 1394 958 z "},"ẁ":{"ha":1182,"x_min":-44,"x_max":1228,"o":"m 715 932 l 706 922 q 542 968 632 931 q 382 1051 451 1006 q 500 1190 411 1153 q 624 1066 560 1139 q 715 932 689 993 m 1226 819 l 1217 819 q 1160 806 1188 819 q 1117 763 1132 792 l 913 121 q 894 31 894 67 q 894 -14 894 -4 l 883 -14 l 597 469 l 411 117 q 378 -14 378 51 l 367 -14 l 67 753 q 23 803 51 788 q -35 819 -6 819 l -44 819 l -44 833 l 413 833 l 413 819 l 400 819 q 364 805 376 819 q 351 778 351 790 q 354 754 351 765 l 482 465 l 683 851 l 693 851 l 932 451 l 1018 749 q 1021 775 1021 761 q 1009 804 1021 789 q 971 819 997 819 l 961 819 l 961 833 l 1226 833 l 1226 819 z "},"Ẃ":{"ha":1339,"x_min":-69,"x_max":1396,"o":"m 731 1057 l 721 1067 q 812 1201 747 1128 q 936 1325 876 1274 q 1054 1186 1025 1288 q 894 1103 985 1140 q 731 1057 804 1065 m 1394 958 l 1383 958 q 1314 938 1349 958 q 1264 879 1279 918 l 1028 124 q 1007 -7 1007 58 q 1008 -31 1007 -19 l 994 -31 l 674 574 l 454 124 q 417 -31 418 46 l 404 -31 l 61 879 q 9 939 42 919 q -58 958 -24 958 l -69 958 l -69 972 l 429 972 l 429 958 l 417 958 q 361 919 375 958 q 360 900 360 911 q 365 872 360 889 l 517 494 l 757 994 l 769 993 l 1046 482 l 1157 872 q 1161 904 1161 888 q 1148 940 1161 921 q 1104 958 1135 958 l 1092 958 l 1092 972 l 1394 972 l 1394 958 z "},"ẃ":{"ha":1182,"x_min":-44,"x_max":1228,"o":"m 654 918 l 644 928 q 735 1062 671 989 q 858 1186 799 1135 q 978 1047 949 1149 q 792 953 881 983 q 654 918 703 924 m 1226 819 l 1217 819 q 1160 806 1188 819 q 1117 763 1132 792 l 913 121 q 894 31 894 67 q 894 -14 894 -4 l 883 -14 l 597 469 l 411 117 q 378 -14 378 51 l 367 -14 l 67 753 q 23 803 51 788 q -35 819 -6 819 l -44 819 l -44 833 l 413 833 l 413 819 l 400 819 q 364 805 376 819 q 351 778 351 790 q 354 754 351 765 l 482 465 l 683 851 l 693 851 l 932 451 l 1018 749 q 1021 775 1021 761 q 1009 804 1021 789 q 971 819 997 819 l 961 819 l 961 833 l 1226 833 l 1226 819 z "},"Ẅ":{"ha":1339,"x_min":-69,"x_max":1396,"o":"m 640 1079 q 625 1064 640 1079 q 567 1049 610 1049 q 495 1079 525 1049 q 465 1152 465 1110 q 495 1224 465 1194 q 567 1254 525 1254 q 640 1224 610 1254 q 669 1152 669 1194 q 640 1079 669 1110 m 1005 1079 q 990 1064 1005 1079 q 933 1049 975 1049 q 860 1079 890 1049 q 829 1152 829 1110 q 860 1224 829 1194 q 933 1254 890 1254 q 1005 1224 975 1254 q 1035 1152 1035 1194 q 1005 1079 1035 1110 m 1394 958 l 1383 958 q 1314 938 1349 958 q 1264 879 1279 918 l 1028 124 q 1007 -7 1007 58 q 1008 -31 1007 -19 l 994 -31 l 674 574 l 454 124 q 417 -31 418 46 l 404 -31 l 61 879 q 9 939 42 919 q -58 958 -24 958 l -69 958 l -69 972 l 429 972 l 429 958 l 417 958 q 361 919 375 958 q 360 900 360 911 q 365 872 360 889 l 517 494 l 757 994 l 769 993 l 1046 482 l 1157 872 q 1161 904 1161 888 q 1148 940 1161 921 q 1104 958 1135 958 l 1092 958 l 1092 972 l 1394 972 l 1394 958 z "},"ẅ":{"ha":1182,"x_min":-44,"x_max":1228,"o":"m 563 940 q 547 925 563 940 q 490 910 532 910 q 417 940 447 910 q 388 1013 388 971 q 417 1085 388 1056 q 490 1115 447 1115 q 563 1085 532 1115 q 593 1013 593 1056 q 563 940 593 971 m 927 940 q 912 925 927 940 q 855 910 897 910 q 783 940 813 910 q 753 1013 753 971 q 783 1085 753 1056 q 855 1115 813 1115 q 927 1085 897 1115 q 957 1013 957 1056 q 927 940 957 971 m 1226 819 l 1217 819 q 1160 806 1188 819 q 1117 763 1132 792 l 913 121 q 894 31 894 67 q 894 -14 894 -4 l 883 -14 l 597 469 l 411 117 q 378 -14 378 51 l 367 -14 l 67 753 q 23 803 51 788 q -35 819 -6 819 l -44 819 l -44 833 l 413 833 l 413 819 l 400 819 q 364 805 376 819 q 351 778 351 790 q 354 754 351 765 l 482 465 l 683 851 l 693 851 l 932 451 l 1018 749 q 1021 775 1021 761 q 1009 804 1021 789 q 971 819 997 819 l 961 819 l 961 833 l 1226 833 l 1226 819 z "},"Ỳ":{"ha":1013,"x_min":-64,"x_max":1076,"o":"m 642 1071 l 632 1061 q 408 1133 532 1074 q 308 1190 353 1160 q 426 1329 338 1292 q 568 1184 513 1256 q 642 1071 624 1113 m 1076 958 l 1057 958 q 977 935 1015 958 q 917 876 939 911 l 644 447 l 644 101 q 670 40 644 65 q 733 14 696 14 l 750 14 l 750 0 l 253 0 l 253 14 l 271 14 q 333 39 307 14 q 360 100 358 64 l 360 447 l 94 879 q -1 951 60 933 q -43 958 -22 958 l -62 958 l -62 972 l 474 972 l 474 958 l 457 958 q 410 931 426 958 q 400 901 400 915 q 408 872 400 886 l 599 529 l 796 872 q 804 900 804 886 q 794 929 804 914 q 747 958 776 958 l 731 958 l 731 972 l 1076 972 l 1076 958 z "},"ỳ":{"ha":879,"x_min":-67,"x_max":950,"o":"m 556 932 l 546 922 q 383 968 474 931 q 222 1051 292 1006 q 342 1190 253 1153 q 465 1066 401 1139 q 556 932 529 993 m 950 819 l 932 819 q 865 801 896 819 q 814 754 833 782 l 579 388 l 579 86 q 601 35 579 56 q 656 14 624 14 l 671 14 l 671 0 l 215 0 l 215 14 l 232 14 q 285 35 263 14 q 307 86 307 56 l 307 386 l 68 754 q 17 801 49 782 q -50 819 -15 819 l -67 819 l -67 833 l 419 833 l 419 819 l 406 819 q 368 802 379 819 q 357 772 357 785 q 364 749 357 760 l 536 457 l 704 749 q 711 772 711 760 q 699 801 711 783 q 663 819 688 819 l 647 819 l 647 833 l 950 833 l 950 819 z "},"–":{"ha":694,"x_min":0,"x_max":694,"o":"m 0 363 l 0 446 l 694 446 l 694 363 l 0 363 z "},"—":{"ha":1111,"x_min":0,"x_max":1111,"o":"m 0 363 l 0 446 l 1111 446 l 1111 363 l 0 363 z "},"‘":{"ha":386,"x_min":47,"x_max":339,"o":"m 329 1150 q 290 1122 307 1140 q 267 1085 274 1104 q 260 1053 260 1067 q 299 960 260 1004 q 338 858 338 915 q 288 747 338 783 q 222 722 254 722 q 72 810 111 722 q 49 922 49 867 q 72 1025 49 976 q 218 1164 124 1132 q 276 1174 250 1174 q 324 1171 303 1174 l 329 1150 z "},"’":{"ha":372,"x_min":47,"x_max":325,"o":"m 111 821 q 122 851 121 839 q 122 874 122 863 q 85 952 122 910 q 49 1049 49 994 q 96 1154 49 1121 q 158 1179 129 1179 q 301 1096 264 1179 q 324 989 324 1042 q 301 890 324 936 q 163 758 253 789 q 107 749 132 749 q 63 751 82 749 l 57 771 q 111 821 93 786 z "},"‚":{"ha":386,"x_min":47,"x_max":339,"o":"m 57 -176 q 119 -111 104 -156 q 126 -78 126 -92 q 88 14 126 -31 q 49 115 49 58 q 99 226 49 190 q 164 253 133 253 q 315 164 275 253 q 338 53 338 108 q 314 -51 338 -1 q 168 -189 263 -157 q 110 -200 136 -200 q 64 -196 83 -200 l 57 -176 z "},"“":{"ha":733,"x_min":47,"x_max":674,"o":"m 329 1150 q 290 1122 307 1140 q 267 1085 274 1104 q 260 1053 260 1067 q 299 960 260 1004 q 338 858 338 915 q 288 747 338 783 q 222 722 254 722 q 72 810 111 722 q 49 922 49 867 q 72 1025 49 976 q 218 1164 124 1132 q 276 1174 250 1174 q 324 1171 303 1174 l 329 1150 m 664 1150 q 625 1122 642 1140 q 601 1085 608 1104 q 594 1053 594 1067 q 633 960 594 1004 q 672 858 672 915 q 622 747 672 783 q 557 722 589 722 q 407 810 446 722 q 383 922 383 867 q 407 1025 383 976 q 553 1164 458 1132 q 611 1174 585 1174 q 658 1171 638 1174 l 664 1150 z "},"”":{"ha":692,"x_min":47,"x_max":644,"o":"m 111 821 q 122 851 121 839 q 122 874 122 863 q 85 952 122 910 q 49 1049 49 994 q 96 1154 49 1121 q 158 1179 129 1179 q 301 1096 264 1179 q 324 989 324 1042 q 301 890 324 936 q 163 758 253 789 q 107 749 132 749 q 63 751 82 749 l 57 771 q 111 821 93 786 m 431 821 q 441 851 440 839 q 442 874 442 863 q 405 952 442 910 q 368 1049 368 994 q 415 1154 368 1121 q 478 1179 449 1179 q 621 1096 583 1179 q 643 1002 643 1047 q 632 919 643 957 q 596 847 621 882 q 419 749 528 749 q 382 751 401 749 l 376 771 q 431 821 413 786 z "},"„":{"ha":719,"x_min":47,"x_max":672,"o":"m 57 -186 q 119 -121 104 -165 q 126 -87 126 -103 q 88 4 126 -40 q 49 106 49 49 q 99 217 49 181 q 164 243 133 243 q 315 154 275 243 q 338 44 338 99 q 314 -61 338 -11 q 168 -199 263 -167 q 110 -210 136 -210 q 64 -206 83 -210 l 57 -186 m 392 -186 q 453 -121 438 -165 q 460 -87 460 -103 q 421 4 460 -40 q 382 106 382 49 q 432 217 382 181 q 497 243 467 243 q 649 154 608 243 q 671 44 671 99 q 647 -61 671 -11 q 501 -199 596 -167 q 443 -210 469 -210 q 397 -206 417 -210 l 392 -186 z "},"†":{"ha":663,"x_min":28,"x_max":636,"o":"m 636 608 l 603 488 l 428 547 l 338 603 l 394 515 l 453 215 l 339 -250 l 325 -250 l 210 215 l 269 515 l 325 603 l 235 546 l 61 488 l 28 608 l 61 731 l 235 671 l 325 617 l 269 701 l 210 958 l 333 992 l 453 958 l 394 701 l 339 617 l 428 672 l 603 731 l 636 608 z "},"‡":{"ha":664,"x_min":28,"x_max":638,"o":"m 604 253 l 638 132 l 604 10 l 431 69 l 340 125 l 396 39 l 454 -218 l 332 -251 l 211 -218 l 271 39 l 326 125 l 236 69 l 63 10 l 29 132 l 63 253 l 236 194 l 326 139 l 271 225 l 211 371 l 269 515 l 325 603 l 235 546 l 61 488 l 28 608 l 61 731 l 235 671 l 325 617 l 269 701 l 210 958 l 333 992 l 453 958 l 394 701 l 339 617 l 428 672 l 603 731 l 636 608 l 603 488 l 428 547 l 338 603 l 394 515 l 454 371 l 396 225 l 340 139 l 431 194 l 604 253 z "},"•":{"ha":540,"x_min":69,"x_max":471,"o":"m 316 272 q 300 266 316 272 q 271 261 285 261 q 243 267 257 261 q 129 321 154 296 q 75 435 104 346 q 69 463 69 449 q 75 490 69 476 q 129 604 104 579 q 243 658 154 629 q 271 663 257 663 q 299 658 285 663 q 413 604 388 629 q 467 490 438 579 q 471 462 471 476 q 460 415 471 447 q 440 362 450 383 q 411 321 431 340 q 369 292 392 301 q 316 272 347 282 z "},"…":{"ha":1028,"x_min":49,"x_max":979,"o":"m 262 17 q 243 -1 262 17 q 174 -19 225 -19 q 85 17 122 -19 q 49 106 49 54 q 85 194 49 157 q 174 231 122 231 q 262 194 225 231 q 299 106 299 157 q 262 17 299 54 m 602 17 q 584 -1 602 17 q 514 -19 565 -19 q 426 17 463 -19 q 389 106 389 54 q 426 194 389 157 q 514 231 463 231 q 602 194 565 231 q 639 106 639 157 q 602 17 639 54 m 942 17 q 924 -1 942 17 q 854 -19 906 -19 q 766 17 803 -19 q 729 106 729 54 q 766 194 729 157 q 854 231 803 231 q 942 194 906 231 q 979 106 979 157 q 942 17 979 54 z "},"‰":{"ha":1621,"x_min":26,"x_max":1571,"o":"m 504 892 q 526 808 526 847 q 524 746 526 768 q 434 566 511 631 q 238 501 357 501 q 67 569 119 501 q 28 701 28 621 q 124 931 28 853 q 318 992 200 992 l 319 992 q 347 992 322 992 q 409 982 371 992 q 467 960 447 972 q 582 924 529 924 q 726 969 640 924 q 756 985 749 981 l 810 961 l 293 -26 l 231 0 l 711 907 q 607 874 660 874 q 504 892 554 874 m 217 656 q 217 606 217 656 q 252 558 217 557 q 312 608 288 558 q 344 725 336 657 q 351 831 351 793 q 313 936 351 936 q 246 849 274 936 q 217 656 217 754 m 625 410 q 814 471 701 471 q 976 411 926 471 q 1026 260 1026 351 q 943 50 1026 119 q 740 -19 860 -19 q 568 49 621 -19 q 529 179 529 100 q 625 410 529 331 m 1168 410 q 1357 471 1244 471 q 1519 411 1469 471 q 1569 260 1569 351 q 1486 50 1569 119 q 1283 -19 1403 -19 q 1111 49 1164 -19 q 1072 179 1072 100 q 1168 410 1072 331 m 708 131 q 746 36 708 36 q 803 85 779 36 q 836 203 828 135 q 844 310 844 272 q 804 415 844 415 q 752 365 775 415 q 719 243 729 315 q 708 131 708 171 m 1251 131 q 1289 36 1251 36 q 1347 85 1322 36 q 1379 203 1371 135 q 1388 310 1388 272 q 1347 415 1388 415 q 1295 365 1318 415 q 1262 243 1272 315 q 1251 131 1251 171 z "},"‹":{"ha":463,"x_min":56,"x_max":381,"o":"m 368 681 l 379 674 l 271 406 l 381 132 l 368 122 l 56 406 l 368 681 z "},"›":{"ha":463,"x_min":83,"x_max":408,"o":"m 96 122 l 83 132 l 193 406 l 85 674 l 96 681 l 408 406 l 96 122 z "},"⁄":{"ha":833,"x_min":26,"x_max":758,"o":"m 692 1004 l 757 960 l 94 -28 l 28 15 l 692 1004 z "},"€":{"ha":963,"x_min":-56,"x_max":940,"o":"m 621 -18 q 286 88 424 -18 q 110 367 149 193 l -56 367 l -29 436 l 99 436 q 99 533 94 485 l -56 533 l -31 603 l 108 603 q 202 804 133 717 q 381 942 271 892 q 604 992 490 992 q 813 971 718 992 q 939 910 907 950 l 865 694 l 851 694 q 853 732 853 701 q 836 806 853 763 q 789 875 819 850 q 649 922 729 922 q 401 603 435 922 l 835 603 l 810 533 l 396 533 l 396 488 q 396 436 396 461 l 778 436 l 756 367 l 401 367 q 668 51 436 51 q 831 112 769 51 q 926 297 892 172 l 939 297 l 939 68 q 806 4 899 26 q 621 -18 713 -18 z "},"™":{"ha":711,"x_min":14,"x_max":699,"o":"m 199 951 l 199 724 q 206 706 199 713 q 224 699 213 699 l 228 699 l 228 694 l 78 694 l 78 699 l 83 699 q 100 706 93 699 q 107 724 107 713 l 107 951 l 74 951 q 33 937 47 951 q 18 896 18 922 l 18 893 l 14 893 l 14 981 q 61 974 32 974 l 244 974 q 292 981 274 974 l 292 893 l 288 893 l 288 896 q 273 937 288 922 q 232 951 258 951 l 199 951 m 699 694 l 549 694 l 549 699 l 556 699 q 565 703 561 699 q 571 714 569 708 l 554 821 l 490 732 q 474 685 472 706 l 469 685 l 365 814 l 353 714 q 358 703 353 708 q 368 699 363 699 l 374 699 l 374 694 l 285 694 l 285 699 l 292 699 q 319 719 314 699 l 357 979 l 360 979 l 499 804 l 622 979 l 626 979 l 664 721 q 692 699 669 699 l 699 699 l 699 694 z "},"∂":{"ha":899,"x_min":40,"x_max":851,"o":"m 290 890 q 104 815 172 890 l 92 825 q 240 964 140 922 q 404 996 318 996 q 756 826 633 996 q 851 499 851 693 q 735 124 851 256 q 379 -21 606 -21 q 239 1 306 -21 q 63 171 113 43 q 42 282 42 225 q 69 417 42 347 q 167 542 97 488 q 336 611 236 597 q 376 614 356 614 q 554 569 460 614 q 438 846 539 776 q 290 890 374 890 m 506 510 q 342 321 379 510 q 333 237 333 269 q 336 165 333 204 q 361 88 339 125 q 411 50 383 50 q 511 168 472 50 q 556 463 550 286 l 556 504 q 506 510 529 510 z "},"∏":{"ha":1185,"x_min":47,"x_max":1138,"o":"m 685 -264 q 739 -242 717 -264 q 763 -189 761 -221 l 763 828 q 740 881 761 858 q 688 903 718 903 l 499 903 q 447 881 468 903 q 424 829 425 860 l 424 -190 q 447 -242 425 -221 q 501 -264 469 -264 l 515 -264 l 517 -278 l 49 -278 l 49 -264 l 64 -264 q 118 -242 96 -264 q 140 -189 140 -221 l 140 883 q 101 949 140 926 q 64 958 85 958 l 49 958 l 49 972 l 1138 972 l 1138 958 l 1122 958 q 1069 937 1092 958 q 1046 885 1047 915 l 1046 -190 q 1069 -242 1046 -221 q 1122 -264 1092 -264 l 1138 -264 l 1138 -278 l 669 -278 l 671 -264 l 685 -264 z "},"∑":{"ha":885,"x_min":35,"x_max":858,"o":"m 35 -251 l 35 -236 l 419 322 l 43 958 l 43 972 l 633 972 q 740 982 693 972 q 799 997 786 992 l 799 711 l 785 713 l 785 722 q 738 853 785 806 q 607 903 690 901 l 386 903 l 633 478 l 293 -8 l 575 -8 q 742 65 669 -1 q 844 243 814 131 l 858 243 l 806 -251 l 35 -251 z "},"−":{"ha":668,"x_min":56,"x_max":614,"o":"m 56 385 l 56 475 l 614 475 l 614 385 l 56 385 z "},"√":{"ha":821,"x_min":13,"x_max":814,"o":"m 32 525 l 14 597 l 340 679 l 446 322 l 736 1171 l 813 1168 l 358 -204 l 117 546 l 32 525 z "},"∞":{"ha":879,"x_min":42,"x_max":839,"o":"m 225 215 q 94 272 147 215 q 42 411 42 328 q 95 552 42 494 q 215 610 149 610 q 440 486 338 610 q 540 575 483 540 q 664 610 597 610 q 784 552 731 610 q 838 410 838 494 q 814 312 838 357 q 748 241 790 267 q 649 215 706 215 q 535 251 592 215 q 439 340 478 286 q 308 232 388 265 q 225 215 267 215 m 228 303 q 248 303 228 303 q 310 334 268 303 q 385 413 353 365 q 225 522 300 522 q 160 490 189 522 q 132 424 132 457 q 140 369 132 390 q 160 335 147 349 q 228 303 189 303 m 654 303 q 719 335 692 303 q 747 413 747 368 q 719 490 747 457 q 654 522 692 522 q 494 413 579 522 q 654 303 571 303 z "},"∫":{"ha":890,"x_min":0,"x_max":892,"o":"m 390 992 q 404 1009 390 992 q 456 1050 418 1026 q 543 1089 494 1074 q 647 1104 592 1104 q 890 993 872 1104 q 890 981 890 986 q 863 918 890 946 q 801 894 832 894 q 722 935 754 894 q 701 972 710 949 q 685 1008 693 996 q 657 1019 676 1021 q 627 999 638 1018 q 614 922 617 981 q 563 40 567 96 q 539 -72 558 -15 q 492 -163 519 -129 q 428 -219 465 -197 q 222 -269 346 -269 q 11 -187 54 -269 q 0 -154 0 -168 q 25 -86 0 -111 q 89 -57 56 -57 q 181 -128 153 -57 q 192 -157 188 -146 q 225 -185 201 -186 q 258 -162 249 -183 q 273 -28 267 -142 q 292 288 279 85 q 319 781 315 715 q 342 901 322 846 q 390 992 363 957 z "},"≈":{"ha":669,"x_min":26,"x_max":643,"o":"m 106 592 q 153 611 126 604 q 195 618 179 618 q 234 615 211 618 q 304 592 257 613 q 391 553 351 572 q 449 533 431 535 q 483 537 467 532 q 519 556 499 542 q 579 600 546 574 l 642 540 q 627 524 640 538 q 600 499 614 511 q 465 442 533 442 q 425 445 453 442 q 319 486 397 449 q 210 526 236 526 q 166 517 185 526 q 137 499 147 508 q 94 458 126 489 l 28 518 q 106 592 54 560 m 106 356 q 153 375 126 368 q 194 382 179 382 q 342 340 254 382 q 448 297 429 299 q 483 301 467 296 q 519 319 499 306 q 579 364 546 338 l 642 304 q 627 288 640 301 q 600 263 614 275 q 465 206 533 206 q 425 209 453 206 q 319 250 397 213 q 206 290 235 290 q 158 278 178 290 q 120 248 139 267 q 100 228 101 229 q 94 222 97 225 l 28 282 q 106 356 54 324 z "},"≠":{"ha":668,"x_min":56,"x_max":614,"o":"m 614 492 l 444 492 l 371 339 l 614 339 l 614 249 l 328 249 l 247 81 l 163 118 l 225 249 l 56 249 l 56 339 l 268 339 l 342 492 l 56 492 l 56 582 l 386 582 l 460 735 l 543 696 l 488 582 l 614 582 l 614 492 z "},"≤":{"ha":696,"x_min":56,"x_max":614,"o":"m 614 814 l 614 715 l 185 514 l 614 311 l 614 213 l 56 472 l 56 554 l 614 814 m 56 46 l 56 136 l 614 136 l 614 46 l 56 46 z "},"≥":{"ha":833,"x_min":56,"x_max":614,"o":"m 56 814 l 614 554 l 614 472 l 56 213 l 56 311 l 485 514 l 56 715 l 56 814 m 56 46 l 56 136 l 614 136 l 614 46 l 56 46 z "},"◊":{"ha":708,"x_min":54,"x_max":654,"o":"m 654 486 l 346 -19 l 56 486 l 346 992 l 654 486 m 147 486 l 347 132 l 561 486 l 347 840 l 147 486 z "},"ﬁ":{"ha":1257,"x_min":29,"x_max":1228,"o":"m 708 589 l 694 589 l 694 597 q 619 747 694 706 q 529 769 582 768 l 389 769 l 389 443 l 494 443 q 617 513 579 444 q 633 586 633 544 l 633 589 l 647 589 l 647 231 l 633 231 l 633 236 q 595 338 633 297 q 494 378 557 378 l 389 378 l 389 86 q 425 24 390 43 q 463 14 442 14 l 476 14 l 476 0 l 29 0 l 29 14 l 44 14 q 95 35 74 14 q 117 86 117 56 l 117 746 q 95 799 117 778 q 44 819 74 819 l 29 819 l 29 833 l 571 833 q 649 840 606 833 q 708 854 692 847 l 708 589 m 1213 14 l 1228 14 l 1228 0 l 782 0 l 782 14 l 797 14 q 847 35 826 14 q 868 86 868 56 l 868 747 q 824 814 867 796 q 797 819 811 819 l 782 819 l 782 833 l 1226 833 l 1226 819 l 1213 819 q 1151 785 1171 819 q 1140 747 1142 768 l 1140 86 q 1163 35 1142 56 q 1213 14 1183 14 z "},"ﬂ":{"ha":1526,"x_min":29,"x_max":1533,"o":"m 708 589 l 694 589 l 694 597 q 619 747 694 706 q 529 769 582 768 l 389 769 l 389 443 l 494 443 q 617 513 579 444 q 633 586 633 544 l 633 589 l 647 589 l 647 231 l 633 231 l 633 236 q 595 338 633 297 q 494 378 557 378 l 389 378 l 389 86 q 425 24 390 43 q 463 14 442 14 l 476 14 l 476 0 l 29 0 l 29 14 l 44 14 q 95 35 74 14 q 117 86 117 56 l 117 746 q 95 799 117 778 q 44 819 74 819 l 29 819 l 29 833 l 571 833 q 649 840 606 833 q 708 854 692 847 l 708 589 m 1493 0 l 782 0 l 782 14 l 797 14 q 848 35 826 14 q 869 86 869 56 l 869 747 q 832 810 868 790 q 797 819 817 819 l 782 819 l 782 833 l 1231 833 l 1231 819 l 1215 819 q 1151 785 1172 819 q 1142 747 1142 768 l 1142 64 l 1275 64 q 1426 125 1358 64 q 1519 292 1493 186 l 1533 292 l 1493 0 z "}," ":{"ha":347,"x_min":0,"x_max":0,"o":""}}}
